SplineFontDB: 3.2
FontName: YoungSerif-Regular
FullName: Young Serif Regular
FamilyName: Young Serif
Weight: Book
Copyright: Copyright 2023 The Young Serif Project Authors (https://github.com/noirblancrouge/YoungSerif)
Version: 3.003; ttfautohint (v1.8.4.7-5d5b);gftools[0.9.33]
ItalicAngle: 0
UnderlinePosition: -125
UnderlineWidth: 50
Ascent: 800
Descent: 200
InvalidEm: 0
sfntRevision: 0x000300c5
LayerCount: 2
Layer: 0 1 "Back" 1
Layer: 1 1 "Fore" 0
XUID: [1021 532 1055050713 853]
StyleMap: 0x0040
FSType: 0
OS2Version: 4
OS2_WeightWidthSlopeOnly: 0
OS2_UseTypoMetrics: 1
CreationTime: 1692192618
ModificationTime: 1728690260
PfmFamily: 81
TTFWeight: 400
TTFWidth: 5
LineGap: 0
VLineGap: 0
Panose: 0 0 0 0 0 0 0 0 0 0
OS2TypoAscent: 1046
OS2TypoAOffset: 0
OS2TypoDescent: -366
OS2TypoDOffset: 0
OS2TypoLinegap: 0
OS2WinAscent: 1302
OS2WinAOffset: 0
OS2WinDescent: 366
OS2WinDOffset: 0
HheadAscent: 1046
HheadAOffset: 0
HheadDescent: -366
HheadDOffset: 0
OS2SubXSize: 650
OS2SubYSize: 600
OS2SubXOff: 0
OS2SubYOff: 75
OS2SupXSize: 650
OS2SupYSize: 600
OS2SupXOff: 0
OS2SupYOff: 350
OS2StrikeYSize: 50
OS2StrikeYPos: 300
OS2CapHeight: 750
OS2XHeight: 500
OS2Vendor: 'NONE'
OS2CodePages: 20000093.00000000
OS2UnicodeRanges: a00000ff.400020eb.00000000.00000000
Lookup: 1 0 0 "'aalt' Access All Alternates in Latin lookup 0" { "'aalt' Access All Alternates in Latin lookup 0 subtable"  } ['aalt' ('DFLT' <'dflt' > 'latn' <'AZE ' 'CAT ' 'CRT ' 'KAZ ' 'MOL ' 'NLD ' 'ROM ' 'TAT ' 'TRK ' 'dflt' > ) ]
Lookup: 3 0 0 "'aalt' Access All Alternates in Latin lookup 1" { "'aalt' Access All Alternates in Latin lookup 1 subtable"  } ['aalt' ('DFLT' <'dflt' > 'latn' <'AZE ' 'CAT ' 'CRT ' 'KAZ ' 'MOL ' 'NLD ' 'ROM ' 'TAT ' 'TRK ' 'dflt' > ) ]

StartChar: .notdef
Encoding: 65536 -1 0
Width: 500
GlyphClass: 1
Flags: W
LayerCount: 2
Fore
SplineSet
0 685 m 2,0,1
 0 691 0 691 4.5 695.5 c 128,-1,2
 9 700 9 700 15 700 c 2,3,-1
 485 700 l 2,4,5
 491 700 491 700 495.5 695.5 c 128,-1,6
 500 691 500 691 500 685 c 2,7,-1
 500 15 l 2,8,9
 500 9 500 9 495.5 4.5 c 128,-1,10
 491 0 491 0 485 0 c 2,11,-1
 15 0 l 2,12,13
 9 0 9 0 4.5 4.5 c 128,-1,14
 0 9 0 9 0 15 c 2,15,-1
 0 685 l 2,0,1
400 620 m 2,16,17
 407 631 407 631 402 640.5 c 128,-1,18
 397 650 397 650 384 650 c 2,19,-1
 116 650 l 2,20,21
 103 650 103 650 98 640.5 c 128,-1,22
 93 631 93 631 100 620 c 2,23,-1
 235 417 l 2,24,25
 240 409 240 409 250 409 c 128,-1,26
 260 409 260 409 265 417 c 2,27,-1
 400 620 l 2,16,17
50 178 m 2,28,29
 50 159 50 159 68 153.5 c 128,-1,30
 86 148 86 148 96 164 c 2,31,-1
 215 342 l 2,32,33
 221 350 221 350 215 358 c 2,34,-1
 96 536 l 2,35,36
 86 553 86 553 68 547.5 c 128,-1,37
 50 542 50 542 50 523 c 2,38,-1
 50 178 l 2,28,29
404 164 m 2,39,40
 415 148 415 148 432.5 153.5 c 128,-1,41
 450 159 450 159 450 178 c 2,42,-1
 450 522 l 2,43,44
 450 541 450 541 432.5 547 c 128,-1,45
 415 553 415 553 404 536 c 2,46,-1
 285 358 l 2,47,48
 279 350 279 350 285 342 c 2,49,-1
 404 164 l 2,39,40
384 50 m 2,50,51
 397 50 397 50 402 60 c 128,-1,52
 407 70 407 70 400 80 c 2,53,-1
 265 283 l 2,54,55
 260 291 260 291 250 291 c 128,-1,56
 240 291 240 291 235 283 c 2,57,-1
 100 80 l 2,58,59
 93 70 93 70 98 60 c 128,-1,60
 103 50 103 50 116 50 c 2,61,-1
 384 50 l 2,50,51
EndSplineSet
EndChar

StartChar: A
Encoding: 65 65 1
Width: 786
GlyphClass: 2
Flags: W
AnchorPoint: "Anchor-2" 765 0 basechar 0
AnchorPoint: "Anchor-1" 364 0 basechar 0
AnchorPoint: "Anchor-0" 388 750 basechar 0
LayerCount: 2
Fore
SplineSet
691 155 m 2,0,1
 707 114 707 114 722 87 c 128,-1,2
 737 60 737 60 765 60 c 0,3,4
 775 60 775 60 777.5 56.5 c 128,-1,5
 780 53 780 53 780 45 c 2,6,-1
 780 15 l 2,7,8
 780 0 780 0 765 0 c 2,9,-1
 458 0 l 2,10,11
 443 0 443 0 443 15 c 2,12,-1
 443 45 l 2,13,14
 443 53 443 53 445.5 56.5 c 128,-1,15
 448 60 448 60 458 60 c 0,16,17
 485 60 485 60 510.5 80 c 128,-1,18
 536 100 536 100 536 129 c 0,19,20
 536 136 536 136 534.5 142 c 128,-1,21
 533 148 533 148 531 155 c 2,22,-1
 500 240 l 1,23,-1
 226 240 l 1,24,-1
 196 155 l 2,25,26
 194 148 194 148 193 141.5 c 128,-1,27
 192 135 192 135 192 130 c 0,28,29
 192 98 192 98 218 79 c 128,-1,30
 244 60 244 60 270 60 c 0,31,32
 281 60 281 60 283 56.5 c 128,-1,33
 285 53 285 53 285 45 c 2,34,-1
 285 15 l 2,35,36
 285 0 285 0 270 0 c 2,37,-1
 21 0 l 2,38,39
 6 0 6 0 6 15 c 2,40,-1
 6 45 l 2,41,42
 6 53 6 53 8.5 56.5 c 128,-1,43
 11 60 11 60 21 60 c 0,44,45
 51 60 51 60 66.5 88 c 128,-1,46
 82 116 82 116 96 155 c 2,47,-1
 311 737 l 2,48,49
 315 750 315 750 328 750 c 2,50,-1
 449 750 l 2,51,52
 462 750 462 750 466 738 c 2,53,-1
 691 155 l 2,0,1
257 327 m 1,54,-1
 468 327 l 1,55,-1
 360 619 l 1,56,-1
 257 327 l 1,54,-1
EndSplineSet
Substitution2: "Single Substitution lookup 21 subtable" ordfeminine
Substitution2: "'aalt' Access All Alternates in Latin lookup 0 subtable" ordfeminine
Position2: "'cpsp' Capital Spacing in Latin lookup 0 subtable" dx=5 dy=0 dh=10 dv=0
EndChar

StartChar: AE
Encoding: 198 198 13
Width: 1172
GlyphClass: 2
Flags: W
AnchorPoint: "Anchor-0" 733 750 basechar 0
LayerCount: 2
Fore
SplineSet
457 0 m 2,0,1
 442 0 442 0 442 15 c 2,2,-1
 442 53 l 2,3,4
 442 68 442 68 457 68 c 0,5,6
 487 68 487 68 508.5 90 c 128,-1,7
 530 112 530 112 530 155 c 2,8,-1
 530 239 l 1,9,-1
 292 239 l 1,10,-1
 245 155 l 2,11,12
 227 122 227 122 227 100 c 0,13,14
 227 84 227 84 239.5 74.5 c 128,-1,15
 252 65 252 65 269 65 c 0,16,17
 280 65 280 65 282 61 c 128,-1,18
 284 57 284 57 284 50 c 2,19,-1
 284 15 l 2,20,21
 284 0 284 0 269 0 c 2,22,-1
 20 0 l 2,23,24
 5 0 5 0 5 15 c 2,25,-1
 5 50 l 2,26,27
 5 65 5 65 20 65 c 0,28,29
 63 65 63 65 93.5 92 c 128,-1,30
 124 119 124 119 145 155 c 2,31,-1
 418 628 l 2,32,33
 425 640 425 640 429 651 c 128,-1,34
 433 662 433 662 433 669 c 0,35,36
 433 689 433 689 388 689 c 2,37,-1
 387 689 l 2,38,39
 372 689 372 689 372 704 c 2,40,-1
 372 734 l 2,41,42
 372 750 372 750 387 750 c 2,43,-1
 963 750 l 2,44,45
 976 750 976 750 982 755 c 2,46,-1
 988 760 l 2,47,48
 991 763 991 763 996 763 c 0,49,50
 1004 763 1004 763 1009 755 c 2,51,-1
 1088 619 l 2,52,53
 1091 615 1091 615 1091 610 c 0,54,55
 1091 603 1091 603 1083 598 c 2,56,-1
 1043 576 l 2,57,58
 1036 572 1036 572 1032 572 c 0,59,60
 1025 572 1025 572 1020 581 c 2,61,-1
 1017 586 l 2,62,63
 986 638 986 638 950.5 658.5 c 128,-1,64
 915 679 915 679 857 679 c 2,65,-1
 695 679 l 1,66,-1
 695 444 l 1,67,-1
 783 444 l 2,68,69
 828 444 828 444 853 461 c 128,-1,70
 878 478 878 478 878 511 c 2,71,-1
 878 518 l 2,72,73
 878 533 878 533 893 533 c 2,74,-1
 923 533 l 2,75,76
 938 533 938 533 938 518 c 2,77,-1
 938 291 l 2,78,79
 938 276 938 276 923 276 c 2,80,-1
 893 276 l 2,81,82
 878 276 878 276 878 291 c 2,83,-1
 878 297 l 2,84,85
 878 331 878 331 853.5 347.5 c 128,-1,86
 829 364 829 364 783 364 c 2,87,-1
 695 364 l 1,88,-1
 695 166 l 2,89,90
 695 71 695 71 764 71 c 2,91,-1
 829 71 l 2,92,93
 903 71 903 71 949.5 85 c 128,-1,94
 996 99 996 99 1027.5 132 c 128,-1,95
 1059 165 1059 165 1087 221 c 2,96,-1
 1090 227 l 2,97,98
 1095 235 1095 235 1103 235 c 0,99,100
 1108 235 1108 235 1111 233 c 2,101,-1
 1143 214 l 2,102,103
 1152 209 1152 209 1152 203 c 0,104,105
 1152 199 1152 199 1149 193 c 2,106,-1
 1055 -5 l 2,107,108
 1051 -14 1051 -14 1043 -14 c 0,109,110
 1038 -14 1038 -14 1034 -10 c 2,111,-1
 1029 -5 l 2,112,113
 1024 0 1024 0 1009 0 c 2,114,-1
 457 0 l 2,0,1
341 326 m 1,115,-1
 529 326 l 1,116,-1
 529 661 l 1,117,-1
 341 326 l 1,115,-1
EndSplineSet
Position2: "'cpsp' Capital Spacing in Latin lookup 0 subtable" dx=5 dy=0 dh=10 dv=0
EndChar

StartChar: B
Encoding: 66 66 15
Width: 719
GlyphClass: 1
Flags: W
LayerCount: 2
Fore
SplineSet
367 750 m 2,0,1
 437 750 437 750 492.5 726 c 128,-1,2
 548 702 548 702 581 661 c 128,-1,3
 614 620 614 620 614 569 c 0,4,5
 614 526 614 526 588 490 c 128,-1,6
 562 454 562 454 513 429 c 1,7,8
 591 407 591 407 635 351.5 c 128,-1,9
 679 296 679 296 679 221 c 0,10,11
 679 156 679 156 645 106 c 128,-1,12
 611 56 611 56 551 28 c 128,-1,13
 491 0 491 0 412 0 c 2,14,-1
 45 0 l 2,15,16
 30 0 30 0 30 15 c 2,17,-1
 30 45 l 2,18,19
 30 60 30 60 45 60 c 0,20,21
 119 60 119 60 119 155 c 2,22,-1
 119 595 l 2,23,24
 119 690 119 690 45 690 c 0,25,26
 30 690 30 690 30 705 c 2,27,-1
 30 735 l 2,28,29
 30 750 30 750 45 750 c 2,30,-1
 367 750 l 2,0,1
335 448 m 2,31,32
 397 448 397 448 430.5 480 c 128,-1,33
 464 512 464 512 464 569 c 256,34,35
 464 626 464 626 431 658 c 128,-1,36
 398 690 398 690 339 690 c 2,37,-1
 278 690 l 1,38,-1
 278 448 l 1,39,-1
 335 448 l 2,31,32
369 60 m 2,40,41
 445 60 445 60 487 102.5 c 128,-1,42
 529 145 529 145 529 221 c 0,43,44
 529 377 529 377 336 377 c 2,45,-1
 278 377 l 1,46,-1
 278 155 l 2,47,48
 278 109 278 109 295 84.5 c 128,-1,49
 312 60 312 60 344 60 c 2,50,-1
 369 60 l 2,40,41
EndSplineSet
Position2: "'cpsp' Capital Spacing in Latin lookup 0 subtable" dx=5 dy=0 dh=10 dv=0
EndChar

StartChar: C
Encoding: 67 67 16
Width: 749
GlyphClass: 2
Flags: W
AnchorPoint: "Anchor-1" 407 0 basechar 0
AnchorPoint: "Anchor-0" 401 750 basechar 0
LayerCount: 2
Fore
SplineSet
730 240 m 2,0,1
 736 237 736 237 740 234.5 c 128,-1,2
 744 232 744 232 744 227 c 0,3,4
 744 225 744 225 742 219 c 0,5,6
 726 180 726 180 698.5 139.5 c 128,-1,7
 671 99 671 99 630.5 64 c 128,-1,8
 590 29 590 29 534.5 8 c 128,-1,9
 479 -13 479 -13 407 -13 c 0,10,11
 287 -13 287 -13 204 37 c 128,-1,12
 121 87 121 87 78 173.5 c 128,-1,13
 35 260 35 260 35 367 c 0,14,15
 35 417 35 417 46 471.5 c 128,-1,16
 57 526 57 526 82 578 c 128,-1,17
 107 630 107 630 149.5 671.5 c 128,-1,18
 192 713 192 713 255 737.5 c 128,-1,19
 318 762 318 762 404 762 c 0,20,21
 476 762 476 762 528 744 c 128,-1,22
 580 726 580 726 615 698.5 c 128,-1,23
 650 671 650 671 671 641 c 128,-1,24
 692 611 692 611 701 585 c 128,-1,25
 710 559 710 559 710 546 c 0,26,27
 710 532 710 532 693 526 c 2,28,-1
 571 483 l 2,29,30
 561 479 561 479 553 479 c 0,31,32
 541 479 541 479 541 489 c 0,33,34
 541 491 541 491 542 504 c 128,-1,35
 543 517 543 517 543 522 c 0,36,37
 543 558 543 558 530 595 c 128,-1,38
 517 632 517 632 485 657.5 c 128,-1,39
 453 683 453 683 396 683 c 0,40,41
 342 683 342 683 305.5 657 c 128,-1,42
 269 631 269 631 247 589 c 128,-1,43
 225 547 225 547 215.5 500 c 128,-1,44
 206 453 206 453 206 411 c 0,45,46
 206 314 206 314 229 240.5 c 128,-1,47
 252 167 252 167 300.5 125.5 c 128,-1,48
 349 84 349 84 423 84 c 256,49,50
 497 84 497 84 544.5 110 c 128,-1,51
 592 136 592 136 620.5 173.5 c 128,-1,52
 649 211 649 211 665 247 c 0,53,54
 671 260 671 260 682 260 c 0,55,56
 687 260 687 260 695 256 c 2,57,-1
 730 240 l 2,0,1
EndSplineSet
Position2: "'cpsp' Capital Spacing in Latin lookup 0 subtable" dx=5 dy=0 dh=10 dv=0
EndChar

StartChar: D
Encoding: 68 68 23
Width: 790
GlyphClass: 2
Flags: W
AnchorPoint: "Anchor-1" 353 0 basechar 0
AnchorPoint: "Anchor-0" 351 750 basechar 0
LayerCount: 2
Fore
SplineSet
353 750 m 2,0,1
 473 750 473 750 563.5 705 c 128,-1,2
 654 660 654 660 704.5 576 c 128,-1,3
 755 492 755 492 755 376 c 0,4,5
 755 257 755 257 709 172.5 c 128,-1,6
 663 88 663 88 579 44 c 128,-1,7
 495 0 495 0 381 0 c 2,8,-1
 45 0 l 2,9,10
 30 0 30 0 30 15 c 2,11,-1
 30 45 l 2,12,13
 30 60 30 60 45 60 c 2,14,-1
 52 60 l 2,15,16
 85 60 85 60 102 85 c 128,-1,17
 119 110 119 110 119 155 c 2,18,-1
 119 595 l 2,19,20
 119 690 119 690 46 690 c 2,21,-1
 45 690 l 2,22,23
 30 690 30 690 30 705 c 2,24,-1
 30 735 l 2,25,26
 30 750 30 750 45 750 c 2,27,-1
 353 750 l 2,0,1
278 150 m 2,28,29
 278 111 278 111 291 88 c 128,-1,30
 304 65 304 65 352 65 c 0,31,32
 471 65 471 65 537 139 c 128,-1,33
 603 213 603 213 603 376 c 0,34,35
 603 521 603 521 535 605.5 c 128,-1,36
 467 690 467 690 325 690 c 2,37,-1
 278 690 l 1,38,-1
 278 150 l 2,28,29
EndSplineSet
Position2: "'cpsp' Capital Spacing in Latin lookup 0 subtable" dx=5 dy=0 dh=10 dv=0
EndChar

StartChar: Eth
Encoding: 208 208 28
Width: 790
GlyphClass: 2
Flags: W
AnchorPoint: "Anchor-1" 353 0 basechar 0
AnchorPoint: "Anchor-0" 351 750 basechar 0
LayerCount: 2
Fore
SplineSet
45 303 m 2,0,1
 30 303 30 303 30 318 c 2,2,-1
 30 405 l 2,3,4
 30 420 30 420 45 420 c 2,5,-1
 119 420 l 1,6,-1
 119 595 l 2,7,8
 119 690 119 690 46 690 c 2,9,-1
 45 690 l 2,10,11
 30 690 30 690 30 705 c 2,12,-1
 30 735 l 2,13,14
 30 750 30 750 45 750 c 2,15,-1
 353 750 l 2,16,17
 473 750 473 750 563.5 705 c 128,-1,18
 654 660 654 660 704.5 576 c 128,-1,19
 755 492 755 492 755 376 c 0,20,21
 755 257 755 257 709 172.5 c 128,-1,22
 663 88 663 88 579 44 c 128,-1,23
 495 0 495 0 381 0 c 2,24,-1
 45 0 l 2,25,26
 30 0 30 0 30 15 c 2,27,-1
 30 45 l 2,28,29
 30 60 30 60 45 60 c 2,30,-1
 52 60 l 2,31,32
 85 60 85 60 102 85 c 128,-1,33
 119 110 119 110 119 155 c 2,34,-1
 119 303 l 1,35,-1
 45 303 l 2,0,1
278 150 m 2,36,37
 278 111 278 111 291 88 c 128,-1,38
 304 65 304 65 352 65 c 0,39,40
 471 65 471 65 537 139 c 128,-1,41
 603 213 603 213 603 376 c 0,42,43
 603 521 603 521 535 605.5 c 128,-1,44
 467 690 467 690 325 690 c 2,45,-1
 278 690 l 1,46,-1
 278 420 l 1,47,-1
 490 420 l 2,48,49
 505 420 505 420 505 405 c 2,50,-1
 505 318 l 2,51,52
 505 303 505 303 490 303 c 2,53,-1
 278 303 l 1,54,-1
 278 150 l 2,36,37
EndSplineSet
Position2: "'cpsp' Capital Spacing in Latin lookup 0 subtable" dx=5 dy=0 dh=10 dv=0
EndChar

StartChar: E
Encoding: 69 69 29
Width: 755
GlyphClass: 2
Flags: W
AnchorPoint: "Anchor-2" 592 0 basechar 0
AnchorPoint: "Anchor-1" 374 0 basechar 0
AnchorPoint: "Anchor-0" 365 750 basechar 0
LayerCount: 2
Fore
SplineSet
726 214 m 2,0,1
 735 209 735 209 735 203 c 0,2,3
 735 199 735 199 732 193 c 2,4,-1
 638 -5 l 2,5,6
 634 -14 634 -14 626 -14 c 0,7,8
 621 -14 621 -14 617 -10 c 2,9,-1
 612 -5 l 2,10,11
 607 0 607 0 592 0 c 2,12,-1
 45 0 l 2,13,14
 30 0 30 0 30 15 c 2,15,-1
 30 45 l 2,16,17
 30 60 30 60 45 60 c 2,18,-1
 47 60 l 2,19,20
 119 60 119 60 119 155 c 2,21,-1
 119 594 l 2,22,23
 119 689 119 689 46 689 c 2,24,-1
 45 689 l 2,25,26
 30 689 30 689 30 704 c 2,27,-1
 30 734 l 2,28,29
 30 750 30 750 45 750 c 2,30,-1
 546 750 l 2,31,32
 559 750 559 750 565 755 c 2,33,-1
 571 760 l 2,34,35
 574 763 574 763 579 763 c 0,36,37
 587 763 587 763 592 755 c 2,38,-1
 671 619 l 2,39,40
 674 615 674 615 674 610 c 0,41,42
 674 603 674 603 666 598 c 2,43,-1
 626 576 l 2,44,45
 619 572 619 572 615 572 c 0,46,47
 608 572 608 572 603 581 c 2,48,-1
 600 586 l 2,49,50
 569 638 569 638 533.5 658.5 c 128,-1,51
 498 679 498 679 440 679 c 2,52,-1
 278 679 l 1,53,-1
 278 444 l 1,54,-1
 366 444 l 2,55,56
 411 444 411 444 436 461 c 128,-1,57
 461 478 461 478 461 511 c 2,58,-1
 461 518 l 2,59,60
 461 533 461 533 476 533 c 2,61,-1
 506 533 l 2,62,63
 521 533 521 533 521 518 c 2,64,-1
 521 291 l 2,65,66
 521 276 521 276 506 276 c 2,67,-1
 476 276 l 2,68,69
 461 276 461 276 461 291 c 2,70,-1
 461 297 l 2,71,72
 461 331 461 331 436.5 347.5 c 128,-1,73
 412 364 412 364 366 364 c 2,74,-1
 278 364 l 1,75,-1
 278 166 l 2,76,77
 278 71 278 71 347 71 c 2,78,-1
 412 71 l 2,79,80
 486 71 486 71 532.5 85 c 128,-1,81
 579 99 579 99 610.5 132 c 128,-1,82
 642 165 642 165 670 221 c 2,83,-1
 673 227 l 2,84,85
 678 235 678 235 686 235 c 0,86,87
 691 235 691 235 694 233 c 2,88,-1
 726 214 l 2,0,1
EndSplineSet
Position2: "'cpsp' Capital Spacing in Latin lookup 0 subtable" dx=5 dy=0 dh=10 dv=0
EndChar

StartChar: uni018F
Encoding: 399 399 44
Width: 779
GlyphClass: 1
Flags: W
LayerCount: 2
Fore
SplineSet
37 533 m 0,0,1
 53 572 53 572 80.5 612.5 c 128,-1,2
 108 653 108 653 148.5 686.5 c 128,-1,3
 189 720 189 720 244.5 741 c 128,-1,4
 300 762 300 762 372 762 c 0,5,6
 492 762 492 762 575 712.5 c 128,-1,7
 658 663 658 663 701 578 c 128,-1,8
 744 493 744 493 744 385 c 0,9,10
 744 335 744 335 733 280 c 128,-1,11
 722 225 722 225 697 173 c 128,-1,12
 672 121 672 121 629.5 79 c 128,-1,13
 587 37 587 37 524 12 c 128,-1,14
 461 -13 461 -13 375 -13 c 0,15,16
 300 -13 300 -13 246.5 7.5 c 128,-1,17
 193 28 193 28 156.5 61 c 128,-1,18
 120 94 120 94 99 132 c 128,-1,19
 78 170 78 170 69 206 c 128,-1,20
 60 242 60 242 60 267 c 0,21,22
 60 275 60 275 62.5 280.5 c 128,-1,23
 65 286 65 286 75 290 c 2,24,-1
 553 502 l 1,25,26
 531 579 531 579 482 623.5 c 128,-1,27
 433 668 433 668 356 668 c 0,28,29
 282 668 282 668 234.5 642.5 c 128,-1,30
 187 617 187 617 158.5 579 c 128,-1,31
 130 541 130 541 114 505 c 0,32,33
 108 492 108 492 97 492 c 0,34,35
 92 492 92 492 84 496 c 2,36,-1
 49 512 l 2,37,38
 44 514 44 514 39.5 517 c 128,-1,39
 35 520 35 520 35 524 c 0,40,41
 35 527 35 527 37 533 c 0,0,1
236 230 m 2,42,43
 236 195 236 195 249 157.5 c 128,-1,44
 262 120 262 120 294 94.5 c 128,-1,45
 326 69 326 69 383 69 c 0,46,47
 437 69 437 69 473.5 95 c 128,-1,48
 510 121 510 121 532 163 c 128,-1,49
 554 205 554 205 563.5 252 c 128,-1,50
 573 299 573 299 573 341 c 0,51,52
 573 375 573 375 570 408 c 1,53,-1
 236 242 l 1,54,-1
 236 230 l 2,42,43
EndSplineSet
Position2: "'cpsp' Capital Spacing in Latin lookup 0 subtable" dx=5 dy=0 dh=10 dv=0
EndChar

StartChar: F
Encoding: 70 70 45
Width: 694
GlyphClass: 1
Flags: W
LayerCount: 2
Fore
SplineSet
278 155 m 2,0,1
 278 110 278 110 295 85 c 128,-1,2
 312 60 312 60 346 60 c 2,3,-1
 353 60 l 2,4,5
 368 60 368 60 368 45 c 2,6,-1
 368 15 l 2,7,8
 368 0 368 0 353 0 c 2,9,-1
 45 0 l 2,10,11
 30 0 30 0 30 15 c 2,12,-1
 30 45 l 2,13,14
 30 60 30 60 45 60 c 2,15,-1
 47 60 l 2,16,17
 119 60 119 60 119 155 c 2,18,-1
 119 594 l 2,19,20
 119 689 119 689 46 689 c 2,21,-1
 45 689 l 2,22,23
 30 689 30 689 30 704 c 2,24,-1
 30 734 l 2,25,26
 30 750 30 750 45 750 c 2,27,-1
 546 750 l 2,28,29
 559 750 559 750 565 755 c 2,30,-1
 571 760 l 2,31,32
 574 763 574 763 579 763 c 0,33,34
 587 763 587 763 592 755 c 2,35,-1
 671 619 l 2,36,37
 674 615 674 615 674 610 c 0,38,39
 674 603 674 603 666 598 c 2,40,-1
 626 576 l 2,41,42
 619 572 619 572 615 572 c 0,43,44
 608 572 608 572 603 581 c 2,45,-1
 600 586 l 2,46,47
 569 638 569 638 523.5 658.5 c 128,-1,48
 478 679 478 679 420 679 c 2,49,-1
 278 679 l 1,50,-1
 278 434 l 1,51,-1
 366 434 l 2,52,53
 411 434 411 434 436 451 c 128,-1,54
 461 468 461 468 461 501 c 2,55,-1
 461 508 l 2,56,57
 461 523 461 523 476 523 c 2,58,-1
 506 523 l 2,59,60
 521 523 521 523 521 508 c 2,61,-1
 521 281 l 2,62,63
 521 266 521 266 506 266 c 2,64,-1
 476 266 l 2,65,66
 461 266 461 266 461 281 c 2,67,-1
 461 287 l 2,68,69
 461 321 461 321 436.5 337.5 c 128,-1,70
 412 354 412 354 366 354 c 2,71,-1
 278 354 l 1,72,-1
 278 155 l 2,0,1
EndSplineSet
Position2: "'cpsp' Capital Spacing in Latin lookup 0 subtable" dx=5 dy=0 dh=10 dv=0
EndChar

StartChar: G
Encoding: 71 71 46
Width: 772
GlyphClass: 2
Flags: W
AnchorPoint: "Anchor-1" 396 0 basechar 0
AnchorPoint: "Anchor-0" 386 750 basechar 0
LayerCount: 2
Fore
SplineSet
206 411 m 0,0,1
 206 356 206 356 218 298.5 c 128,-1,2
 230 241 230 241 256 192 c 128,-1,3
 282 143 282 143 323 113.5 c 128,-1,4
 364 84 364 84 422 84 c 0,5,6
 444 84 444 84 470.5 89.5 c 128,-1,7
 497 95 497 95 516.5 108.5 c 128,-1,8
 536 122 536 122 536 145 c 2,9,-1
 536 197 l 2,10,11
 536 254 536 254 520 278 c 128,-1,12
 504 302 504 302 479.5 307 c 128,-1,13
 455 312 455 312 429 312 c 2,14,-1
 422 312 l 2,15,16
 407 312 407 312 407 327 c 2,17,-1
 407 357 l 2,18,19
 407 372 407 372 422 372 c 2,20,-1
 737 372 l 2,21,22
 752 372 752 372 752 357 c 2,23,-1
 752 327 l 2,24,25
 752 312 752 312 737 312 c 2,26,-1
 729 312 l 2,27,28
 703 312 703 312 703 279 c 2,29,-1
 703 171 l 1,30,31
 669 91 669 91 590 39 c 128,-1,32
 511 -13 511 -13 397 -13 c 0,33,34
 313 -13 313 -13 246 16 c 128,-1,35
 179 45 179 45 132 97 c 128,-1,36
 85 149 85 149 60 218 c 128,-1,37
 35 287 35 287 35 367 c 0,38,39
 35 417 35 417 46 472 c 128,-1,40
 57 527 57 527 82.5 578.5 c 128,-1,41
 108 630 108 630 150.5 671.5 c 128,-1,42
 193 713 193 713 255.5 737.5 c 128,-1,43
 318 762 318 762 404 762 c 0,44,45
 476 762 476 762 528.5 744 c 128,-1,46
 581 726 581 726 616 698 c 128,-1,47
 651 670 651 670 671.5 640 c 128,-1,48
 692 610 692 610 701 584.5 c 128,-1,49
 710 559 710 559 710 546 c 0,50,51
 710 537 710 537 705.5 533 c 128,-1,52
 701 529 701 529 693 526 c 2,53,-1
 571 483 l 2,54,55
 567 482 567 482 562.5 480.5 c 128,-1,56
 558 479 558 479 553 479 c 0,57,58
 549 479 549 479 545 480.5 c 128,-1,59
 541 482 541 482 541 489 c 0,60,61
 541 494 541 494 542 501.5 c 128,-1,62
 543 509 543 509 543 522 c 0,63,64
 543 591 543 591 506.5 637 c 128,-1,65
 470 683 470 683 396 683 c 0,66,67
 339 683 339 683 296 648.5 c 128,-1,68
 253 614 253 614 229.5 553 c 128,-1,69
 206 492 206 492 206 411 c 0,0,1
EndSplineSet
Position2: "'cpsp' Capital Spacing in Latin lookup 0 subtable" dx=5 dy=0 dh=10 dv=0
EndChar

StartChar: H
Encoding: 72 72 53
Width: 898
GlyphClass: 2
Flags: W
AnchorPoint: "Anchor-1" 449 0 basechar 0
AnchorPoint: "Anchor-0" 449 750 basechar 0
LayerCount: 2
Fore
SplineSet
780 155 m 2,0,1
 780 115 780 115 794.5 87.5 c 128,-1,2
 809 60 809 60 847 60 c 2,3,-1
 853 60 l 2,4,5
 868 60 868 60 868 45 c 2,6,-1
 868 15 l 2,7,8
 868 0 868 0 853 0 c 2,9,-1
 546 0 l 2,10,11
 531 0 531 0 531 15 c 2,12,-1
 531 45 l 2,13,14
 531 60 531 60 546 60 c 2,15,-1
 552 60 l 2,16,17
 590 60 590 60 605 87.5 c 128,-1,18
 620 115 620 115 620 155 c 2,19,-1
 620 345 l 1,20,-1
 278 345 l 1,21,-1
 278 155 l 2,22,23
 278 115 278 115 293 87.5 c 128,-1,24
 308 60 308 60 346 60 c 2,25,-1
 352 60 l 2,26,27
 367 60 367 60 367 45 c 2,28,-1
 367 15 l 2,29,30
 367 0 367 0 352 0 c 2,31,-1
 45 0 l 2,32,33
 30 0 30 0 30 15 c 2,34,-1
 30 45 l 2,35,36
 30 60 30 60 45 60 c 2,37,-1
 51 60 l 2,38,39
 89 60 89 60 103.5 87.5 c 128,-1,40
 118 115 118 115 118 155 c 2,41,-1
 118 595 l 2,42,43
 118 635 118 635 103.5 662.5 c 128,-1,44
 89 690 89 690 51 690 c 2,45,-1
 45 690 l 2,46,47
 30 690 30 690 30 705 c 2,48,-1
 30 735 l 2,49,50
 30 750 30 750 45 750 c 2,51,-1
 352 750 l 2,52,53
 367 750 367 750 367 735 c 2,54,-1
 367 705 l 2,55,56
 367 690 367 690 352 690 c 2,57,-1
 346 690 l 2,58,59
 308 690 308 690 293 662.5 c 128,-1,60
 278 635 278 635 278 595 c 2,61,-1
 278 424 l 1,62,-1
 620 424 l 1,63,-1
 620 595 l 2,64,65
 620 635 620 635 605 662.5 c 128,-1,66
 590 690 590 690 552 690 c 2,67,-1
 546 690 l 2,68,69
 531 690 531 690 531 705 c 2,70,-1
 531 735 l 2,71,72
 531 750 531 750 546 750 c 2,73,-1
 853 750 l 2,74,75
 868 750 868 750 868 735 c 2,76,-1
 868 705 l 2,77,78
 868 690 868 690 853 690 c 2,79,-1
 847 690 l 2,80,81
 809 690 809 690 794.5 662.5 c 128,-1,82
 780 635 780 635 780 595 c 2,83,-1
 780 155 l 2,0,1
EndSplineSet
Position2: "'cpsp' Capital Spacing in Latin lookup 0 subtable" dx=5 dy=0 dh=10 dv=0
EndChar

StartChar: Hbar
Encoding: 294 294 54
Width: 898
GlyphClass: 2
Flags: W
AnchorPoint: "Anchor-1" 449 0 basechar 0
AnchorPoint: "Anchor-0" 449 750 basechar 0
LayerCount: 2
Fore
SplineSet
39 500 m 2,0,1
 24 500 24 500 24 515 c 2,2,-1
 24 565 l 2,3,4
 24 580 24 580 39 580 c 2,5,-1
 118 580 l 1,6,-1
 118 595 l 2,7,8
 118 635 118 635 103.5 662.5 c 128,-1,9
 89 690 89 690 51 690 c 2,10,-1
 45 690 l 2,11,12
 30 690 30 690 30 705 c 2,13,-1
 30 735 l 2,14,15
 30 750 30 750 45 750 c 2,16,-1
 352 750 l 2,17,18
 367 750 367 750 367 735 c 2,19,-1
 367 705 l 2,20,21
 367 690 367 690 352 690 c 2,22,-1
 346 690 l 2,23,24
 308 690 308 690 293 662.5 c 128,-1,25
 278 635 278 635 278 595 c 2,26,-1
 278 580 l 1,27,-1
 620 580 l 1,28,-1
 620 595 l 2,29,30
 620 635 620 635 605 662.5 c 128,-1,31
 590 690 590 690 552 690 c 2,32,-1
 546 690 l 2,33,34
 531 690 531 690 531 705 c 2,35,-1
 531 735 l 2,36,37
 531 750 531 750 546 750 c 2,38,-1
 853 750 l 2,39,40
 868 750 868 750 868 735 c 2,41,-1
 868 705 l 2,42,43
 868 690 868 690 853 690 c 2,44,-1
 847 690 l 2,45,46
 809 690 809 690 794.5 662.5 c 128,-1,47
 780 635 780 635 780 595 c 2,48,-1
 780 580 l 1,49,-1
 859 580 l 2,50,51
 874 580 874 580 874 565 c 2,52,-1
 874 515 l 2,53,54
 874 500 874 500 859 500 c 2,55,-1
 780 500 l 1,56,-1
 780 155 l 2,57,58
 780 115 780 115 794.5 87.5 c 128,-1,59
 809 60 809 60 847 60 c 2,60,-1
 853 60 l 2,61,62
 868 60 868 60 868 45 c 2,63,-1
 868 15 l 2,64,65
 868 0 868 0 853 0 c 2,66,-1
 546 0 l 2,67,68
 531 0 531 0 531 15 c 2,69,-1
 531 45 l 2,70,71
 531 60 531 60 546 60 c 2,72,-1
 552 60 l 2,73,74
 590 60 590 60 605 87.5 c 128,-1,75
 620 115 620 115 620 155 c 2,76,-1
 620 345 l 1,77,-1
 278 345 l 1,78,-1
 278 155 l 2,79,80
 278 115 278 115 293 87.5 c 128,-1,81
 308 60 308 60 346 60 c 2,82,-1
 352 60 l 2,83,84
 367 60 367 60 367 45 c 2,85,-1
 367 15 l 2,86,87
 367 0 367 0 352 0 c 2,88,-1
 45 0 l 2,89,90
 30 0 30 0 30 15 c 2,91,-1
 30 45 l 2,92,93
 30 60 30 60 45 60 c 2,94,-1
 51 60 l 2,95,96
 89 60 89 60 103.5 87.5 c 128,-1,97
 118 115 118 115 118 155 c 2,98,-1
 118 500 l 1,99,-1
 39 500 l 2,0,1
278 424 m 1,100,-1
 620 424 l 1,101,-1
 620 500 l 1,102,-1
 278 500 l 1,103,-1
 278 424 l 1,100,-1
EndSplineSet
Position2: "'cpsp' Capital Spacing in Latin lookup 0 subtable" dx=5 dy=0 dh=10 dv=0
EndChar

StartChar: I
Encoding: 73 73 58
Width: 407
GlyphClass: 2
Flags: W
AnchorPoint: "Anchor-2" 357 0 basechar 0
AnchorPoint: "Anchor-1" 204 0 basechar 0
AnchorPoint: "Anchor-0" 204 750 basechar 0
LayerCount: 2
Fore
SplineSet
284 155 m 2,0,1
 284 115 284 115 299 87.5 c 128,-1,2
 314 60 314 60 351 60 c 2,3,-1
 357 60 l 2,4,5
 372 60 372 60 372 45 c 2,6,-1
 372 15 l 2,7,8
 372 0 372 0 357 0 c 2,9,-1
 50 0 l 2,10,11
 35 0 35 0 35 15 c 2,12,-1
 35 45 l 2,13,14
 35 60 35 60 50 60 c 2,15,-1
 57 60 l 2,16,17
 95 60 95 60 109.5 87.5 c 128,-1,18
 124 115 124 115 124 155 c 2,19,-1
 124 595 l 2,20,21
 124 635 124 635 109.5 662.5 c 128,-1,22
 95 690 95 690 57 690 c 2,23,-1
 50 690 l 2,24,25
 35 690 35 690 35 705 c 2,26,-1
 35 735 l 2,27,28
 35 750 35 750 50 750 c 2,29,-1
 357 750 l 2,30,31
 372 750 372 750 372 735 c 2,32,-1
 372 705 l 2,33,34
 372 690 372 690 357 690 c 2,35,-1
 351 690 l 2,36,37
 314 690 314 690 299 662.5 c 128,-1,38
 284 635 284 635 284 595 c 2,39,-1
 284 155 l 2,0,1
EndSplineSet
Position2: "'cpsp' Capital Spacing in Latin lookup 0 subtable" dx=5 dy=0 dh=10 dv=0
EndChar

StartChar: J
Encoding: 74 74 71
Width: 525
GlyphClass: 2
Flags: W
AnchorPoint: "Anchor-0" 331 750 basechar 0
LayerCount: 2
Fore
SplineSet
485 750 m 2,0,1
 500 750 500 750 500 735 c 2,2,-1
 500 705 l 2,3,4
 500 690 500 690 485 690 c 2,5,-1
 479 690 l 2,6,7
 441 690 441 690 426 662 c 128,-1,8
 411 634 411 634 411 595 c 2,9,-1
 411 218 l 2,10,11
 411 175 411 175 400.5 134 c 128,-1,12
 390 93 390 93 365.5 59.5 c 128,-1,13
 341 26 341 26 298.5 6.5 c 128,-1,14
 256 -13 256 -13 191 -13 c 0,15,16
 139 -13 139 -13 103.5 3.5 c 128,-1,17
 68 20 68 20 46.5 44 c 128,-1,18
 25 68 25 68 15 90 c 128,-1,19
 5 112 5 112 5 123 c 0,20,21
 5 138 5 138 21 147 c 2,22,-1
 114 197 l 2,23,24
 123 202 123 202 128 202 c 0,25,26
 138 202 138 202 138 189 c 0,27,28
 138 181 138 181 136.5 172 c 128,-1,29
 135 163 135 163 135 146 c 0,30,31
 135 128 135 128 139 106.5 c 128,-1,32
 143 85 143 85 155 69.5 c 128,-1,33
 167 54 167 54 191 54 c 0,34,35
 221 54 221 54 236.5 75.5 c 128,-1,36
 252 97 252 97 252 128 c 2,37,-1
 252 595 l 2,38,39
 252 635 252 635 237 662.5 c 128,-1,40
 222 690 222 690 184 690 c 2,41,-1
 177 690 l 2,42,43
 162 690 162 690 162 705 c 2,44,-1
 162 735 l 2,45,46
 162 750 162 750 177 750 c 2,47,-1
 485 750 l 2,0,1
EndSplineSet
Substitution2: "Single Substitution lookup 10 subtable" uni004A0301
Substitution2: "'aalt' Access All Alternates in Latin lookup 0 subtable" uni004A0301
Position2: "'cpsp' Capital Spacing in Latin lookup 0 subtable" dx=5 dy=0 dh=10 dv=0
EndChar

StartChar: K
Encoding: 75 75 74
Width: 798
GlyphClass: 2
Flags: W
AnchorPoint: "Anchor-1" 407 0 basechar 0
LayerCount: 2
Fore
SplineSet
775 60 m 2,0,1
 790 60 790 60 790 45 c 2,2,-1
 790 15 l 2,3,4
 790 0 790 0 775 0 c 2,5,-1
 468 0 l 2,6,7
 453 0 453 0 453 15 c 2,8,-1
 453 45 l 2,9,10
 453 60 453 60 468 60 c 2,11,-1
 474 60 l 2,12,13
 498 60 498 60 513 73 c 128,-1,14
 528 86 528 86 528 107 c 0,15,16
 528 130 528 130 510 155 c 2,17,-1
 364 361 l 1,18,-1
 279 269 l 1,19,-1
 279 155 l 2,20,21
 279 60 279 60 346 60 c 2,22,-1
 352 60 l 2,23,24
 367 60 367 60 367 45 c 2,25,-1
 367 15 l 2,26,27
 367 0 367 0 352 0 c 2,28,-1
 45 0 l 2,29,30
 30 0 30 0 30 15 c 2,31,-1
 30 45 l 2,32,33
 30 60 30 60 45 60 c 2,34,-1
 52 60 l 2,35,36
 119 60 119 60 119 155 c 2,37,-1
 119 595 l 2,38,39
 119 690 119 690 53 690 c 2,40,-1
 45 690 l 2,41,42
 30 690 30 690 30 705 c 2,43,-1
 30 735 l 2,44,45
 30 750 30 750 45 750 c 2,46,-1
 353 750 l 2,47,48
 368 750 368 750 368 735 c 2,49,-1
 368 705 l 2,50,51
 368 690 368 690 353 690 c 2,52,-1
 346 690 l 2,53,54
 279 690 279 690 279 594 c 2,55,-1
 279 397 l 1,56,-1
 506 648 l 2,57,58
 512 654 512 654 514 660.5 c 128,-1,59
 516 667 516 667 516 672 c 0,60,61
 516 690 516 690 496 690 c 2,62,-1
 475 690 l 2,63,64
 462 690 462 690 462 705 c 2,65,-1
 462 735 l 2,66,67
 462 750 462 750 477 750 c 2,68,-1
 730 750 l 2,69,70
 745 750 745 750 745 735 c 2,71,-1
 745 705 l 2,72,73
 745 690 745 690 732 690 c 2,74,-1
 720 690 l 2,75,76
 690 690 690 690 668 677 c 128,-1,77
 646 664 646 664 609 624 c 2,78,-1
 462 466 l 1,79,-1
 670 155 l 2,80,81
 693 120 693 120 707 100.5 c 128,-1,82
 721 81 721 81 730 72.5 c 128,-1,83
 739 64 739 64 747.5 62 c 128,-1,84
 756 60 756 60 769 60 c 2,85,-1
 775 60 l 2,0,1
EndSplineSet
Position2: "'cpsp' Capital Spacing in Latin lookup 0 subtable" dx=5 dy=0 dh=10 dv=0
EndChar

StartChar: L
Encoding: 76 76 76
Width: 699
GlyphClass: 2
Flags: W
AnchorPoint: "Anchor-1" 359 0 basechar 0
AnchorPoint: "Anchor-0" 198 750 basechar 0
LayerCount: 2
Fore
SplineSet
680 214 m 2,0,1
 689 210 689 210 689 202 c 0,2,3
 689 201 689 201 688.5 199.5 c 128,-1,4
 688 198 688 198 686 193 c 2,5,-1
 592 -5 l 2,6,7
 588 -14 588 -14 580 -14 c 0,8,9
 578 -14 578 -14 575 -12.5 c 128,-1,10
 572 -11 572 -11 566 -5 c 0,11,12
 561 0 561 0 546 0 c 2,13,-1
 45 0 l 2,14,15
 30 0 30 0 30 15 c 2,16,-1
 30 45 l 2,17,18
 30 60 30 60 45 60 c 0,19,20
 119 60 119 60 119 155 c 2,21,-1
 119 594 l 2,22,23
 119 689 119 689 45 689 c 0,24,25
 30 689 30 689 30 704 c 2,26,-1
 30 734 l 2,27,28
 30 750 30 750 45 750 c 2,29,-1
 348 750 l 2,30,31
 367 750 367 750 367 734 c 2,32,-1
 367 704 l 2,33,34
 367 689 367 689 349 689 c 2,35,-1
 278 689 l 1,36,-1
 278 166 l 2,37,38
 278 71 278 71 347 71 c 2,39,-1
 386 71 l 2,40,41
 459 71 459 71 520 102.5 c 128,-1,42
 581 134 581 134 624 221 c 2,43,-1
 627 227 l 2,44,45
 632 236 632 236 639 236 c 0,46,47
 644 236 644 236 648 233 c 2,48,-1
 680 214 l 2,0,1
EndSplineSet
Position2: "'cpsp' Capital Spacing in Latin lookup 0 subtable" dx=5 dy=0 dh=10 dv=0
EndChar

StartChar: Lslash
Encoding: 321 321 83
Width: 709
GlyphClass: 2
Flags: W
AnchorPoint: "Anchor-1" 359 0 basechar 0
AnchorPoint: "Anchor-0" 198 750 basechar 0
LayerCount: 2
Fore
SplineSet
396 539 m 2,0,1
 402 541 402 541 405 541 c 0,2,3
 414 541 414 541 414 527 c 2,4,-1
 414 447 l 2,5,6
 414 434 414 434 403 430 c 2,7,-1
 278 383 l 1,8,-1
 278 166 l 2,9,10
 278 71 278 71 347 71 c 2,11,-1
 386 71 l 2,12,13
 459 71 459 71 520 102.5 c 128,-1,14
 581 134 581 134 624 221 c 2,15,-1
 627 227 l 2,16,17
 632 236 632 236 639 236 c 0,18,19
 644 236 644 236 648 233 c 2,20,-1
 680 214 l 2,21,22
 689 210 689 210 689 202 c 0,23,24
 689 201 689 201 688.5 199.5 c 128,-1,25
 688 198 688 198 686 193 c 2,26,-1
 592 -5 l 2,27,28
 588 -14 588 -14 580 -14 c 0,29,30
 578 -14 578 -14 575 -12.5 c 128,-1,31
 572 -11 572 -11 566 -5 c 0,32,33
 561 0 561 0 546 0 c 2,34,-1
 45 0 l 2,35,36
 30 0 30 0 30 15 c 2,37,-1
 30 45 l 2,38,39
 30 60 30 60 45 60 c 0,40,41
 119 60 119 60 119 155 c 2,42,-1
 119 323 l 1,43,-1
 30 289 l 2,44,45
 24 287 24 287 21 287 c 0,46,47
 12 287 12 287 12 301 c 2,48,-1
 12 381 l 2,49,50
 12 394 12 394 23 398 c 2,51,-1
 119 434 l 1,52,-1
 119 594 l 2,53,54
 119 689 119 689 45 689 c 0,55,56
 30 689 30 689 30 704 c 2,57,-1
 30 734 l 2,58,59
 30 750 30 750 45 750 c 2,60,-1
 348 750 l 2,61,62
 367 750 367 750 367 734 c 2,63,-1
 367 704 l 2,64,65
 367 689 367 689 349 689 c 2,66,-1
 278 689 l 1,67,-1
 278 494 l 1,68,-1
 396 539 l 2,0,1
EndSplineSet
Position2: "'cpsp' Capital Spacing in Latin lookup 0 subtable" dx=5 dy=0 dh=10 dv=0
EndChar

StartChar: M
Encoding: 77 77 84
Width: 1036
GlyphClass: 2
Flags: W
AnchorPoint: "Anchor-1" 518 0 basechar 0
LayerCount: 2
Fore
SplineSet
917 155 m 2,0,1
 917 115 917 115 935.5 87.5 c 128,-1,2
 954 60 954 60 991 60 c 0,3,4
 1006 60 1006 60 1006 45 c 2,5,-1
 1006 15 l 2,6,7
 1006 0 1006 0 991 0 c 2,8,-1
 744 0 l 2,9,10
 729 0 729 0 729 15 c 2,11,-1
 729 45 l 2,12,13
 729 60 729 60 744 60 c 0,14,15
 781 60 781 60 799 87.5 c 128,-1,16
 817 115 817 115 817 155 c 2,17,-1
 817 534 l 1,18,-1
 581 56 l 2,19,20
 576 45 576 45 564 45 c 2,21,-1
 472 45 l 2,22,23
 460 45 460 45 454 56 c 2,24,-1
 219 534 l 1,25,-1
 219 155 l 2,26,27
 219 115 219 115 237 87.5 c 128,-1,28
 255 60 255 60 292 60 c 0,29,30
 307 60 307 60 307 45 c 2,31,-1
 307 15 l 2,32,33
 307 0 307 0 292 0 c 2,34,-1
 45 0 l 2,35,36
 30 0 30 0 30 15 c 2,37,-1
 30 45 l 2,38,39
 30 60 30 60 45 60 c 0,40,41
 82 60 82 60 100.5 87.5 c 128,-1,42
 119 115 119 115 119 155 c 2,43,-1
 119 675 l 1,44,45
 105 683 105 683 89.5 686.5 c 128,-1,46
 74 690 74 690 57 690 c 0,47,48
 42 690 42 690 42 705 c 2,49,-1
 42 735 l 2,50,51
 42 750 42 750 57 750 c 2,52,-1
 245 750 l 2,53,54
 259 750 259 750 263 741 c 2,55,-1
 518 225 l 1,56,-1
 773 741 l 2,57,58
 777 750 777 750 791 750 c 2,59,-1
 979 750 l 2,60,61
 994 750 994 750 994 735 c 2,62,-1
 994 705 l 2,63,64
 994 690 994 690 979 690 c 0,65,66
 963 690 963 690 947 686.5 c 128,-1,67
 931 683 931 683 917 675 c 1,68,-1
 917 155 l 2,0,1
EndSplineSet
Position2: "'cpsp' Capital Spacing in Latin lookup 0 subtable" dx=5 dy=0 dh=10 dv=0
EndChar

StartChar: N
Encoding: 78 78 86
Width: 891
GlyphClass: 2
Flags: W
AnchorPoint: "Anchor-1" 460 0 basechar 0
AnchorPoint: "Anchor-0" 454 750 basechar 0
LayerCount: 2
Fore
SplineSet
866 750 m 2,0,1
 881 750 881 750 881 735 c 2,2,-1
 881 705 l 2,3,4
 881 690 881 690 866 690 c 0,5,6
 829 690 829 690 811 663 c 128,-1,7
 793 636 793 636 793 595 c 2,8,-1
 793 15 l 2,9,10
 793 0 793 0 778 0 c 2,11,-1
 709 0 l 2,12,13
 699 0 699 0 691 9 c 2,14,-1
 218 553 l 1,15,-1
 218 155 l 2,16,17
 218 115 218 115 236.5 87.5 c 128,-1,18
 255 60 255 60 292 60 c 0,19,20
 307 60 307 60 307 45 c 2,21,-1
 307 15 l 2,22,23
 307 0 307 0 292 0 c 2,24,-1
 45 0 l 2,25,26
 30 0 30 0 30 15 c 2,27,-1
 30 45 l 2,28,29
 30 60 30 60 45 60 c 0,30,31
 82 60 82 60 100 87.5 c 128,-1,32
 118 115 118 115 118 155 c 2,33,-1
 118 665 l 1,34,35
 103 678 103 678 88.5 684 c 128,-1,36
 74 690 74 690 55 690 c 0,37,38
 40 690 40 690 40 705 c 2,39,-1
 40 735 l 2,40,41
 40 750 40 750 55 750 c 2,42,-1
 228 750 l 2,43,44
 239 750 239 750 246 741 c 2,45,-1
 693 231 l 1,46,-1
 693 595 l 2,47,48
 693 636 693 636 674.5 663 c 128,-1,49
 656 690 656 690 619 690 c 0,50,51
 604 690 604 690 604 705 c 2,52,-1
 604 735 l 2,53,54
 604 750 604 750 619 750 c 2,55,-1
 866 750 l 2,0,1
EndSplineSet
Position2: "'cpsp' Capital Spacing in Latin lookup 0 subtable" dx=5 dy=0 dh=10 dv=0
EndChar

StartChar: uni019D
Encoding: 413 413 92
Width: 891
GlyphClass: 2
Flags: W
AnchorPoint: "Anchor-1" 460 0 basechar 0
AnchorPoint: "Anchor-0" 454 750 basechar 0
LayerCount: 2
Fore
SplineSet
218 0 m 2,0,1
 218 -43 218 -43 213.5 -81.5 c 128,-1,2
 209 -120 209 -120 192 -150 c 128,-1,3
 175 -180 175 -180 137.5 -197 c 128,-1,4
 100 -214 100 -214 34 -214 c 0,5,6
 27 -214 27 -214 20.5 -214 c 128,-1,7
 14 -214 14 -214 8 -213 c 0,8,9
 -1 -211 -1 -211 -1 -205 c 0,10,11
 -1 -203 -1 -203 0 -200 c 2,12,-1
 11 -162 l 2,13,14
 13 -155 13 -155 18 -155 c 256,15,16
 23 -155 23 -155 30 -156.5 c 128,-1,17
 37 -158 37 -158 42 -158 c 0,18,19
 77 -158 77 -158 93 -135.5 c 128,-1,20
 109 -113 109 -113 113.5 -77 c 128,-1,21
 118 -41 118 -41 118 0 c 2,22,-1
 118 665 l 1,23,24
 103 678 103 678 88.5 684 c 128,-1,25
 74 690 74 690 55 690 c 0,26,27
 40 690 40 690 40 705 c 2,28,-1
 40 735 l 2,29,30
 40 750 40 750 55 750 c 2,31,-1
 228 750 l 2,32,33
 239 750 239 750 246 741 c 2,34,-1
 693 231 l 1,35,-1
 693 595 l 2,36,37
 693 636 693 636 674.5 663 c 128,-1,38
 656 690 656 690 619 690 c 0,39,40
 604 690 604 690 604 705 c 2,41,-1
 604 735 l 2,42,43
 604 750 604 750 619 750 c 2,44,-1
 866 750 l 2,45,46
 881 750 881 750 881 735 c 2,47,-1
 881 705 l 2,48,49
 881 690 881 690 866 690 c 0,50,51
 829 690 829 690 811 663 c 128,-1,52
 793 636 793 636 793 595 c 2,53,-1
 793 15 l 2,54,55
 793 0 793 0 778 0 c 2,56,-1
 709 0 l 2,57,58
 699 0 699 0 691 9 c 2,59,-1
 218 553 l 1,60,-1
 218 0 l 2,0,1
EndSplineSet
Position2: "'cpsp' Capital Spacing in Latin lookup 0 subtable" dx=5 dy=0 dh=10 dv=0
EndChar

StartChar: Eng
Encoding: 330 330 95
Width: 888
GlyphClass: 2
Flags: W
AnchorPoint: "Anchor-1" 460 0 basechar 0
AnchorPoint: "Anchor-0" 454 750 basechar 0
LayerCount: 2
Fore
SplineSet
866 750 m 2,0,1
 881 750 881 750 881 735 c 2,2,-1
 881 705 l 2,3,4
 881 690 881 690 866 690 c 0,5,6
 829 690 829 690 811 663 c 128,-1,7
 793 636 793 636 793 595 c 2,8,-1
 793 15 l 1,9,-1
 793 15 l 1,10,11
 793 -28 793 -28 784 -68.5 c 128,-1,12
 775 -109 775 -109 752.5 -142 c 128,-1,13
 730 -175 730 -175 688.5 -194.5 c 128,-1,14
 647 -214 647 -214 582 -214 c 0,15,16
 536 -214 536 -214 504.5 -201.5 c 128,-1,17
 473 -189 473 -189 454.5 -172 c 128,-1,18
 436 -155 436 -155 428 -139 c 128,-1,19
 420 -123 420 -123 420 -116 c 0,20,21
 420 -103 420 -103 431 -95 c 2,22,-1
 502 -44 l 2,23,24
 506 -41 506 -41 510 -41 c 0,25,26
 520 -41 520 -41 520 -56 c 0,27,28
 520 -80 520 -80 526 -103.5 c 128,-1,29
 532 -127 532 -127 547 -142.5 c 128,-1,30
 562 -158 562 -158 590 -158 c 0,31,32
 620 -158 620 -158 641 -137 c 128,-1,33
 662 -116 662 -116 672.5 -81 c 128,-1,34
 683 -46 683 -46 683 -5 c 2,35,-1
 683 18 l 1,36,-1
 218 553 l 1,37,-1
 218 155 l 2,38,39
 218 115 218 115 236.5 87.5 c 128,-1,40
 255 60 255 60 292 60 c 0,41,42
 307 60 307 60 307 45 c 2,43,-1
 307 15 l 2,44,45
 307 0 307 0 292 0 c 2,46,-1
 45 0 l 2,47,48
 30 0 30 0 30 15 c 2,49,-1
 30 45 l 2,50,51
 30 60 30 60 45 60 c 0,52,53
 82 60 82 60 100 87.5 c 128,-1,54
 118 115 118 115 118 155 c 2,55,-1
 118 665 l 1,56,57
 103 678 103 678 88.5 684 c 128,-1,58
 74 690 74 690 55 690 c 0,59,60
 40 690 40 690 40 705 c 2,61,-1
 40 735 l 2,62,63
 40 750 40 750 55 750 c 2,64,-1
 228 750 l 2,65,66
 239 750 239 750 246 741 c 2,67,-1
 693 231 l 1,68,-1
 693 595 l 2,69,70
 693 636 693 636 674.5 663 c 128,-1,71
 656 690 656 690 619 690 c 0,72,73
 604 690 604 690 604 705 c 2,74,-1
 604 735 l 2,75,76
 604 750 604 750 619 750 c 2,77,-1
 866 750 l 2,0,1
EndSplineSet
Position2: "'cpsp' Capital Spacing in Latin lookup 0 subtable" dx=5 dy=0 dh=10 dv=0
EndChar

StartChar: O
Encoding: 79 79 96
Width: 822
GlyphClass: 2
Flags: W
AnchorPoint: "Anchor-1" 426 0 basechar 0
AnchorPoint: "Anchor-0" 412 750 basechar 0
LayerCount: 2
Fore
SplineSet
405 762 m 256,0,1
 484 762 484 762 553.5 731 c 128,-1,2
 623 700 623 700 675.5 645.5 c 128,-1,3
 728 591 728 591 757.5 520 c 128,-1,4
 787 449 787 449 787 369 c 256,5,6
 787 289 787 289 758 219.5 c 128,-1,7
 729 150 729 150 677.5 98 c 128,-1,8
 626 46 626 46 559 16.5 c 128,-1,9
 492 -13 492 -13 416 -13 c 0,10,11
 337 -13 337 -13 267.5 18 c 128,-1,12
 198 49 198 49 146 103.5 c 128,-1,13
 94 158 94 158 64.5 229 c 128,-1,14
 35 300 35 300 35 379 c 0,15,16
 35 457 35 457 63 526 c 128,-1,17
 91 595 91 595 141.5 648.5 c 128,-1,18
 192 702 192 702 259 732 c 128,-1,19
 326 762 326 762 405 762 c 256,0,1
394 674 m 0,20,21
 294 674 294 674 239 607.5 c 128,-1,22
 184 541 184 541 184 432 c 0,23,24
 184 389 184 389 193 340 c 128,-1,25
 202 291 202 291 220.5 244.5 c 128,-1,26
 239 198 239 198 268 160 c 128,-1,27
 297 122 297 122 336 99 c 128,-1,28
 375 76 375 76 426 76 c 0,29,30
 494 76 494 76 541.5 106.5 c 128,-1,31
 589 137 589 137 613.5 191.5 c 128,-1,32
 638 246 638 246 638 317 c 0,33,34
 638 356 638 356 629.5 404 c 128,-1,35
 621 452 621 452 602.5 499.5 c 128,-1,36
 584 547 584 547 555.5 586.5 c 128,-1,37
 527 626 527 626 487 650 c 128,-1,38
 447 674 447 674 394 674 c 0,20,21
EndSplineSet
Substitution2: "Single Substitution lookup 21 subtable" ordmasculine
Substitution2: "'aalt' Access All Alternates in Latin lookup 0 subtable" ordmasculine
Position2: "'cpsp' Capital Spacing in Latin lookup 0 subtable" dx=5 dy=0 dh=10 dv=0
EndChar

StartChar: Oslash
Encoding: 216 216 108
Width: 822
GlyphClass: 2
Flags: W
AnchorPoint: "Anchor-1" 426 0 basechar 0
AnchorPoint: "Anchor-0" 412 750 basechar 0
LayerCount: 2
Fore
SplineSet
405 762 m 0,0,1
 443 762 443 762 480 754 c 1,2,-1
 510 838 l 2,3,4
 515 850 515 850 527 850 c 2,5,-1
 609 850 l 2,6,7
 628 850 628 850 621 833 c 2,8,-1
 580 718 l 1,9,10
 641 685 641 685 688 631.5 c 128,-1,11
 735 578 735 578 761 511 c 128,-1,12
 787 444 787 444 787 369 c 0,13,14
 787 289 787 289 758 219.5 c 128,-1,15
 729 150 729 150 677.5 98 c 128,-1,16
 626 46 626 46 559 16.5 c 128,-1,17
 492 -13 492 -13 416 -13 c 0,18,19
 367 -13 367 -13 321 -1 c 1,20,-1
 301 -56 l 2,21,22
 297 -68 297 -68 284 -68 c 2,23,-1
 202 -68 l 2,24,25
 184 -68 184 -68 190 -51 c 2,26,-1
 223 41 l 1,27,28
 167 76 167 76 124.5 128 c 128,-1,29
 82 180 82 180 58.5 244 c 128,-1,30
 35 308 35 308 35 379 c 0,31,32
 35 457 35 457 63 526 c 128,-1,33
 91 595 91 595 141.5 648.5 c 128,-1,34
 192 702 192 702 259 732 c 128,-1,35
 326 762 326 762 405 762 c 0,0,1
394 674 m 0,36,37
 294 674 294 674 239 607.5 c 128,-1,38
 184 541 184 541 184 432 c 0,39,40
 184 389 184 389 193 340.5 c 128,-1,41
 202 292 202 292 220 245.5 c 128,-1,42
 238 199 238 199 267 162 c 1,43,-1
 448 666 l 1,44,45
 422 674 422 674 394 674 c 0,36,37
638 317 m 0,46,47
 638 360 638 360 627.5 412.5 c 128,-1,48
 617 465 617 465 595.5 516 c 128,-1,49
 574 567 574 567 539 606 c 1,50,-1
 354 90 l 1,51,52
 388 76 388 76 426 76 c 0,53,54
 494 76 494 76 541.5 106.5 c 128,-1,55
 589 137 589 137 613.5 191.5 c 128,-1,56
 638 246 638 246 638 317 c 0,46,47
EndSplineSet
Position2: "'cpsp' Capital Spacing in Latin lookup 0 subtable" dx=5 dy=0 dh=10 dv=0
EndChar

StartChar: OE
Encoding: 338 338 113
Width: 1240
GlyphClass: 1
Flags: W
LayerCount: 2
Fore
SplineSet
405 762 m 0,0,1
 453 762 453 762 498 750 c 1,2,-1
 1031 750 l 2,3,4
 1044 750 1044 750 1050 755 c 2,5,-1
 1056 760 l 2,6,7
 1059 763 1059 763 1064 763 c 0,8,9
 1072 763 1072 763 1077 755 c 2,10,-1
 1156 619 l 2,11,12
 1159 615 1159 615 1159 610 c 0,13,14
 1159 603 1159 603 1151 598 c 2,15,-1
 1111 576 l 2,16,17
 1104 572 1104 572 1100 572 c 0,18,19
 1093 572 1093 572 1088 581 c 2,20,-1
 1085 586 l 2,21,22
 1054 638 1054 638 1018.5 658.5 c 128,-1,23
 983 679 983 679 925 679 c 2,24,-1
 763 679 l 1,25,-1
 763 444 l 1,26,-1
 851 444 l 2,27,28
 896 444 896 444 921 461 c 128,-1,29
 946 478 946 478 946 511 c 2,30,-1
 946 518 l 2,31,32
 946 533 946 533 961 533 c 2,33,-1
 991 533 l 2,34,35
 1006 533 1006 533 1006 518 c 2,36,-1
 1006 291 l 2,37,38
 1006 276 1006 276 991 276 c 2,39,-1
 961 276 l 2,40,41
 946 276 946 276 946 291 c 2,42,-1
 946 297 l 2,43,44
 946 331 946 331 921.5 347.5 c 128,-1,45
 897 364 897 364 851 364 c 2,46,-1
 763 364 l 1,47,-1
 763 166 l 2,48,49
 763 71 763 71 832 71 c 2,50,-1
 897 71 l 2,51,52
 971 71 971 71 1017.5 85 c 128,-1,53
 1064 99 1064 99 1095.5 132 c 128,-1,54
 1127 165 1127 165 1155 221 c 2,55,-1
 1158 227 l 2,56,57
 1163 235 1163 235 1171 235 c 0,58,59
 1176 235 1176 235 1179 233 c 2,60,-1
 1211 214 l 2,61,62
 1220 209 1220 209 1220 203 c 0,63,64
 1220 199 1220 199 1217 193 c 2,65,-1
 1123 -5 l 2,66,67
 1119 -14 1119 -14 1111 -14 c 0,68,69
 1106 -14 1106 -14 1102 -10 c 2,70,-1
 1097 -5 l 2,71,72
 1092 0 1092 0 1077 0 c 2,73,-1
 512 0 l 1,74,75
 489 -6 489 -6 465 -9.5 c 128,-1,76
 441 -13 441 -13 416 -13 c 0,77,78
 337 -13 337 -13 267.5 18 c 128,-1,79
 198 49 198 49 146 103.5 c 128,-1,80
 94 158 94 158 64.5 229 c 128,-1,81
 35 300 35 300 35 379 c 0,82,83
 35 457 35 457 63 526 c 128,-1,84
 91 595 91 595 141.5 648.5 c 128,-1,85
 192 702 192 702 259 732 c 128,-1,86
 326 762 326 762 405 762 c 0,0,1
184 432 m 0,87,88
 184 389 184 389 193 340 c 128,-1,89
 202 291 202 291 220.5 244.5 c 128,-1,90
 239 198 239 198 268 160 c 128,-1,91
 297 122 297 122 336 99 c 128,-1,92
 375 76 375 76 426 76 c 0,93,94
 494 76 494 76 541.5 106.5 c 128,-1,95
 589 137 589 137 613.5 191.5 c 128,-1,96
 638 246 638 246 638 317 c 0,97,98
 638 356 638 356 629.5 404 c 128,-1,99
 621 452 621 452 602.5 499.5 c 128,-1,100
 584 547 584 547 555.5 586.5 c 128,-1,101
 527 626 527 626 487 650 c 128,-1,102
 447 674 447 674 394 674 c 0,103,104
 294 674 294 674 239 607.5 c 128,-1,105
 184 541 184 541 184 432 c 0,87,88
EndSplineSet
Position2: "'cpsp' Capital Spacing in Latin lookup 0 subtable" dx=5 dy=0 dh=10 dv=0
EndChar

StartChar: P
Encoding: 80 80 114
Width: 700
GlyphClass: 1
Flags: W
LayerCount: 2
Fore
SplineSet
279 155 m 2,0,1
 279 115 279 115 294 87.5 c 128,-1,2
 309 60 309 60 346 60 c 2,3,-1
 352 60 l 2,4,5
 367 60 367 60 367 45 c 2,6,-1
 367 15 l 2,7,8
 367 0 367 0 352 0 c 2,9,-1
 45 0 l 2,10,11
 30 0 30 0 30 15 c 2,12,-1
 30 45 l 2,13,14
 30 60 30 60 45 60 c 2,15,-1
 52 60 l 2,16,17
 90 60 90 60 104.5 87.5 c 128,-1,18
 119 115 119 115 119 155 c 2,19,-1
 119 595 l 2,20,21
 119 636 119 636 103.5 663 c 128,-1,22
 88 690 88 690 47 690 c 2,23,-1
 46 690 l 2,24,25
 31 690 31 690 31 705 c 2,26,-1
 31 735 l 2,27,28
 31 750 31 750 46 750 c 2,29,-1
 413 750 l 2,30,31
 494 750 494 750 554 718.5 c 128,-1,32
 614 687 614 687 647 636.5 c 128,-1,33
 680 586 680 586 680 529 c 0,34,35
 680 465 680 465 649 413.5 c 128,-1,36
 618 362 618 362 547 332 c 128,-1,37
 476 302 476 302 354 302 c 2,38,-1
 279 302 l 1,39,-1
 279 155 l 2,0,1
337 373 m 2,40,41
 437 373 437 373 483.5 409.5 c 128,-1,42
 530 446 530 446 530 529 c 0,43,44
 530 598 530 598 487 644 c 128,-1,45
 444 690 444 690 369 690 c 2,46,-1
 273 690 l 1,47,-1
 273 373 l 1,48,-1
 337 373 l 2,40,41
EndSplineSet
Position2: "'cpsp' Capital Spacing in Latin lookup 0 subtable" dx=5 dy=0 dh=10 dv=0
EndChar

StartChar: Thorn
Encoding: 222 222 115
Width: 700
GlyphClass: 1
Flags: W
LayerCount: 2
Fore
SplineSet
273 155 m 2,0,1
 273 115 273 115 288 87.5 c 128,-1,2
 303 60 303 60 340 60 c 2,3,-1
 352 60 l 2,4,5
 367 60 367 60 367 45 c 2,6,-1
 367 15 l 2,7,8
 367 0 367 0 352 0 c 2,9,-1
 45 0 l 2,10,11
 30 0 30 0 30 15 c 2,12,-1
 30 45 l 2,13,14
 30 60 30 60 45 60 c 2,15,-1
 52 60 l 2,16,17
 90 60 90 60 104.5 87.5 c 128,-1,18
 119 115 119 115 119 155 c 2,19,-1
 119 595 l 2,20,21
 119 636 119 636 103.5 663 c 128,-1,22
 88 690 88 690 47 690 c 2,23,-1
 46 690 l 2,24,25
 31 690 31 690 31 705 c 2,26,-1
 31 735 l 2,27,28
 31 750 31 750 46 750 c 2,29,-1
 337 750 l 2,30,31
 352 750 352 750 352 735 c 2,32,-1
 352 705 l 2,33,34
 352 690 352 690 337 690 c 2,35,-1
 273 690 l 1,36,-1
 273 633 l 1,37,-1
 413 633 l 2,38,39
 494 633 494 633 554 601.5 c 128,-1,40
 614 570 614 570 647 519.5 c 128,-1,41
 680 469 680 469 680 411 c 0,42,43
 680 348 680 348 649 296.5 c 128,-1,44
 618 245 618 245 547 214.5 c 128,-1,45
 476 184 476 184 354 184 c 2,46,-1
 273 184 l 1,47,-1
 273 155 l 2,0,1
337 255 m 2,48,49
 437 255 437 255 483.5 292 c 128,-1,50
 530 329 530 329 530 411 c 0,51,52
 530 481 530 481 487 526.5 c 128,-1,53
 444 572 444 572 369 572 c 2,54,-1
 273 572 l 1,55,-1
 273 255 l 1,56,-1
 337 255 l 2,48,49
EndSplineSet
Position2: "'cpsp' Capital Spacing in Latin lookup 0 subtable" dx=5 dy=0 dh=10 dv=0
EndChar

StartChar: Q
Encoding: 81 81 116
Width: 822
GlyphClass: 2
Flags: W
AnchorPoint: "Anchor-1" 426 0 basechar 0
AnchorPoint: "Anchor-0" 405 750 basechar 0
LayerCount: 2
Fore
SplineSet
405 762 m 256,0,1
 484 762 484 762 553.5 731 c 128,-1,2
 623 700 623 700 675.5 645.5 c 128,-1,3
 728 591 728 591 757.5 520 c 128,-1,4
 787 449 787 449 787 369 c 0,5,6
 787 281 787 281 752.5 206.5 c 128,-1,7
 718 132 718 132 657 79 c 128,-1,8
 596 26 596 26 517 2 c 0,9,10
 491 -5 491 -5 469.5 -21 c 128,-1,11
 448 -37 448 -37 448 -70 c 0,12,13
 448 -101 448 -101 472 -116.5 c 128,-1,14
 496 -132 496 -132 540 -132 c 0,15,16
 580 -132 580 -132 621 -120 c 128,-1,17
 662 -108 662 -108 704 -93 c 0,18,19
 710 -91 710 -91 712 -91 c 0,20,21
 720 -91 720 -91 724 -100 c 2,22,-1
 746 -143 l 2,23,24
 747 -144 747 -144 748 -147 c 128,-1,25
 749 -150 749 -150 749 -152 c 0,26,27
 749 -160 749 -160 740 -164 c 0,28,29
 689 -189 689 -189 635.5 -208 c 128,-1,30
 582 -227 582 -227 520 -227 c 0,31,32
 442 -227 442 -227 398.5 -206.5 c 128,-1,33
 355 -186 355 -186 337 -155.5 c 128,-1,34
 319 -125 319 -125 319 -94 c 0,35,36
 319 -68 319 -68 329.5 -46.5 c 128,-1,37
 340 -25 340 -25 359 -9 c 1,38,39
 290 2 290 2 231 36.5 c 128,-1,40
 172 71 172 71 128 123.5 c 128,-1,41
 84 176 84 176 59.5 241.5 c 128,-1,42
 35 307 35 307 35 379 c 0,43,44
 35 457 35 457 63 526 c 128,-1,45
 91 595 91 595 141.5 648.5 c 128,-1,46
 192 702 192 702 259 732 c 128,-1,47
 326 762 326 762 405 762 c 256,0,1
184 432 m 0,48,49
 184 389 184 389 193 340 c 128,-1,50
 202 291 202 291 220.5 244.5 c 128,-1,51
 239 198 239 198 268 160 c 128,-1,52
 297 122 297 122 336 99 c 128,-1,53
 375 76 375 76 426 76 c 0,54,55
 494 76 494 76 541.5 106.5 c 128,-1,56
 589 137 589 137 613.5 191.5 c 128,-1,57
 638 246 638 246 638 317 c 0,58,59
 638 356 638 356 629.5 404 c 128,-1,60
 621 452 621 452 602.5 499.5 c 128,-1,61
 584 547 584 547 555.5 586.5 c 128,-1,62
 527 626 527 626 487 650 c 128,-1,63
 447 674 447 674 394 674 c 0,64,65
 294 674 294 674 239 607.5 c 128,-1,66
 184 541 184 541 184 432 c 0,48,49
EndSplineSet
Position2: "'cpsp' Capital Spacing in Latin lookup 0 subtable" dx=5 dy=0 dh=10 dv=0
EndChar

StartChar: R
Encoding: 82 82 117
Width: 798
GlyphClass: 2
Flags: W
AnchorPoint: "Anchor-1" 410 0 basechar 0
AnchorPoint: "Anchor-0" 343 750 basechar 0
LayerCount: 2
Fore
SplineSet
775 60 m 2,0,1
 790 60 790 60 790 45 c 2,2,-1
 790 15 l 2,3,4
 790 0 790 0 775 0 c 2,5,-1
 468 0 l 2,6,7
 453 0 453 0 453 15 c 2,8,-1
 453 45 l 2,9,10
 453 60 453 60 468 60 c 2,11,-1
 474 60 l 2,12,13
 499 60 499 60 511 74.5 c 128,-1,14
 523 89 523 89 523 109 c 0,15,16
 523 132 523 132 510 155 c 2,17,-1
 419 325 l 1,18,19
 389 322 389 322 354 322 c 2,20,-1
 279 322 l 1,21,-1
 279 155 l 2,22,23
 279 115 279 115 294 87.5 c 128,-1,24
 309 60 309 60 346 60 c 2,25,-1
 352 60 l 2,26,27
 367 60 367 60 367 45 c 2,28,-1
 367 15 l 2,29,30
 367 0 367 0 352 0 c 2,31,-1
 45 0 l 2,32,33
 30 0 30 0 30 15 c 2,34,-1
 30 45 l 2,35,36
 30 60 30 60 45 60 c 2,37,-1
 52 60 l 2,38,39
 90 60 90 60 104.5 87.5 c 128,-1,40
 119 115 119 115 119 155 c 2,41,-1
 119 595 l 2,42,43
 119 636 119 636 103.5 663 c 128,-1,44
 88 690 88 690 46 690 c 0,45,46
 31 690 31 690 31 705 c 2,47,-1
 31 735 l 2,48,49
 31 750 31 750 46 750 c 2,50,-1
 413 750 l 2,51,52
 494 750 494 750 554 721 c 128,-1,53
 614 692 614 692 647 644 c 128,-1,54
 680 596 680 596 680 539 c 0,55,56
 680 488 680 488 653 440 c 128,-1,57
 626 392 626 392 561 361 c 1,58,-1
 670 155 l 2,59,60
 690 118 690 118 711.5 89 c 128,-1,61
 733 60 733 60 770 60 c 2,62,-1
 775 60 l 2,0,1
337 393 m 2,63,64
 437 393 437 393 483.5 432 c 128,-1,65
 530 471 530 471 530 539 c 0,66,67
 530 608 530 608 487 649 c 128,-1,68
 444 690 444 690 369 690 c 2,69,-1
 279 690 l 1,70,-1
 279 393 l 1,71,-1
 337 393 l 2,63,64
EndSplineSet
Position2: "'cpsp' Capital Spacing in Latin lookup 0 subtable" dx=5 dy=0 dh=10 dv=0
EndChar

StartChar: S
Encoding: 83 83 123
Width: 723
GlyphClass: 2
Flags: W
AnchorPoint: "Anchor-1" 369 0 basechar 0
AnchorPoint: "Anchor-0" 369 750 basechar 0
LayerCount: 2
Fore
SplineSet
619 523 m 2,0,1
 616 522 616 522 613 520.5 c 128,-1,2
 610 519 610 519 607 519 c 0,3,4
 599 519 599 519 590 531 c 0,5,6
 526 611 526 611 464 646 c 128,-1,7
 402 681 402 681 336 681 c 0,8,9
 296 681 296 681 267.5 660 c 128,-1,10
 239 639 239 639 239 594 c 0,11,12
 239 557 239 557 262 533 c 128,-1,13
 285 509 285 509 321.5 493.5 c 128,-1,14
 358 478 358 478 396 467 c 0,15,16
 453 451 453 451 508.5 431 c 128,-1,17
 564 411 564 411 609 383.5 c 128,-1,18
 654 356 654 356 681 316.5 c 128,-1,19
 708 277 708 277 708 221 c 0,20,21
 708 153 708 153 673.5 100 c 128,-1,22
 639 47 639 47 574 17 c 128,-1,23
 509 -13 509 -13 417 -13 c 0,24,25
 372 -13 372 -13 332.5 -1.5 c 128,-1,26
 293 10 293 10 256 28 c 0,27,28
 248 32 248 32 241 32 c 0,29,30
 232 32 232 32 232 22 c 0,31,32
 232 19 232 19 234 11 c 0,33,34
 237 4 237 4 237 -1 c 0,35,36
 237 -12 237 -12 220 -12 c 2,37,-1
 170 -12 l 2,38,39
 152 -12 152 -12 145 2 c 2,40,-1
 24 229 l 2,41,42
 20 237 20 237 20 241 c 0,43,44
 20 252 20 252 31 258 c 2,45,-1
 75 283 l 2,46,47
 78 285 78 285 81 286 c 128,-1,48
 84 287 84 287 87 287 c 0,49,50
 97 287 97 287 104 275 c 0,51,52
 172 172 172 172 254.5 122 c 128,-1,53
 337 72 337 72 423 72 c 0,54,55
 488 72 488 72 523 101.5 c 128,-1,56
 558 131 558 131 558 176 c 0,57,58
 558 220 558 220 536 245 c 128,-1,59
 514 270 514 270 468 287 c 128,-1,60
 422 304 422 304 350 325 c 0,61,62
 301 339 301 339 253 359 c 128,-1,63
 205 379 205 379 166 407.5 c 128,-1,64
 127 436 127 436 103.5 475.5 c 128,-1,65
 80 515 80 515 80 569 c 0,66,67
 80 635 80 635 113.5 678 c 128,-1,68
 147 721 147 721 204 741.5 c 128,-1,69
 261 762 261 762 333 762 c 0,70,71
 389 762 389 762 428 748 c 128,-1,72
 467 734 467 734 488 722 c 0,73,74
 505 712 505 712 511 712 c 0,75,76
 516 712 516 712 516 718 c 0,77,78
 516 723 516 723 513.5 732 c 128,-1,79
 511 741 511 741 511 751 c 0,80,81
 511 766 511 766 529 766 c 2,82,-1
 565 766 l 2,83,84
 583 766 583 766 590 749 c 2,85,-1
 660 570 l 2,86,87
 662 566 662 566 663 562.5 c 128,-1,88
 664 559 664 559 664 556 c 0,89,90
 664 547 664 547 653 541 c 2,91,-1
 619 523 l 2,0,1
EndSplineSet
Position2: "'cpsp' Capital Spacing in Latin lookup 0 subtable" dx=5 dy=0 dh=10 dv=0
EndChar

StartChar: uni1E9E
Encoding: 7838 7838 134
Width: 742
GlyphClass: 1
Flags: W
LayerCount: 2
Fore
SplineSet
450 430 m 1,0,1
 514 430 514 430 571.5 404 c 128,-1,2
 629 378 629 378 665.5 328.5 c 128,-1,3
 702 279 702 279 702 207 c 0,4,5
 702 147 702 147 681 105 c 128,-1,6
 660 63 660 63 624.5 37 c 128,-1,7
 589 11 589 11 545.5 -1 c 128,-1,8
 502 -13 502 -13 457 -13 c 0,9,10
 405 -13 405 -13 365 5 c 128,-1,11
 325 23 325 23 297 51 c 0,12,13
 291 57 291 57 291 62 c 0,14,15
 291 65 291 65 307 94 c 0,16,17
 311 100 311 100 316 100 c 0,18,19
 322 100 322 100 329 95 c 0,20,21
 369 68 369 68 419 68 c 0,22,23
 456 68 456 68 487 83 c 128,-1,24
 518 98 518 98 537 129 c 128,-1,25
 556 160 556 160 556 207 c 0,26,27
 556 288 556 288 508 324 c 128,-1,28
 460 360 460 360 376 360 c 0,29,30
 371 360 371 360 366.5 363.5 c 128,-1,31
 362 367 362 367 357 372 c 0,32,33
 353 377 353 377 343 387.5 c 128,-1,34
 333 398 333 398 325 408.5 c 128,-1,35
 317 419 317 419 317 423 c 0,36,37
 317 431 317 431 326 431 c 2,38,-1
 330 431 l 2,39,40
 334 431 334 431 338.5 433.5 c 128,-1,41
 343 436 343 436 348 440 c 2,42,-1
 494 561 l 2,43,44
 501 567 501 567 501 580 c 0,45,46
 501 639 501 639 464 662.5 c 128,-1,47
 427 686 427 686 374 686 c 256,48,49
 321 686 321 686 287.5 654.5 c 128,-1,50
 254 623 254 623 254 563 c 2,51,-1
 254 15 l 2,52,53
 254 0 254 0 239 0 c 2,54,-1
 30 0 l 2,55,56
 15 0 15 0 15 15 c 2,57,-1
 15 45 l 2,58,59
 15 60 15 60 30 60 c 2,60,-1
 33 60 l 2,61,62
 74 60 74 60 89 87.5 c 128,-1,63
 104 115 104 115 104 155 c 2,64,-1
 104 325 l 2,65,66
 104 352 104 352 100.5 377.5 c 128,-1,67
 97 403 97 403 85 420 c 128,-1,68
 73 437 73 437 45 440 c 0,69,70
 33 441 33 441 33 453 c 2,71,-1
 33 487 l 2,72,73
 33 500 33 500 48 500 c 2,74,-1
 104 500 l 1,75,-1
 104 515 l 2,76,77
 104 539 104 539 110 571.5 c 128,-1,78
 116 604 116 604 132.5 637 c 128,-1,79
 149 670 149 670 179.5 698.5 c 128,-1,80
 210 727 210 727 257.5 744.5 c 128,-1,81
 305 762 305 762 374 762 c 0,82,83
 484 762 484 762 551.5 715 c 128,-1,84
 619 668 619 668 619 580 c 0,85,86
 619 568 619 568 611 561 c 2,87,-1
 450 430 l 1,0,1
EndSplineSet
Position2: "'cpsp' Capital Spacing in Latin lookup 0 subtable" dx=5 dy=0 dh=10 dv=0
EndChar

StartChar: T
Encoding: 84 84 135
Width: 788
GlyphClass: 2
Flags: W
AnchorPoint: "Anchor-1" 386 0 basechar 0
AnchorPoint: "Anchor-0" 388 750 basechar 0
LayerCount: 2
Fore
SplineSet
642 750 m 2,0,1
 647 750 647 750 653.5 751.5 c 128,-1,2
 660 753 660 753 667 760 c 0,3,4
 671 764 671 764 676 764 c 0,5,6
 684 764 684 764 688 755 c 2,7,-1
 767 609 l 2,8,9
 770 603 770 603 770 600 c 0,10,11
 770 592 770 592 762 588 c 2,12,-1
 720 565 l 2,13,14
 714 562 714 562 710 562 c 0,15,16
 704 562 704 562 699 571 c 2,17,-1
 696 577 l 2,18,19
 671 627 671 627 624 648 c 128,-1,20
 577 669 577 669 516 669 c 2,21,-1
 467 669 l 1,22,-1
 467 155 l 2,23,24
 467 115 467 115 482 87.5 c 128,-1,25
 497 60 497 60 535 60 c 2,26,-1
 542 60 l 2,27,28
 557 60 557 60 557 45 c 2,29,-1
 557 15 l 2,30,31
 557 0 557 0 542 0 c 2,32,-1
 234 0 l 2,33,34
 219 0 219 0 219 15 c 2,35,-1
 219 45 l 2,36,37
 219 60 219 60 234 60 c 2,38,-1
 240 60 l 2,39,40
 278 60 278 60 293 87.5 c 128,-1,41
 308 115 308 115 308 155 c 2,42,-1
 308 669 l 1,43,-1
 259 669 l 2,44,45
 198 669 198 669 151 648 c 128,-1,46
 104 627 104 627 79 577 c 2,47,-1
 76 571 l 2,48,49
 71 562 71 562 65 562 c 0,50,51
 61 562 61 562 55 565 c 2,52,-1
 13 588 l 2,53,54
 5 592 5 592 5 600 c 0,55,56
 5 603 5 603 8 609 c 2,57,-1
 87 755 l 2,58,59
 92 764 92 764 99 764 c 0,60,61
 104 764 104 764 108 760 c 0,62,63
 115 753 115 753 121.5 751.5 c 128,-1,64
 128 750 128 750 133 750 c 2,65,-1
 642 750 l 2,0,1
EndSplineSet
Position2: "'cpsp' Capital Spacing in Latin lookup 0 subtable" dx=5 dy=0 dh=10 dv=0
EndChar

StartChar: Tbar
Encoding: 358 358 136
Width: 788
GlyphClass: 2
Flags: W
AnchorPoint: "Anchor-1" 386 0 basechar 0
AnchorPoint: "Anchor-0" 388 750 basechar 0
LayerCount: 2
Fore
SplineSet
256 860 m 2,0,1
 241 860 241 860 241 875 c 2,2,-1
 241 935 l 2,3,4
 241 950 241 950 256 950 c 2,5,-1
 523 950 l 2,6,7
 538 950 538 950 538 935 c 2,8,-1
 538 875 l 2,9,10
 538 860 538 860 523 860 c 2,11,-1
 256 860 l 2,0,1
642 750 m 2,12,13
 647 750 647 750 653.5 751.5 c 128,-1,14
 660 753 660 753 667 760 c 0,15,16
 671 764 671 764 676 764 c 0,17,18
 684 764 684 764 688 755 c 2,19,-1
 767 609 l 2,20,21
 770 603 770 603 770 600 c 0,22,23
 770 592 770 592 762 588 c 2,24,-1
 720 565 l 2,25,26
 714 562 714 562 710 562 c 0,27,28
 704 562 704 562 699 571 c 2,29,-1
 696 577 l 2,30,31
 671 627 671 627 624 648 c 128,-1,32
 577 669 577 669 516 669 c 2,33,-1
 467 669 l 1,34,-1
 467 155 l 2,35,36
 467 115 467 115 482 87.5 c 128,-1,37
 497 60 497 60 535 60 c 2,38,-1
 542 60 l 2,39,40
 557 60 557 60 557 45 c 2,41,-1
 557 15 l 2,42,43
 557 0 557 0 542 0 c 2,44,-1
 234 0 l 2,45,46
 219 0 219 0 219 15 c 2,47,-1
 219 45 l 2,48,49
 219 60 219 60 234 60 c 2,50,-1
 240 60 l 2,51,52
 278 60 278 60 293 87.5 c 128,-1,53
 308 115 308 115 308 155 c 2,54,-1
 308 669 l 1,55,-1
 259 669 l 2,56,57
 198 669 198 669 151 648 c 128,-1,58
 104 627 104 627 79 577 c 2,59,-1
 76 571 l 2,60,61
 71 562 71 562 65 562 c 0,62,63
 61 562 61 562 55 565 c 2,64,-1
 13 588 l 2,65,66
 5 592 5 592 5 600 c 0,67,68
 5 603 5 603 8 609 c 2,69,-1
 87 755 l 2,70,71
 92 764 92 764 99 764 c 0,72,73
 104 764 104 764 108 760 c 0,74,75
 115 753 115 753 121.5 751.5 c 128,-1,76
 128 750 128 750 133 750 c 2,77,-1
 642 750 l 2,12,13
EndSplineSet
Position2: "'cpsp' Capital Spacing in Latin lookup 0 subtable" dx=5 dy=0 dh=10 dv=0
EndChar

StartChar: U
Encoding: 85 85 142
Width: 808
GlyphClass: 2
Flags: W
AnchorPoint: "Anchor-2" 520 0 basechar 0
AnchorPoint: "Anchor-1" 440 0 basechar 0
AnchorPoint: "Anchor-0" 436 750 basechar 0
LayerCount: 2
Fore
SplineSet
783 750 m 2,0,1
 798 750 798 750 798 735 c 2,2,-1
 798 705 l 2,3,4
 798 690 798 690 783 690 c 2,5,-1
 776 690 l 2,6,7
 739 690 739 690 724 662.5 c 128,-1,8
 709 635 709 635 709 595 c 2,9,-1
 709 275 l 2,10,11
 709 137 709 137 640.5 62 c 128,-1,12
 572 -13 572 -13 423 -13 c 0,13,14
 275 -13 275 -13 194.5 61 c 128,-1,15
 114 135 114 135 114 265 c 2,16,-1
 114 595 l 2,17,18
 114 635 114 635 99.5 662.5 c 128,-1,19
 85 690 85 690 47 690 c 2,20,-1
 40 690 l 2,21,22
 25 690 25 690 25 705 c 2,23,-1
 25 735 l 2,24,25
 25 750 25 750 40 750 c 2,26,-1
 347 750 l 2,27,28
 362 750 362 750 362 735 c 2,29,-1
 362 705 l 2,30,31
 362 690 362 690 347 690 c 2,32,-1
 341 690 l 2,33,34
 304 690 304 690 289 662.5 c 128,-1,35
 274 635 274 635 274 595 c 2,36,-1
 274 285 l 2,37,38
 274 243 274 243 280 205 c 128,-1,39
 286 167 286 167 304.5 138 c 128,-1,40
 323 109 323 109 358.5 92 c 128,-1,41
 394 75 394 75 452 75 c 256,42,43
 510 75 510 75 544 102.5 c 128,-1,44
 578 130 578 130 593 177.5 c 128,-1,45
 608 225 608 225 608 285 c 2,46,-1
 608 595 l 2,47,48
 608 635 608 635 593.5 662.5 c 128,-1,49
 579 690 579 690 541 690 c 2,50,-1
 535 690 l 2,51,52
 520 690 520 690 520 705 c 2,53,-1
 520 735 l 2,54,55
 520 750 520 750 535 750 c 2,56,-1
 783 750 l 2,0,1
EndSplineSet
Position2: "'cpsp' Capital Spacing in Latin lookup 0 subtable" dx=5 dy=0 dh=10 dv=0
EndChar

StartChar: V
Encoding: 86 86 156
Width: 784
GlyphClass: 1
Flags: W
LayerCount: 2
Fore
SplineSet
764 750 m 2,0,1
 779 750 779 750 779 735 c 2,2,-1
 779 705 l 2,3,4
 779 690 779 690 764 690 c 0,5,6
 736 690 736 690 719.5 662.5 c 128,-1,7
 703 635 703 635 689 597 c 2,8,-1
 474 12 l 2,9,10
 470 0 470 0 457 0 c 2,11,-1
 336 0 l 2,12,13
 324 0 324 0 319 12 c 2,14,-1
 94 597 l 2,15,16
 79 636 79 636 63.5 663 c 128,-1,17
 48 690 48 690 20 690 c 0,18,19
 5 690 5 690 5 705 c 2,20,-1
 5 735 l 2,21,22
 5 750 5 750 20 750 c 2,23,-1
 327 750 l 2,24,25
 342 750 342 750 342 735 c 2,26,-1
 342 705 l 2,27,28
 342 690 342 690 327 690 c 0,29,30
 296 690 296 690 272.5 670.5 c 128,-1,31
 249 651 249 651 249 621 c 0,32,33
 249 610 249 610 258 587 c 2,34,-1
 428 141 l 1,35,-1
 589 597 l 2,36,37
 593 609 593 609 593 622 c 0,38,39
 593 651 593 651 569.5 670.5 c 128,-1,40
 546 690 546 690 515 690 c 0,41,42
 500 690 500 690 500 705 c 2,43,-1
 500 735 l 2,44,45
 500 750 500 750 515 750 c 2,46,-1
 764 750 l 2,0,1
EndSplineSet
Position2: "'cpsp' Capital Spacing in Latin lookup 0 subtable" dx=5 dy=0 dh=10 dv=0
EndChar

StartChar: W
Encoding: 87 87 157
Width: 1207
GlyphClass: 2
Flags: W
AnchorPoint: "Anchor-1" 525 0 basechar 0
AnchorPoint: "Anchor-0" 625 750 basechar 0
LayerCount: 2
Fore
SplineSet
1187 750 m 2,0,1
 1202 750 1202 750 1202 735 c 2,2,-1
 1202 705 l 2,3,4
 1202 690 1202 690 1187 690 c 0,5,6
 1159 690 1159 690 1143 662 c 128,-1,7
 1127 634 1127 634 1113 594 c 2,8,-1
 907 12 l 2,9,10
 903 0 903 0 890 0 c 2,11,-1
 770 0 l 2,12,13
 758 0 758 0 753 12 c 2,14,-1
 605 411 l 1,15,-1
 464 12 l 2,16,17
 460 0 460 0 447 0 c 2,18,-1
 326 0 l 2,19,20
 314 0 314 0 309 12 c 2,21,-1
 94 594 l 2,22,23
 80 633 80 633 64.5 661.5 c 128,-1,24
 49 690 49 690 20 690 c 0,25,26
 5 690 5 690 5 705 c 2,27,-1
 5 735 l 2,28,29
 5 750 5 750 20 750 c 2,30,-1
 327 750 l 2,31,32
 342 750 342 750 342 735 c 2,33,-1
 342 705 l 2,34,35
 342 690 342 690 327 690 c 0,36,37
 296 690 296 690 272.5 670.5 c 128,-1,38
 249 651 249 651 249 620 c 0,39,40
 249 609 249 609 254 594 c 2,41,-1
 418 141 l 1,42,-1
 554 549 l 1,43,-1
 537 594 l 2,44,45
 522 633 522 633 506.5 661.5 c 128,-1,46
 491 690 491 690 464 690 c 0,47,48
 449 690 449 690 449 705 c 2,49,-1
 449 735 l 2,50,51
 449 750 449 750 464 750 c 2,52,-1
 770 750 l 2,53,54
 785 750 785 750 785 735 c 2,55,-1
 785 705 l 2,56,57
 785 690 785 690 770 690 c 2,58,-1
 744 690 l 2,59,60
 726 690 726 690 708 675 c 128,-1,61
 690 660 690 660 690 631 c 0,62,63
 690 618 690 618 696 600 c 2,64,-1
 861 141 l 1,65,-1
 1012 594 l 2,66,67
 1016 606 1016 606 1016 619 c 0,68,69
 1016 650 1016 650 993 670 c 128,-1,70
 970 690 970 690 939 690 c 0,71,72
 924 690 924 690 924 705 c 2,73,-1
 924 735 l 2,74,75
 924 750 924 750 939 750 c 2,76,-1
 1187 750 l 2,0,1
EndSplineSet
Position2: "'cpsp' Capital Spacing in Latin lookup 0 subtable" dx=5 dy=0 dh=10 dv=0
EndChar

StartChar: X
Encoding: 88 88 162
Width: 853
GlyphClass: 1
Flags: W
LayerCount: 2
Fore
SplineSet
827 67 m 2,0,1
 843 67 843 67 843 50 c 2,2,-1
 843 17 l 2,3,4
 843 0 843 0 827 0 c 2,5,-1
 530 0 l 2,6,7
 513 0 513 0 513 17 c 2,8,-1
 513 50 l 2,9,10
 513 67 513 67 530 67 c 2,11,-1
 532 67 l 2,12,13
 543 67 543 67 558 71.5 c 128,-1,14
 573 76 573 76 573 91 c 0,15,16
 573 97 573 97 569.5 105 c 128,-1,17
 566 113 566 113 557 123 c 2,18,-1
 391 325 l 1,19,-1
 246 138 l 2,20,21
 230 118 230 118 221.5 103.5 c 128,-1,22
 213 89 213 89 213 81 c 0,23,24
 213 67 213 67 240 67 c 2,25,-1
 262 67 l 2,26,27
 279 67 279 67 279 50 c 2,28,-1
 279 17 l 2,29,30
 279 0 279 0 262 0 c 2,31,-1
 27 0 l 2,32,33
 10 0 10 0 10 17 c 2,34,-1
 10 50 l 2,35,36
 10 67 10 67 27 67 c 2,37,-1
 32 67 l 2,38,39
 64 67 64 67 83 83.5 c 128,-1,40
 102 100 102 100 131 137 c 2,41,-1
 333 396 l 1,42,-1
 156 612 l 2,43,44
 97 683 97 683 57 683 c 2,45,-1
 55 683 l 2,46,47
 38 683 38 683 38 700 c 2,48,-1
 38 733 l 2,49,50
 38 750 38 750 55 750 c 2,51,-1
 345 750 l 2,52,53
 362 750 362 750 362 733 c 2,54,-1
 362 700 l 2,55,56
 362 683 362 683 346 683 c 2,57,-1
 344 683 l 2,58,59
 303 683 303 683 303 666 c 0,60,61
 303 653 303 653 322 631 c 2,62,-1
 454 470 l 1,63,-1
 566 612 l 2,64,65
 581 632 581 632 590 646 c 128,-1,66
 599 660 599 660 599 668 c 0,67,68
 599 682 599 682 572 682 c 2,69,-1
 561 682 l 2,70,71
 544 682 544 682 544 699 c 2,72,-1
 544 733 l 2,73,74
 544 750 544 750 561 750 c 2,75,-1
 796 750 l 2,76,77
 813 750 813 750 813 733 c 2,78,-1
 813 699 l 2,79,80
 813 682 813 682 796 682 c 2,81,-1
 780 682 l 2,82,83
 749 682 749 682 729.5 665.5 c 128,-1,84
 710 649 710 649 681 612 c 2,85,-1
 512 399 l 1,86,-1
 726 138 l 2,87,88
 784 67 784 67 824 67 c 2,89,-1
 827 67 l 2,0,1
EndSplineSet
Position2: "'cpsp' Capital Spacing in Latin lookup 0 subtable" dx=5 dy=0 dh=10 dv=0
EndChar

StartChar: Y
Encoding: 89 89 163
Width: 794
GlyphClass: 2
Flags: W
AnchorPoint: "Anchor-0" 444 750 basechar 0
LayerCount: 2
Fore
SplineSet
769 750 m 2,0,1
 784 750 784 750 784 735 c 2,2,-1
 784 705 l 2,3,4
 784 690 784 690 769 690 c 0,5,6
 736 690 736 690 704.5 667 c 128,-1,7
 673 644 673 644 644 594 c 2,8,-1
 490 333 l 2,9,10
 485 326 485 326 485 314 c 2,11,-1
 485 155 l 2,12,13
 485 115 485 115 499.5 87.5 c 128,-1,14
 514 60 514 60 552 60 c 2,15,-1
 559 60 l 2,16,17
 574 60 574 60 574 45 c 2,18,-1
 574 15 l 2,19,20
 574 0 574 0 559 0 c 2,21,-1
 251 0 l 2,22,23
 236 0 236 0 236 15 c 2,24,-1
 236 45 l 2,25,26
 236 60 236 60 251 60 c 2,27,-1
 257 60 l 2,28,29
 295 60 295 60 310 87.5 c 128,-1,30
 325 115 325 115 325 155 c 2,31,-1
 325 309 l 2,32,33
 325 318 325 318 319 327 c 2,34,-1
 139 594 l 2,35,36
 105 644 105 644 81 667 c 128,-1,37
 57 690 57 690 25 690 c 0,38,39
 10 690 10 690 10 705 c 2,40,-1
 10 735 l 2,41,42
 10 750 10 750 25 750 c 2,43,-1
 372 750 l 2,44,45
 387 750 387 750 387 735 c 2,46,-1
 387 705 l 2,47,48
 387 690 387 690 372 690 c 0,49,50
 345 690 345 690 323.5 679.5 c 128,-1,51
 302 669 302 669 302 643 c 0,52,53
 302 622 302 622 319 594 c 2,54,-1
 436 407 l 1,55,-1
 544 594 l 2,56,57
 566 634 566 634 566 657 c 0,58,59
 566 690 566 690 520 690 c 0,60,61
 505 690 505 690 505 705 c 2,62,-1
 505 735 l 2,63,64
 505 750 505 750 520 750 c 2,65,-1
 769 750 l 2,0,1
EndSplineSet
Position2: "'cpsp' Capital Spacing in Latin lookup 0 subtable" dx=5 dy=0 dh=10 dv=0
EndChar

StartChar: Z
Encoding: 90 90 171
Width: 745
GlyphClass: 2
Flags: W
AnchorPoint: "Anchor-1" 341 0 basechar 0
AnchorPoint: "Anchor-0" 418 750 basechar 0
LayerCount: 2
Fore
SplineSet
718 172 m 2,0,1
 726 167 726 167 726 160 c 0,2,3
 726 157 726 157 723 151 c 2,4,-1
 643 -5 l 2,5,6
 638 -13 638 -13 631 -13 c 0,7,8
 625 -13 625 -13 622 -10 c 2,9,-1
 617 -5 l 2,10,11
 613 -1 613 -1 608 -0.5 c 128,-1,12
 603 0 603 0 598 0 c 2,13,-1
 30 0 l 2,14,15
 15 0 15 0 15 15 c 2,16,-1
 15 70 l 2,17,18
 15 80 15 80 22 90 c 2,19,-1
 472 669 l 1,20,-1
 302 669 l 2,21,22
 257 669 257 669 225.5 655.5 c 128,-1,23
 194 642 194 642 170.5 618.5 c 128,-1,24
 147 595 147 595 123 566 c 2,25,-1
 119 561 l 2,26,27
 112 552 112 552 107 552 c 0,28,29
 103 552 103 552 98 555 c 2,30,-1
 56 578 l 2,31,32
 48 583 48 583 48 590 c 0,33,34
 48 593 48 593 51 599 c 2,35,-1
 130 755 l 2,36,37
 134 763 134 763 143 763 c 0,38,39
 146 763 146 763 148.5 762 c 128,-1,40
 151 761 151 761 157 755 c 0,41,42
 161 751 161 751 166 750.5 c 128,-1,43
 171 750 171 750 176 750 c 2,44,-1
 711 750 l 2,45,46
 717 750 717 750 717 745 c 2,47,-1
 717 740 l 2,48,49
 717 737 717 737 715 734 c 128,-1,50
 713 731 713 731 711 728 c 2,51,-1
 220 91 l 1,52,-1
 355 91 l 2,53,54
 448 91 448 91 505.5 101 c 128,-1,55
 563 111 563 111 597 131.5 c 128,-1,56
 631 152 631 152 651 183 c 2,57,-1
 655 189 l 2,58,59
 660 198 660 198 667 198 c 0,60,61
 672 198 672 198 676 195 c 2,62,-1
 718 172 l 2,0,1
EndSplineSet
Position2: "'cpsp' Capital Spacing in Latin lookup 0 subtable" dx=5 dy=0 dh=10 dv=0
EndChar

StartChar: a
Encoding: 97 97 176
Width: 619
GlyphClass: 2
Flags: W
AnchorPoint: "Anchor-2" 549 26 basechar 0
AnchorPoint: "Anchor-1" 319 0 basechar 0
AnchorPoint: "Anchor-0" 286 500 basechar 0
LayerCount: 2
Fore
SplineSet
533 185 m 2,0,1
 533 149 533 149 544 120.5 c 128,-1,2
 555 92 555 92 592 87 c 0,3,4
 604 86 604 86 604 74 c 2,5,-1
 604 41 l 2,6,7
 604 27 604 27 589 27 c 0,8,9
 540 27 540 27 507.5 21.5 c 128,-1,10
 475 16 475 16 451.5 7.5 c 128,-1,11
 428 -1 428 -1 405 -11 c 0,12,13
 401 -13 401 -13 398 -13 c 2,14,-1
 395 -13 l 2,15,16
 393 -13 393 -13 393 -9 c 256,17,18
 393 -5 393 -5 395 10.5 c 128,-1,19
 397 26 397 26 399.5 45.5 c 128,-1,20
 402 65 402 65 404 79 c 1,21,22
 399 66 399 66 382.5 44 c 128,-1,23
 366 22 366 22 334.5 4.5 c 128,-1,24
 303 -13 303 -13 252 -13 c 0,25,26
 218 -13 218 -13 179.5 1 c 128,-1,27
 141 15 141 15 107 46 c 128,-1,28
 73 77 73 77 51.5 127.5 c 128,-1,29
 30 178 30 178 30 251 c 0,30,31
 30 344 30 344 63.5 401.5 c 128,-1,32
 97 459 97 459 150.5 486 c 128,-1,33
 204 513 204 513 264 513 c 0,34,35
 313 513 313 513 354 498 c 128,-1,36
 395 483 395 483 426 455 c 1,37,38
 452 466 452 466 470.5 475.5 c 128,-1,39
 489 485 489 485 502 495 c 0,40,41
 507 499 507 499 512.5 503 c 128,-1,42
 518 507 518 507 525 511 c 0,43,44
 528 513 528 513 530 513 c 2,45,-1
 531 513 l 2,46,47
 533 513 533 513 533 511 c 2,48,-1
 533 185 l 2,0,1
393 342 m 2,49,50
 390 362 390 362 378.5 386.5 c 128,-1,51
 367 411 367 411 344 428.5 c 128,-1,52
 321 446 321 446 282 446 c 0,53,54
 234 446 234 446 207 422.5 c 128,-1,55
 180 399 180 399 169.5 362 c 128,-1,56
 159 325 159 325 159 283 c 0,57,58
 159 187 159 187 197.5 131 c 128,-1,59
 236 75 236 75 297 75 c 0,60,61
 333 75 333 75 353.5 90.5 c 128,-1,62
 374 106 374 106 383 122 c 128,-1,63
 392 138 392 138 393 141 c 2,64,-1
 393 342 l 2,49,50
EndSplineSet
Substitution2: "Single Substitution lookup 21 subtable" ordfeminine
Substitution2: "'aalt' Access All Alternates in Latin lookup 0 subtable" ordfeminine
EndChar

StartChar: ae
Encoding: 230 230 188
Width: 887
GlyphClass: 2
Flags: W
AnchorPoint: "Anchor-0" 434 500 basechar 0
LayerCount: 2
Fore
SplineSet
252 -13 m 0,0,1
 218 -13 218 -13 179.5 1 c 128,-1,2
 141 15 141 15 107 46 c 128,-1,3
 73 77 73 77 51.5 127.5 c 128,-1,4
 30 178 30 178 30 251 c 0,5,6
 30 344 30 344 63.5 401.5 c 128,-1,7
 97 459 97 459 150.5 486 c 128,-1,8
 204 513 204 513 264 513 c 0,9,10
 313 513 313 513 354 498 c 128,-1,11
 395 483 395 483 426 455 c 1,12,13
 454 466 454 466 472 476 c 128,-1,14
 490 486 490 486 503 495 c 0,15,16
 517 504 517 504 525 511 c 0,17,18
 528 513 528 513 530 513 c 2,19,-1
 531 513 l 2,20,21
 533 513 533 513 533 511 c 2,22,-1
 533 489 l 1,23,24
 558 500 558 500 585 505.5 c 128,-1,25
 612 511 612 511 640 511 c 0,26,27
 690 511 690 511 728 492 c 128,-1,28
 766 473 766 473 792.5 443 c 128,-1,29
 819 413 819 413 832.5 380 c 128,-1,30
 846 347 846 347 846 318 c 0,31,32
 846 310 846 310 837 306 c 2,33,-1
 547 179 l 1,34,35
 564 137 564 137 601.5 104 c 128,-1,36
 639 71 639 71 697 71 c 0,37,38
 729 71 729 71 764 89 c 128,-1,39
 799 107 799 107 825 145 c 0,40,41
 828 150 828 150 833 150 c 256,42,43
 838 150 838 150 843.5 147 c 128,-1,44
 849 144 849 144 873 130 c 0,45,46
 877 127 877 127 877 122 c 0,47,48
 877 115 877 115 871 105 c 0,49,50
 843 53 843 53 795 20.5 c 128,-1,51
 747 -12 747 -12 670 -12 c 0,52,53
 629 -12 629 -12 593.5 -2.5 c 128,-1,54
 558 7 558 7 528 24 c 1,55,56
 485 20 485 20 458 10 c 128,-1,57
 431 0 431 0 405 -11 c 0,58,59
 401 -13 401 -13 398 -13 c 2,60,-1
 396 -13 l 2,61,62
 393 -13 393 -13 393 -10 c 2,63,-1
 404 79 l 1,64,65
 399 66 399 66 382.5 44 c 128,-1,66
 366 22 366 22 334.5 4.5 c 128,-1,67
 303 -13 303 -13 252 -13 c 0,0,1
297 75 m 0,68,69
 333 75 333 75 353.5 90.5 c 128,-1,70
 374 106 374 106 383 122 c 128,-1,71
 392 138 392 138 393 141 c 2,72,-1
 393 342 l 2,73,74
 390 362 390 362 378.5 386.5 c 128,-1,75
 367 411 367 411 344 428.5 c 128,-1,76
 321 446 321 446 282 446 c 0,77,78
 234 446 234 446 207 422.5 c 128,-1,79
 180 399 180 399 169.5 362 c 128,-1,80
 159 325 159 325 159 283 c 0,81,82
 159 187 159 187 197.5 131 c 128,-1,83
 236 75 236 75 297 75 c 0,68,69
535 241 m 1,84,-1
 696 322 l 1,85,86
 696 370 696 370 673 401 c 128,-1,87
 650 432 650 432 615 432 c 0,88,89
 574 432 574 432 550 399.5 c 128,-1,90
 526 367 526 367 526 318 c 0,91,92
 526 303 526 303 527.5 281 c 128,-1,93
 529 259 529 259 535 241 c 1,84,-1
EndSplineSet
EndChar

StartChar: b
Encoding: 98 98 190
Width: 609
GlyphClass: 1
Flags: W
LayerCount: 2
Fore
SplineSet
76 530 m 2,0,1
 76 557 76 557 72.5 582 c 128,-1,2
 69 607 69 607 57 624.5 c 128,-1,3
 45 642 45 642 17 645 c 0,4,5
 5 646 5 646 5 658 c 2,6,-1
 5 692 l 2,7,8
 5 698 5 698 8.5 700.5 c 128,-1,9
 12 703 12 703 19 705 c 0,10,11
 99 731 99 731 143 757 c 128,-1,12
 187 783 187 783 207 798 c 0,13,14
 210 800 210 800 212 800 c 2,15,-1
 213 800 l 2,16,17
 215 800 215 800 215 798 c 2,18,-1
 215 464 l 1,19,20
 229 484 229 484 261.5 498.5 c 128,-1,21
 294 513 294 513 336 513 c 0,22,23
 377 513 377 513 419.5 499 c 128,-1,24
 462 485 462 485 498 454 c 128,-1,25
 534 423 534 423 556.5 372.5 c 128,-1,26
 579 322 579 322 579 249 c 0,27,28
 579 173 579 173 547.5 113.5 c 128,-1,29
 516 54 516 54 457 20.5 c 128,-1,30
 398 -13 398 -13 317 -13 c 0,31,32
 251 -13 251 -13 196 9.5 c 128,-1,33
 141 32 141 32 108.5 82.5 c 128,-1,34
 76 133 76 133 76 215 c 2,35,-1
 76 530 l 2,0,1
215 194 m 2,36,37
 215 145 215 145 231 114 c 128,-1,38
 247 83 247 83 273 68 c 128,-1,39
 299 53 299 53 327 53 c 0,40,41
 376 53 376 53 402.5 76.5 c 128,-1,42
 429 100 429 100 439.5 138 c 128,-1,43
 450 176 450 176 450 217 c 0,44,45
 450 313 450 313 409.5 369 c 128,-1,46
 369 425 369 425 292 425 c 0,47,48
 250 425 250 425 215 399 c 1,49,-1
 215 194 l 2,36,37
EndSplineSet
EndChar

StartChar: c
Encoding: 99 99 191
Width: 514
GlyphClass: 2
Flags: W
AnchorPoint: "Anchor-1" 283 0 basechar 0
AnchorPoint: "Anchor-0" 268 500 basechar 0
LayerCount: 2
Fore
SplineSet
472 135 m 2,0,1
 480 129 480 129 480 122 c 0,2,3
 480 120 480 120 478 114 c 0,4,5
 449 50 449 50 392.5 18.5 c 128,-1,6
 336 -13 336 -13 269 -13 c 0,7,8
 213 -13 213 -13 167 11.5 c 128,-1,9
 121 36 121 36 89 77 c 128,-1,10
 57 118 57 118 42 169 c 128,-1,11
 27 220 27 220 31 274 c 0,12,13
 38 357 38 357 77 410 c 128,-1,14
 116 463 116 463 171.5 488 c 128,-1,15
 227 513 227 513 283 513 c 0,16,17
 349 513 349 513 390 493 c 128,-1,18
 431 473 431 473 453 441 c 128,-1,19
 475 409 475 409 483 374 c 0,20,21
 484 370 484 370 484 367 c 0,22,23
 484 359 484 359 472 356 c 2,24,-1
 357 326 l 2,25,26
 351 324 351 324 348 324 c 0,27,28
 341 324 341 324 341 331 c 0,29,30
 341 335 341 335 341.5 339 c 128,-1,31
 342 343 342 343 342 350 c 0,32,33
 342 382 342 382 322 407 c 128,-1,34
 302 432 302 432 260 432 c 0,35,36
 222 432 222 432 200 408 c 128,-1,37
 178 384 178 384 168.5 346.5 c 128,-1,38
 159 309 159 309 159 268 c 0,39,40
 159 219 159 219 172 175 c 128,-1,41
 185 131 185 131 214.5 103.5 c 128,-1,42
 244 76 244 76 295 76 c 0,43,44
 335 76 335 76 369 95.5 c 128,-1,45
 403 115 403 115 425 149 c 0,46,47
 429 156 429 156 437 156 c 0,48,49
 442 156 442 156 446 153 c 2,50,-1
 472 135 l 2,0,1
EndSplineSet
EndChar

StartChar: d
Encoding: 100 100 198
Width: 619
GlyphClass: 2
Flags: W
AnchorPoint: "Anchor-1" 337 0 basechar 0
LayerCount: 2
Fore
SplineSet
533 185 m 2,0,1
 533 149 533 149 544 120.5 c 128,-1,2
 555 92 555 92 592 87 c 0,3,4
 604 86 604 86 604 74 c 2,5,-1
 604 41 l 2,6,7
 604 27 604 27 589 27 c 0,8,9
 540 27 540 27 507.5 21.5 c 128,-1,10
 475 16 475 16 451.5 7.5 c 128,-1,11
 428 -1 428 -1 405 -11 c 0,12,13
 401 -13 401 -13 398 -13 c 2,14,-1
 396 -13 l 2,15,16
 393 -13 393 -13 393 -10 c 0,17,18
 395 13 395 13 397.5 35 c 128,-1,19
 400 57 400 57 404 79 c 1,20,21
 399 66 399 66 382.5 44 c 128,-1,22
 366 22 366 22 334.5 4.5 c 128,-1,23
 303 -13 303 -13 252 -13 c 0,24,25
 218 -13 218 -13 179.5 1 c 128,-1,26
 141 15 141 15 107 46 c 128,-1,27
 73 77 73 77 51.5 127.5 c 128,-1,28
 30 178 30 178 30 251 c 0,29,30
 30 344 30 344 63.5 401.5 c 128,-1,31
 97 459 97 459 150.5 486 c 128,-1,32
 204 513 204 513 264 513 c 0,33,34
 340 513 340 513 393 466 c 1,35,-1
 393 530 l 2,36,37
 393 557 393 557 389.5 582 c 128,-1,38
 386 607 386 607 374 624.5 c 128,-1,39
 362 642 362 642 334 645 c 0,40,41
 322 646 322 646 322 658 c 2,42,-1
 322 692 l 2,43,44
 322 698 322 698 326 700.5 c 128,-1,45
 330 703 330 703 337 705 c 0,46,47
 416 731 416 731 460.5 757 c 128,-1,48
 505 783 505 783 525 798 c 0,49,50
 528 800 528 800 530 800 c 2,51,-1
 531 800 l 2,52,53
 533 800 533 800 533 798 c 2,54,-1
 533 185 l 2,0,1
393 324 m 2,55,56
 393 371 393 371 362.5 404 c 128,-1,57
 332 437 332 437 282 437 c 0,58,59
 234 437 234 437 207 416 c 128,-1,60
 180 395 180 395 169.5 360 c 128,-1,61
 159 325 159 325 159 283 c 0,62,63
 159 187 159 187 197.5 131 c 128,-1,64
 236 75 236 75 297 75 c 0,65,66
 324 75 324 75 344 88.5 c 128,-1,67
 364 102 364 102 376.5 122 c 128,-1,68
 389 142 389 142 393 160 c 1,69,-1
 393 324 l 2,55,56
EndSplineSet
EndChar

StartChar: dcroat
Encoding: 273 273 200
Width: 614
GlyphClass: 2
Flags: W
AnchorPoint: "Anchor-1" 337 0 basechar 0
LayerCount: 2
Fore
SplineSet
533 185 m 2,0,1
 533 149 533 149 544 120.5 c 128,-1,2
 555 92 555 92 592 87 c 0,3,4
 604 86 604 86 604 74 c 2,5,-1
 604 41 l 2,6,7
 604 27 604 27 589 27 c 0,8,9
 540 27 540 27 507.5 21.5 c 128,-1,10
 475 16 475 16 451.5 7.5 c 128,-1,11
 428 -1 428 -1 405 -11 c 0,12,13
 401 -13 401 -13 398 -13 c 2,14,-1
 396 -13 l 2,15,16
 393 -13 393 -13 393 -10 c 0,17,18
 395 13 395 13 397.5 35 c 128,-1,19
 400 57 400 57 404 79 c 1,20,21
 399 66 399 66 382.5 44 c 128,-1,22
 366 22 366 22 334.5 4.5 c 128,-1,23
 303 -13 303 -13 252 -13 c 0,24,25
 218 -13 218 -13 179.5 1 c 128,-1,26
 141 15 141 15 107 46 c 128,-1,27
 73 77 73 77 51.5 127.5 c 128,-1,28
 30 178 30 178 30 251 c 0,29,30
 30 344 30 344 63.5 401.5 c 128,-1,31
 97 459 97 459 150.5 486 c 128,-1,32
 204 513 204 513 264 513 c 0,33,34
 340 513 340 513 393 466 c 1,35,-1
 393 525 l 1,36,-1
 329 525 l 2,37,38
 314 525 314 525 314 540 c 2,39,-1
 314 580 l 2,40,41
 314 595 314 595 329 595 c 2,42,-1
 387 595 l 1,43,44
 382 615 382 615 370 628.5 c 128,-1,45
 358 642 358 642 334 645 c 0,46,47
 322 646 322 646 322 658 c 2,48,-1
 322 692 l 2,49,50
 322 698 322 698 326 700.5 c 128,-1,51
 330 703 330 703 337 705 c 0,52,53
 416 731 416 731 460.5 757 c 128,-1,54
 505 783 505 783 525 798 c 0,55,56
 528 800 528 800 530 800 c 2,57,-1
 531 800 l 2,58,59
 533 800 533 800 533 798 c 2,60,-1
 533 595 l 1,61,-1
 579 595 l 2,62,63
 594 595 594 595 594 580 c 2,64,-1
 594 540 l 2,65,66
 594 525 594 525 579 525 c 2,67,-1
 533 525 l 1,68,-1
 533 185 l 2,0,1
393 324 m 2,69,70
 393 371 393 371 362.5 404 c 128,-1,71
 332 437 332 437 282 437 c 0,72,73
 234 437 234 437 207 416 c 128,-1,74
 180 395 180 395 169.5 360 c 128,-1,75
 159 325 159 325 159 283 c 0,76,77
 159 187 159 187 197.5 131 c 128,-1,78
 236 75 236 75 297 75 c 0,79,80
 324 75 324 75 344 88.5 c 128,-1,81
 364 102 364 102 376.5 122 c 128,-1,82
 389 142 389 142 393 160 c 1,83,-1
 393 324 l 2,69,70
EndSplineSet
EndChar

StartChar: eth
Encoding: 240 240 203
Width: 573
GlyphClass: 1
Flags: W
LayerCount: 2
Fore
SplineSet
290 -13 m 256,0,1
 218 -13 218 -13 159.5 22.5 c 128,-1,2
 101 58 101 58 66 118 c 128,-1,3
 31 178 31 178 31 250 c 0,4,5
 31 324 31 324 65 382.5 c 128,-1,6
 99 441 99 441 156.5 475.5 c 128,-1,7
 214 510 214 510 283 510 c 0,8,9
 312 510 312 510 340 504 c 1,10,11
 327 541 327 541 301 578.5 c 128,-1,12
 275 616 275 616 238 647 c 1,13,-1
 185 584 l 2,14,15
 181 578 181 578 174 578 c 0,16,17
 169 578 169 578 164 582 c 2,18,-1
 127 609 l 2,19,20
 121 614 121 614 121 620 c 256,21,22
 121 626 121 626 125 630 c 2,23,-1
 174 689 l 1,24,25
 149 702 149 702 119.5 710.5 c 128,-1,26
 90 719 90 719 58 722 c 0,27,28
 43 724 43 724 43 738 c 2,29,-1
 43 774 l 2,30,31
 43 789 43 789 57 789 c 0,32,33
 102 789 102 789 144.5 779 c 128,-1,34
 187 769 187 769 227 751 c 1,35,-1
 264 796 l 2,36,37
 269 802 269 802 275 802 c 0,38,39
 280 802 280 802 285 798 c 2,40,-1
 321 771 l 2,41,42
 328 765 328 765 328 760 c 0,43,44
 328 754 328 754 324 750 c 2,45,-1
 294 714 l 1,46,47
 368 665 368 665 424 591.5 c 128,-1,48
 480 518 480 518 511 432 c 128,-1,49
 542 346 542 346 542 259 c 0,50,51
 542 185 542 185 509 123 c 128,-1,52
 476 61 476 61 419 24 c 128,-1,53
 362 -13 362 -13 290 -13 c 256,0,1
307 60 m 0,54,55
 359 60 359 60 386 98.5 c 128,-1,56
 413 137 413 137 413 196 c 0,57,58
 413 228 413 228 404 269 c 128,-1,59
 395 310 395 310 377 347.5 c 128,-1,60
 359 385 359 385 331.5 409.5 c 128,-1,61
 304 434 304 434 266 434 c 0,62,63
 211 434 211 434 185.5 394 c 128,-1,64
 160 354 160 354 160 299 c 0,65,66
 160 266 160 266 169 225.5 c 128,-1,67
 178 185 178 185 196 147 c 128,-1,68
 214 109 214 109 242 84.5 c 128,-1,69
 270 60 270 60 307 60 c 0,54,55
EndSplineSet
EndChar

StartChar: e
Encoding: 101 101 204
Width: 515
GlyphClass: 2
Flags: W
AnchorPoint: "Anchor-2" 411 27 basechar 0
AnchorPoint: "Anchor-1" 295 0 basechar 0
AnchorPoint: "Anchor-0" 256 500 basechar 0
LayerCount: 2
Fore
SplineSet
175 179 m 1,0,1
 192 137 192 137 229.5 104 c 128,-1,2
 267 71 267 71 325 71 c 0,3,4
 357 71 357 71 392 89 c 128,-1,5
 427 107 427 107 453 145 c 0,6,7
 456 150 456 150 461 150 c 256,8,9
 466 150 466 150 471.5 147 c 128,-1,10
 477 144 477 144 501 130 c 0,11,12
 505 127 505 127 505 122 c 0,13,14
 505 115 505 115 499 105 c 0,15,16
 471 53 471 53 423 20 c 128,-1,17
 375 -13 375 -13 298 -13 c 0,18,19
 215 -13 215 -13 155 24 c 128,-1,20
 95 61 95 61 62.5 122 c 128,-1,21
 30 183 30 183 30 255 c 0,22,23
 30 324 30 324 50.5 373.5 c 128,-1,24
 71 423 71 423 105 453.5 c 128,-1,25
 139 484 139 484 181.5 498.5 c 128,-1,26
 224 513 224 513 268 513 c 0,27,28
 318 513 318 513 356 493.5 c 128,-1,29
 394 474 394 474 420.5 444 c 128,-1,30
 447 414 447 414 460.5 380.5 c 128,-1,31
 474 347 474 347 474 318 c 0,32,33
 474 310 474 310 465 306 c 2,34,-1
 175 179 l 1,0,1
324 322 m 1,35,36
 324 370 324 370 301 401 c 128,-1,37
 278 432 278 432 243 432 c 0,38,39
 202 432 202 432 178 399.5 c 128,-1,40
 154 367 154 367 154 318 c 0,41,42
 154 303 154 303 155.5 281 c 128,-1,43
 157 259 157 259 163 241 c 1,44,-1
 324 322 l 1,35,36
EndSplineSet
EndChar

StartChar: uni0259
Encoding: 601 601 219
Width: 515
GlyphClass: 2
Flags: W
AnchorPoint: "Anchor-2" 124 472 basechar 0
AnchorPoint: "Anchor-1" 240 499 basechar 0
AnchorPoint: "Anchor-0" 279 -1 basechar 0
LayerCount: 2
Fore
SplineSet
360 320 m 1,0,1
 343 362 343 362 305.5 395 c 128,-1,2
 268 428 268 428 210 428 c 0,3,4
 178 428 178 428 143 410 c 128,-1,5
 108 392 108 392 82 354 c 0,6,7
 79 349 79 349 74 349 c 0,8,9
 70 349 70 349 64 352 c 128,-1,10
 58 355 58 355 34 369 c 0,11,12
 30 372 30 372 30 377 c 0,13,14
 30 384 30 384 36 394 c 0,15,16
 65 446 65 446 113 479 c 128,-1,17
 161 512 161 512 237 512 c 0,18,19
 320 512 320 512 380 475 c 128,-1,20
 440 438 440 438 472.5 377.5 c 128,-1,21
 505 317 505 317 505 244 c 0,22,23
 505 175 505 175 484.5 125.5 c 128,-1,24
 464 76 464 76 430 45.5 c 128,-1,25
 396 15 396 15 353.5 0.5 c 128,-1,26
 311 -14 311 -14 267 -14 c 0,27,28
 218 -14 218 -14 179.5 5.5 c 128,-1,29
 141 25 141 25 114.5 55 c 128,-1,30
 88 85 88 85 74.5 119 c 128,-1,31
 61 153 61 153 61 181 c 0,32,33
 61 189 61 189 70 193 c 2,34,-1
 360 320 l 1,0,1
211 177 m 1,35,36
 211 129 211 129 234.5 98 c 128,-1,37
 258 67 258 67 292 67 c 0,38,39
 333 67 333 67 357 99.5 c 128,-1,40
 381 132 381 132 381 181 c 0,41,42
 381 196 381 196 379.5 218 c 128,-1,43
 378 240 378 240 372 258 c 1,44,-1
 211 177 l 1,35,36
EndSplineSet
EndChar

StartChar: f
Encoding: 102 102 220
Width: 402
GlyphClass: 1
Flags: W
LayerCount: 2
Fore
SplineSet
109 508 m 2,0,1
 109 553 109 553 120 603.5 c 128,-1,2
 131 654 131 654 156.5 698.5 c 128,-1,3
 182 743 182 743 225.5 771.5 c 128,-1,4
 269 800 269 800 335 800 c 0,5,6
 415 800 415 800 453.5 769.5 c 128,-1,7
 492 739 492 739 492 694 c 0,8,9
 492 668 492 668 482 644 c 0,10,11
 479 637 479 637 473.5 632 c 128,-1,12
 468 627 468 627 457 625 c 0,13,14
 439 621 439 621 414.5 615.5 c 128,-1,15
 390 610 390 610 370.5 606 c 128,-1,16
 351 602 351 602 348 602 c 0,17,18
 342 602 342 602 342 611 c 0,19,20
 342 616 342 616 345 622 c 0,21,22
 364 660 364 660 364 688 c 256,23,24
 364 716 364 716 349.5 730.5 c 128,-1,25
 335 745 335 745 317 745 c 0,26,27
 293 745 293 745 275 723 c 0,28,29
 256 701 256 701 249.5 662 c 128,-1,30
 243 623 243 623 243 566 c 2,31,-1
 243 500 l 1,32,-1
 377 500 l 2,33,34
 392 500 392 500 392 485 c 2,35,-1
 392 442 l 2,36,37
 392 427 392 427 377 427 c 2,38,-1
 243 427 l 1,39,-1
 243 155 l 2,40,41
 243 115 243 115 261.5 87.5 c 128,-1,42
 280 60 280 60 317 60 c 0,43,44
 332 60 332 60 332 45 c 2,45,-1
 332 15 l 2,46,47
 332 0 332 0 317 0 c 2,48,-1
 35 0 l 2,49,50
 20 0 20 0 20 15 c 2,51,-1
 20 45 l 2,52,53
 20 60 20 60 35 60 c 0,54,55
 72 60 72 60 90 87.5 c 128,-1,56
 108 115 108 115 108 155 c 2,57,-1
 108 326 l 2,58,59
 108 353 108 353 105 379.5 c 128,-1,60
 102 406 102 406 86.5 423 c 128,-1,61
 71 440 71 440 35 440 c 0,62,63
 20 440 20 440 20 455 c 2,64,-1
 20 485 l 2,65,66
 20 500 20 500 35 500 c 2,67,-1
 109 500 l 1,68,-1
 109 508 l 2,0,1
EndSplineSet
EndChar

StartChar: g
Encoding: 103 103 221
Width: 522
GlyphClass: 2
Flags: W
AnchorPoint: "Anchor-0" 260 500 basechar 0
LayerCount: 2
Fore
SplineSet
506 530 m 2,0,1
 510 531 510 531 514 531 c 0,2,3
 519 531 519 531 519 516 c 0,4,5
 519 467 519 467 500.5 440 c 128,-1,6
 482 413 482 413 448 413 c 1,7,8
 472 373 472 373 472 321 c 0,9,10
 472 268 472 268 445.5 224.5 c 128,-1,11
 419 181 419 181 370 155.5 c 128,-1,12
 321 130 321 130 252 130 c 0,13,14
 182 130 182 130 131 158 c 1,15,16
 118 148 118 148 118 133 c 256,17,18
 118 118 118 118 129 107.5 c 128,-1,19
 140 97 140 97 171.5 90.5 c 128,-1,20
 203 84 203 84 264 81 c 0,21,22
 308 79 308 79 349.5 72 c 128,-1,23
 391 65 391 65 424 49.5 c 128,-1,24
 457 34 457 34 476.5 6 c 128,-1,25
 496 -22 496 -22 496 -67 c 0,26,27
 496 -108 496 -108 474.5 -136.5 c 128,-1,28
 453 -165 453 -165 416.5 -182 c 128,-1,29
 380 -199 380 -199 336 -207 c 128,-1,30
 292 -215 292 -215 247 -215 c 0,31,32
 186 -215 186 -215 134.5 -202 c 128,-1,33
 83 -189 83 -189 51.5 -162 c 128,-1,34
 20 -135 20 -135 20 -93 c 0,35,36
 20 -60 20 -60 37.5 -36.5 c 128,-1,37
 55 -13 55 -13 80 1 c 1,38,39
 29 33 29 33 29 92 c 0,40,41
 29 126 29 126 46.5 150 c 128,-1,42
 64 174 64 174 91 185 c 1,43,44
 32 239 32 239 32 321 c 0,45,46
 32 374 32 374 58.5 417.5 c 128,-1,47
 85 461 85 461 134.5 487 c 128,-1,48
 184 513 184 513 252 513 c 0,49,50
 294 513 294 513 328.5 502.5 c 128,-1,51
 363 492 363 492 390 474 c 0,52,53
 395 471 395 471 398.5 470.5 c 128,-1,54
 402 470 402 470 404 470 c 0,55,56
 412 470 412 470 417 475.5 c 128,-1,57
 422 481 422 481 422 496 c 2,58,-1
 422 499 l 2,59,60
 422 512 422 512 433 514 c 2,61,-1
 506 530 l 2,0,1
252 453 m 256,62,63
 214 453 214 453 192.5 432 c 128,-1,64
 171 411 171 411 162.5 380.5 c 128,-1,65
 154 350 154 350 154 321 c 256,66,67
 154 292 154 292 162.5 261.5 c 128,-1,68
 171 231 171 231 192.5 210 c 128,-1,69
 214 189 214 189 252 189 c 256,70,71
 290 189 290 189 309.5 210 c 128,-1,72
 329 231 329 231 336 261.5 c 128,-1,73
 343 292 343 292 343 321 c 256,74,75
 343 350 343 350 336 380.5 c 128,-1,76
 329 411 329 411 309.5 432 c 128,-1,77
 290 453 290 453 252 453 c 256,62,63
248 -146 m 0,78,79
 322 -146 322 -146 361.5 -132 c 128,-1,80
 401 -118 401 -118 401 -95 c 0,81,82
 401 -63 401 -63 359 -52.5 c 128,-1,83
 317 -42 317 -42 241 -38 c 0,84,85
 187 -35 187 -35 148 -26 c 1,86,87
 120 -45 120 -45 120 -79 c 0,88,89
 120 -94 120 -94 131 -109.5 c 128,-1,90
 142 -125 142 -125 170 -135.5 c 128,-1,91
 198 -146 198 -146 248 -146 c 0,78,79
EndSplineSet
EndChar

StartChar: uni0123
Encoding: 291 291 225
Width: 522
GlyphClass: 2
Flags: W
AnchorPoint: "Anchor-0" 260 500 basechar 0
LayerCount: 2
Fore
SplineSet
506 530 m 2,0,1
 510 531 510 531 514 531 c 0,2,3
 519 531 519 531 519 516 c 0,4,5
 519 467 519 467 500.5 440 c 128,-1,6
 482 413 482 413 448 413 c 1,7,8
 472 373 472 373 472 321 c 0,9,10
 472 268 472 268 445.5 224.5 c 128,-1,11
 419 181 419 181 370 155.5 c 128,-1,12
 321 130 321 130 252 130 c 0,13,14
 182 130 182 130 131 158 c 1,15,16
 118 148 118 148 118 133 c 256,17,18
 118 118 118 118 129 107.5 c 128,-1,19
 140 97 140 97 171.5 90.5 c 128,-1,20
 203 84 203 84 264 81 c 0,21,22
 308 79 308 79 349.5 72 c 128,-1,23
 391 65 391 65 424 49.5 c 128,-1,24
 457 34 457 34 476.5 6 c 128,-1,25
 496 -22 496 -22 496 -67 c 0,26,27
 496 -108 496 -108 474.5 -136.5 c 128,-1,28
 453 -165 453 -165 416.5 -182 c 128,-1,29
 380 -199 380 -199 336 -207 c 128,-1,30
 292 -215 292 -215 247 -215 c 0,31,32
 186 -215 186 -215 134.5 -202 c 128,-1,33
 83 -189 83 -189 51.5 -162 c 128,-1,34
 20 -135 20 -135 20 -93 c 0,35,36
 20 -60 20 -60 37.5 -36.5 c 128,-1,37
 55 -13 55 -13 80 1 c 1,38,39
 29 33 29 33 29 92 c 0,40,41
 29 126 29 126 46.5 150 c 128,-1,42
 64 174 64 174 91 185 c 1,43,44
 32 239 32 239 32 321 c 0,45,46
 32 374 32 374 58.5 417.5 c 128,-1,47
 85 461 85 461 134.5 487 c 128,-1,48
 184 513 184 513 252 513 c 0,49,50
 294 513 294 513 328.5 502.5 c 128,-1,51
 363 492 363 492 390 474 c 0,52,53
 395 471 395 471 398.5 470.5 c 128,-1,54
 402 470 402 470 404 470 c 0,55,56
 412 470 412 470 417 475.5 c 128,-1,57
 422 481 422 481 422 496 c 2,58,-1
 422 499 l 2,59,60
 422 512 422 512 433 514 c 2,61,-1
 506 530 l 2,0,1
252 453 m 256,62,63
 214 453 214 453 192.5 432 c 128,-1,64
 171 411 171 411 162.5 380.5 c 128,-1,65
 154 350 154 350 154 321 c 256,66,67
 154 292 154 292 162.5 261.5 c 128,-1,68
 171 231 171 231 192.5 210 c 128,-1,69
 214 189 214 189 252 189 c 256,70,71
 290 189 290 189 309.5 210 c 128,-1,72
 329 231 329 231 336 261.5 c 128,-1,73
 343 292 343 292 343 321 c 256,74,75
 343 350 343 350 336 380.5 c 128,-1,76
 329 411 329 411 309.5 432 c 128,-1,77
 290 453 290 453 252 453 c 256,62,63
248 -146 m 0,78,79
 322 -146 322 -146 361.5 -132 c 128,-1,80
 401 -118 401 -118 401 -95 c 0,81,82
 401 -63 401 -63 359 -52.5 c 128,-1,83
 317 -42 317 -42 241 -38 c 0,84,85
 187 -35 187 -35 148 -26 c 1,86,87
 120 -45 120 -45 120 -79 c 0,88,89
 120 -94 120 -94 131 -109.5 c 128,-1,90
 142 -125 142 -125 170 -135.5 c 128,-1,91
 198 -146 198 -146 248 -146 c 0,78,79
205 608 m 2,92,93
 198 615 198 615 194 624.5 c 128,-1,94
 190 634 190 634 190 648 c 0,95,96
 190 653 190 653 190.5 658 c 128,-1,97
 191 663 191 663 192 669 c 0,98,99
 197 690 197 690 213.5 713.5 c 128,-1,100
 230 737 230 737 250.5 757.5 c 128,-1,101
 271 778 271 778 288.5 791 c 128,-1,102
 306 804 306 804 312 804 c 0,103,104
 315 804 315 804 319.5 802 c 128,-1,105
 324 800 324 800 340 793 c 1,106,107
 314 773 314 773 298.5 749 c 128,-1,108
 283 725 283 725 283 708 c 0,109,110
 283 699 283 699 290 692 c 2,111,-1
 318 664 l 2,112,113
 331 649 331 649 331 636 c 256,114,115
 331 623 331 623 318 608 c 2,116,-1
 290 580 l 2,117,118
 276 566 276 566 261 566 c 0,119,120
 249 566 249 566 233 580 c 2,121,-1
 205 608 l 2,92,93
EndSplineSet
EndChar

StartChar: h
Encoding: 104 104 228
Width: 681
GlyphClass: 2
Flags: W
AnchorPoint: "Anchor-1" 351 0 basechar 0
LayerCount: 2
Fore
SplineSet
656 60 m 2,0,1
 671 60 671 60 671 45 c 2,2,-1
 671 15 l 2,3,4
 671 0 671 0 656 0 c 2,5,-1
 384 0 l 2,6,7
 369 0 369 0 369 15 c 2,8,-1
 369 45 l 2,9,10
 369 60 369 60 384 60 c 2,11,-1
 387 60 l 2,12,13
 415 60 415 60 427 87.5 c 128,-1,14
 439 115 439 115 439 155 c 2,15,-1
 439 326 l 2,16,17
 439 376 439 376 426 400.5 c 128,-1,18
 413 425 413 425 367 425 c 0,19,20
 330 425 330 425 294.5 403 c 128,-1,21
 259 381 259 381 245 349 c 1,22,-1
 245 155 l 2,23,24
 245 115 245 115 263.5 87.5 c 128,-1,25
 282 60 282 60 319 60 c 2,26,-1
 321 60 l 2,27,28
 336 60 336 60 336 45 c 2,29,-1
 336 15 l 2,30,31
 336 0 336 0 321 0 c 2,32,-1
 30 0 l 2,33,34
 15 0 15 0 15 15 c 2,35,-1
 15 45 l 2,36,37
 15 60 15 60 30 60 c 2,38,-1
 32 60 l 2,39,40
 69 60 69 60 87 87.5 c 128,-1,41
 105 115 105 115 105 155 c 2,42,-1
 105 530 l 2,43,44
 105 557 105 557 101.5 582 c 128,-1,45
 98 607 98 607 86 624.5 c 128,-1,46
 74 642 74 642 46 645 c 0,47,48
 34 646 34 646 34 658 c 2,49,-1
 34 692 l 2,50,51
 34 698 34 698 37.5 700.5 c 128,-1,52
 41 703 41 703 48 705 c 0,53,54
 95 721 95 721 143.5 743 c 128,-1,55
 192 765 192 765 236 798 c 0,56,57
 239 800 239 800 241 800 c 2,58,-1
 242 800 l 2,59,60
 244 800 244 800 244 798 c 2,61,-1
 244 414 l 1,62,63
 253 432 253 432 274.5 455 c 128,-1,64
 296 478 296 478 330 495.5 c 128,-1,65
 364 513 364 513 410 513 c 0,66,67
 457 513 457 513 495.5 498 c 128,-1,68
 534 483 534 483 557 445.5 c 128,-1,69
 580 408 580 408 580 340 c 2,70,-1
 580 155 l 2,71,72
 580 115 580 115 598 87.5 c 128,-1,73
 616 60 616 60 653 60 c 2,74,-1
 656 60 l 2,0,1
EndSplineSet
EndChar

StartChar: hbar
Encoding: 295 295 229
Width: 681
GlyphClass: 2
Flags: W
AnchorPoint: "Anchor-1" 351 0 basechar 0
LayerCount: 2
Fore
SplineSet
656 60 m 2,0,1
 671 60 671 60 671 45 c 2,2,-1
 671 15 l 2,3,4
 671 0 671 0 656 0 c 2,5,-1
 384 0 l 2,6,7
 369 0 369 0 369 15 c 2,8,-1
 369 45 l 2,9,10
 369 60 369 60 384 60 c 2,11,-1
 387 60 l 2,12,13
 415 60 415 60 427 87.5 c 128,-1,14
 439 115 439 115 439 155 c 2,15,-1
 439 326 l 2,16,17
 439 376 439 376 426 400.5 c 128,-1,18
 413 425 413 425 367 425 c 0,19,20
 330 425 330 425 294.5 403 c 128,-1,21
 259 381 259 381 245 349 c 1,22,-1
 245 155 l 2,23,24
 245 115 245 115 263.5 87.5 c 128,-1,25
 282 60 282 60 319 60 c 2,26,-1
 321 60 l 2,27,28
 336 60 336 60 336 45 c 2,29,-1
 336 15 l 2,30,31
 336 0 336 0 321 0 c 2,32,-1
 30 0 l 2,33,34
 15 0 15 0 15 15 c 2,35,-1
 15 45 l 2,36,37
 15 60 15 60 30 60 c 2,38,-1
 32 60 l 2,39,40
 69 60 69 60 87 87.5 c 128,-1,41
 105 115 105 115 105 155 c 2,42,-1
 105 525 l 1,43,-1
 54 525 l 2,44,45
 39 525 39 525 39 540 c 2,46,-1
 39 580 l 2,47,48
 39 595 39 595 54 595 c 2,49,-1
 99 595 l 1,50,51
 94 615 94 615 82 628.5 c 128,-1,52
 70 642 70 642 46 645 c 0,53,54
 34 646 34 646 34 658 c 2,55,-1
 34 692 l 2,56,57
 34 698 34 698 37.5 700.5 c 128,-1,58
 41 703 41 703 48 705 c 0,59,60
 95 721 95 721 143.5 743 c 128,-1,61
 192 765 192 765 236 798 c 0,62,63
 239 800 239 800 241 800 c 2,64,-1
 242 800 l 2,65,66
 244 800 244 800 244 798 c 2,67,-1
 244 595 l 1,68,-1
 344 595 l 2,69,70
 359 595 359 595 359 580 c 2,71,-1
 359 540 l 2,72,73
 359 525 359 525 344 525 c 2,74,-1
 244 525 l 1,75,-1
 244 414 l 1,76,77
 253 432 253 432 274.5 455 c 128,-1,78
 296 478 296 478 330 495.5 c 128,-1,79
 364 513 364 513 410 513 c 0,80,81
 457 513 457 513 495.5 498 c 128,-1,82
 534 483 534 483 557 445.5 c 128,-1,83
 580 408 580 408 580 340 c 2,84,-1
 580 155 l 2,85,86
 580 115 580 115 598 87.5 c 128,-1,87
 616 60 616 60 653 60 c 2,88,-1
 656 60 l 2,0,1
EndSplineSet
EndChar

StartChar: dotlessi
Encoding: 305 305 234
Width: 347
GlyphClass: 2
Flags: W
AnchorPoint: "Anchor-2" 315 0 basechar 0
AnchorPoint: "Anchor-1" 174 0 basechar 0
AnchorPoint: "Anchor-0" 174 500 basechar 0
LayerCount: 2
Fore
SplineSet
317 60 m 2,0,1
 332 60 332 60 332 45 c 2,2,-1
 332 15 l 2,3,4
 332 0 332 0 315 0 c 2,5,-1
 32 0 l 2,6,7
 15 0 15 0 15 15 c 2,8,-1
 15 45 l 2,9,10
 15 60 15 60 30 60 c 2,11,-1
 32 60 l 2,12,13
 69 60 69 60 86.5 87.5 c 128,-1,14
 104 115 104 115 104 155 c 2,15,-1
 104 261 l 2,16,17
 104 284 104 284 100.5 307 c 128,-1,18
 97 330 97 330 85 347 c 128,-1,19
 73 364 73 364 45 367 c 0,20,21
 33 368 33 368 33 380 c 2,22,-1
 33 414 l 2,23,24
 33 420 33 420 37 422.5 c 128,-1,25
 41 425 41 425 48 427 c 0,26,27
 127 453 127 453 169.5 480.5 c 128,-1,28
 212 508 212 508 232 529 c 0,29,30
 234 531 234 531 236 531 c 2,31,-1
 239 531 l 2,32,33
 241 531 241 531 241 529 c 2,34,-1
 241 156 l 2,35,36
 241 116 241 116 259 88 c 128,-1,37
 277 60 277 60 314 60 c 2,38,-1
 317 60 l 2,0,1
EndSplineSet
EndChar

StartChar: uni0237
Encoding: 567 567 248
Width: 303
GlyphClass: 2
Flags: W
AnchorPoint: "Anchor-0" 174 500 basechar 0
LayerCount: 2
Fore
SplineSet
107 261 m 2,0,1
 107 284 107 284 103.5 307 c 128,-1,2
 100 330 100 330 88 347 c 128,-1,3
 76 364 76 364 48 367 c 0,4,5
 36 368 36 368 36 380 c 2,6,-1
 36 414 l 2,7,8
 36 420 36 420 40 422.5 c 128,-1,9
 44 425 44 425 51 427 c 0,10,11
 130 453 130 453 172.5 480.5 c 128,-1,12
 215 508 215 508 235 529 c 0,13,14
 237 531 237 531 239 531 c 2,15,-1
 242 531 l 2,16,17
 244 531 244 531 244 529 c 2,18,-1
 244 62 l 2,19,20
 244 16 244 16 236 -32.5 c 128,-1,21
 228 -81 228 -81 206 -122.5 c 128,-1,22
 184 -164 184 -164 143.5 -189 c 128,-1,23
 103 -214 103 -214 37 -214 c 0,24,25
 -9 -214 -9 -214 -40.5 -201.5 c 128,-1,26
 -72 -189 -72 -189 -90.5 -172 c 128,-1,27
 -109 -155 -109 -155 -117 -139 c 128,-1,28
 -125 -123 -125 -123 -125 -116 c 0,29,30
 -125 -103 -125 -103 -114 -95 c 2,31,-1
 -50 -49 l 2,32,33
 -40 -42 -40 -42 -36 -42 c 256,34,35
 -32 -42 -32 -42 -28.5 -45 c 128,-1,36
 -25 -48 -25 -48 -25 -56 c 0,37,38
 -25 -80 -25 -80 -19 -103.5 c 128,-1,39
 -13 -127 -13 -127 2 -142.5 c 128,-1,40
 17 -158 17 -158 44 -158 c 0,41,42
 75 -158 75 -158 88 -137 c 128,-1,43
 101 -116 101 -116 104 -81 c 128,-1,44
 107 -46 107 -46 107 -5 c 2,45,-1
 107 261 l 2,0,1
EndSplineSet
EndChar

StartChar: k
Encoding: 107 107 251
Width: 631
GlyphClass: 2
Flags: W
AnchorPoint: "Anchor-1" 329 0 basechar 0
LayerCount: 2
Fore
SplineSet
611 60 m 2,0,1
 624 60 624 60 624 45 c 2,2,-1
 624 15 l 2,3,4
 624 0 624 0 609 0 c 2,5,-1
 364 0 l 2,6,7
 349 0 349 0 349 15 c 2,8,-1
 349 46 l 2,9,10
 349 60 349 60 362 60 c 2,11,-1
 377 60 l 2,12,13
 387 60 387 60 395.5 64 c 128,-1,14
 404 68 404 68 404 75 c 256,15,16
 404 82 404 82 396 90 c 2,17,-1
 264 233 l 1,18,-1
 243 214 l 1,19,-1
 243 155 l 2,20,21
 243 116 243 116 246.5 95.5 c 128,-1,22
 250 75 250 75 261.5 67.5 c 128,-1,23
 273 60 273 60 297 60 c 0,24,25
 312 60 312 60 312 45 c 2,26,-1
 312 15 l 2,27,28
 312 0 312 0 297 0 c 2,29,-1
 30 0 l 2,30,31
 15 0 15 0 15 15 c 2,32,-1
 15 45 l 2,33,34
 15 60 15 60 30 60 c 0,35,36
 67 60 67 60 85 87.5 c 128,-1,37
 103 115 103 115 103 155 c 2,38,-1
 103 530 l 2,39,40
 103 557 103 557 99.5 582 c 128,-1,41
 96 607 96 607 83.5 624.5 c 128,-1,42
 71 642 71 642 43 645 c 0,43,44
 32 646 32 646 32 658 c 2,45,-1
 32 692 l 2,46,47
 32 698 32 698 35.5 700.5 c 128,-1,48
 39 703 39 703 46 705 c 0,49,50
 126 731 126 731 170 757 c 128,-1,51
 214 783 214 783 234 798 c 0,52,53
 237 800 237 800 239 800 c 2,54,-1
 241 800 l 2,55,56
 243 800 243 800 243 798 c 2,57,-1
 243 302 l 1,58,-1
 365 413 l 2,59,60
 373 421 373 421 373 427 c 0,61,62
 373 440 373 440 353 440 c 2,63,-1
 323 440 l 2,64,65
 310 440 310 440 310 455 c 2,66,-1
 310 485 l 2,67,68
 310 500 310 500 325 500 c 2,69,-1
 547 500 l 2,70,71
 562 500 562 500 562 485 c 2,72,-1
 562 455 l 2,73,74
 562 440 562 440 549 440 c 2,75,-1
 537 440 l 2,76,77
 508 440 508 440 485.5 425 c 128,-1,78
 463 410 463 410 424 375 c 2,79,-1
 347 306 l 1,80,-1
 561 91 l 2,81,82
 578 74 578 74 588 67 c 128,-1,83
 598 60 598 60 608 60 c 2,84,-1
 611 60 l 2,0,1
EndSplineSet
EndChar

StartChar: kgreenlandic
Encoding: 312 312 253
Width: 631
GlyphClass: 1
Flags: W
LayerCount: 2
Fore
SplineSet
243 155 m 2,0,1
 243 116 243 116 246.5 95.5 c 128,-1,2
 250 75 250 75 261.5 67.5 c 128,-1,3
 273 60 273 60 297 60 c 0,4,5
 312 60 312 60 312 45 c 2,6,-1
 312 15 l 2,7,8
 312 0 312 0 297 0 c 2,9,-1
 30 0 l 2,10,11
 15 0 15 0 15 15 c 2,12,-1
 15 45 l 2,13,14
 15 60 15 60 30 60 c 0,15,16
 67 60 67 60 85 87.5 c 128,-1,17
 103 115 103 115 103 155 c 2,18,-1
 103 345 l 2,19,20
 103 386 103 386 85 413 c 128,-1,21
 67 440 67 440 30 440 c 0,22,23
 15 440 15 440 15 455 c 2,24,-1
 15 485 l 2,25,26
 15 500 15 500 30 500 c 2,27,-1
 297 500 l 2,28,29
 312 500 312 500 312 485 c 2,30,-1
 312 455 l 2,31,32
 312 440 312 440 297 440 c 0,33,34
 273 440 273 440 261.5 432.5 c 128,-1,35
 250 425 250 425 246.5 404.5 c 128,-1,36
 243 384 243 384 243 345 c 2,37,-1
 243 264 l 1,38,-1
 405 413 l 2,39,40
 413 421 413 421 413 427 c 0,41,42
 413 440 413 440 393 440 c 2,43,-1
 363 440 l 2,44,45
 350 440 350 440 350 455 c 2,46,-1
 350 485 l 2,47,48
 350 500 350 500 365 500 c 2,49,-1
 587 500 l 2,50,51
 602 500 602 500 602 485 c 2,52,-1
 602 455 l 2,53,54
 602 440 602 440 589 440 c 2,55,-1
 577 440 l 2,56,57
 548 440 548 440 525.5 425 c 128,-1,58
 503 410 503 410 464 375 c 2,59,-1
 366 287 l 1,60,-1
 561 91 l 2,61,62
 578 74 578 74 588 67 c 128,-1,63
 598 60 598 60 608 60 c 2,64,-1
 611 60 l 2,65,66
 624 60 624 60 624 45 c 2,67,-1
 624 15 l 2,68,69
 624 0 624 0 609 0 c 2,70,-1
 364 0 l 2,71,72
 349 0 349 0 349 15 c 2,73,-1
 349 46 l 2,74,75
 349 60 349 60 362 60 c 2,76,-1
 377 60 l 2,77,78
 387 60 387 60 395.5 64 c 128,-1,79
 404 68 404 68 404 75 c 256,80,81
 404 82 404 82 396 90 c 2,82,-1
 283 212 l 1,83,-1
 243 176 l 1,84,-1
 243 155 l 2,0,1
EndSplineSet
EndChar

StartChar: l
Encoding: 108 108 254
Width: 347
GlyphClass: 2
Flags: W
AnchorPoint: "Anchor-1" 172 0 basechar 0
AnchorPoint: "Anchor-0" 174 782 basechar 0
LayerCount: 2
Fore
SplineSet
317 60 m 2,0,1
 332 60 332 60 332 45 c 2,2,-1
 332 15 l 2,3,4
 332 0 332 0 315 0 c 2,5,-1
 32 0 l 2,6,7
 15 0 15 0 15 15 c 2,8,-1
 15 45 l 2,9,10
 15 60 15 60 30 60 c 2,11,-1
 32 60 l 2,12,13
 69 60 69 60 86.5 87.5 c 128,-1,14
 104 115 104 115 104 155 c 2,15,-1
 104 530 l 2,16,17
 104 558 104 558 100.5 583 c 128,-1,18
 97 608 97 608 85 625.5 c 128,-1,19
 73 643 73 643 45 646 c 0,20,21
 33 647 33 647 33 659 c 2,22,-1
 33 693 l 2,23,24
 33 699 33 699 37 701 c 128,-1,25
 41 703 41 703 48 706 c 0,26,27
 119 732 119 732 161.5 754.5 c 128,-1,28
 204 777 204 777 232 798 c 0,29,30
 234 800 234 800 236 800 c 2,31,-1
 239 800 l 2,32,33
 241 800 241 800 241 798 c 2,34,-1
 241 156 l 2,35,36
 241 116 241 116 259 88 c 128,-1,37
 277 60 277 60 314 60 c 2,38,-1
 317 60 l 2,0,1
EndSplineSet
EndChar

StartChar: lslash
Encoding: 322 322 261
Width: 445
GlyphClass: 2
Flags: W
AnchorPoint: "Anchor-1" 220 0 basechar 0
AnchorPoint: "Anchor-0" 222 782 basechar 0
LayerCount: 2
Fore
SplineSet
365 60 m 2,0,1
 380 60 380 60 380 45 c 2,2,-1
 380 15 l 2,3,4
 380 0 380 0 363 0 c 2,5,-1
 80 0 l 2,6,7
 63 0 63 0 63 15 c 2,8,-1
 63 45 l 2,9,10
 63 60 63 60 78 60 c 2,11,-1
 80 60 l 2,12,13
 117 60 117 60 134.5 87.5 c 128,-1,14
 152 115 152 115 152 155 c 2,15,-1
 152 332 l 1,16,-1
 40 290 l 2,17,18
 36 288 36 288 34 288 c 0,19,20
 23 288 23 288 23 302 c 2,21,-1
 23 382 l 2,22,23
 23 395 23 395 34 399 c 2,24,-1
 152 443 l 1,25,-1
 152 530 l 2,26,27
 152 558 152 558 148.5 583 c 128,-1,28
 145 608 145 608 133 625.5 c 128,-1,29
 121 643 121 643 93 646 c 0,30,31
 81 647 81 647 81 659 c 2,32,-1
 81 693 l 2,33,34
 81 699 81 699 85 701 c 128,-1,35
 89 703 89 703 96 706 c 0,36,37
 167 732 167 732 209.5 754.5 c 128,-1,38
 252 777 252 777 280 798 c 0,39,40
 282 800 282 800 284 800 c 2,41,-1
 287 800 l 2,42,43
 289 800 289 800 289 798 c 2,44,-1
 289 495 l 1,45,-1
 406 539 l 2,46,47
 408 540 408 540 412 540 c 0,48,49
 423 540 423 540 423 527 c 2,50,-1
 423 447 l 2,51,52
 423 434 423 434 412 430 c 2,53,-1
 289 384 l 1,54,-1
 289 156 l 2,55,56
 289 116 289 116 307 88 c 128,-1,57
 325 60 325 60 362 60 c 2,58,-1
 365 60 l 2,0,1
EndSplineSet
EndChar

StartChar: m
Encoding: 109 109 262
Width: 1036
GlyphClass: 2
Flags: W
AnchorPoint: "Anchor-1" 509 0 basechar 0
LayerCount: 2
Fore
SplineSet
1006 60 m 2,0,1
 1021 60 1021 60 1021 45 c 2,2,-1
 1021 15 l 2,3,4
 1021 0 1021 0 1006 0 c 2,5,-1
 724 0 l 2,6,7
 709 0 709 0 709 15 c 2,8,-1
 709 45 l 2,9,10
 709 60 709 60 724 60 c 2,11,-1
 729 60 l 2,12,13
 761 60 761 60 771 83.5 c 128,-1,14
 781 107 781 107 781 155 c 2,15,-1
 781 326 l 2,16,17
 781 353 781 353 776.5 375.5 c 128,-1,18
 772 398 772 398 756.5 411.5 c 128,-1,19
 741 425 741 425 709 425 c 0,20,21
 666 425 666 425 633.5 398 c 128,-1,22
 601 371 601 371 579 330 c 1,23,-1
 579 155 l 2,24,25
 579 100 579 100 596.5 80 c 128,-1,26
 614 60 614 60 643 60 c 2,27,-1
 651 60 l 2,28,29
 666 60 666 60 666 45 c 2,30,-1
 666 15 l 2,31,32
 666 0 666 0 651 0 c 2,33,-1
 379 0 l 2,34,35
 364 0 364 0 364 15 c 2,36,-1
 364 45 l 2,37,38
 364 60 364 60 379 60 c 2,39,-1
 386 60 l 2,40,41
 407 60 407 60 423 80 c 128,-1,42
 439 100 439 100 439 155 c 2,43,-1
 439 326 l 2,44,45
 439 374 439 374 426.5 399.5 c 128,-1,46
 414 425 414 425 367 425 c 0,47,48
 342 425 342 425 317 412.5 c 128,-1,49
 292 400 292 400 273 380.5 c 128,-1,50
 254 361 254 361 245 339 c 1,51,-1
 245 155 l 2,52,53
 245 115 245 115 262.5 87.5 c 128,-1,54
 280 60 280 60 309 60 c 2,55,-1
 311 60 l 2,56,57
 326 60 326 60 326 45 c 2,58,-1
 326 15 l 2,59,60
 326 0 326 0 311 0 c 2,61,-1
 30 0 l 2,62,63
 15 0 15 0 15 15 c 2,64,-1
 15 45 l 2,65,66
 15 60 15 60 30 60 c 2,67,-1
 32 60 l 2,68,69
 69 60 69 60 87 87.5 c 128,-1,70
 105 115 105 115 105 155 c 2,71,-1
 105 281 l 2,72,73
 105 308 105 308 101.5 333 c 128,-1,74
 98 358 98 358 85.5 375.5 c 128,-1,75
 73 393 73 393 45 396 c 0,76,77
 34 397 34 397 34 409 c 2,78,-1
 34 443 l 2,79,80
 34 453 34 453 48 456 c 0,81,82
 120 467 120 467 171.5 490 c 128,-1,83
 223 513 223 513 243 527 c 0,84,85
 248 531 248 531 251 531 c 2,86,-1
 252 531 l 2,87,88
 254 531 254 531 254 529 c 256,89,90
 254 527 254 527 253 521 c 2,91,-1
 236 398 l 1,92,93
 250 421 250 421 273 447.5 c 128,-1,94
 296 474 296 474 330 493.5 c 128,-1,95
 364 513 364 513 409 513 c 0,96,97
 483 513 483 513 519 485.5 c 128,-1,98
 555 458 555 458 568 415 c 1,99,100
 602 459 602 459 647.5 486 c 128,-1,101
 693 513 693 513 752 513 c 0,102,103
 806 513 806 513 839.5 496.5 c 128,-1,104
 873 480 873 480 891 452.5 c 128,-1,105
 909 425 909 425 915.5 390.5 c 128,-1,106
 922 356 922 356 922 320 c 2,107,-1
 922 155 l 2,108,109
 922 115 922 115 940.5 87.5 c 128,-1,110
 959 60 959 60 995 60 c 2,111,-1
 1006 60 l 2,0,1
EndSplineSet
EndChar

StartChar: n
Encoding: 110 110 264
Width: 681
GlyphClass: 2
Flags: W
AnchorPoint: "Anchor-1" 348 0 basechar 0
AnchorPoint: "Anchor-0" 342 500 basechar 0
LayerCount: 2
Fore
SplineSet
579 326 m 2,0,-1
 579 155 l 2,1,2
 579 100 579 100 596.5 80 c 128,-1,3
 614 60 614 60 643 60 c 2,4,-1
 651 60 l 2,5,6
 666 60 666 60 666 45 c 2,7,-1
 666 15 l 2,8,9
 666 0 666 0 651 0 c 2,10,-1
 385 0 l 2,11,12
 370 0 370 0 370 15 c 2,13,-1
 370 45 l 2,14,15
 370 60 370 60 385 60 c 2,16,-1
 392 60 l 2,17,18
 413 60 413 60 426 80 c 128,-1,19
 439 100 439 100 439 155 c 2,20,-1
 439 326 l 2,21,22
 439 374 439 374 424 399.5 c 128,-1,23
 409 425 409 425 367 425 c 0,24,25
 342 425 342 425 317 412.5 c 128,-1,26
 292 400 292 400 273 380.5 c 128,-1,27
 254 361 254 361 245 339 c 1,28,-1
 245 155 l 2,29,30
 245 115 245 115 262.5 87.5 c 128,-1,31
 280 60 280 60 309 60 c 2,32,-1
 311 60 l 2,33,34
 326 60 326 60 326 45 c 2,35,-1
 326 15 l 2,36,37
 326 0 326 0 311 0 c 2,38,-1
 30 0 l 2,39,40
 15 0 15 0 15 15 c 2,41,-1
 15 45 l 2,42,43
 15 60 15 60 30 60 c 2,44,-1
 32 60 l 2,45,46
 69 60 69 60 87 87.5 c 128,-1,47
 105 115 105 115 105 155 c 2,48,-1
 105 281 l 2,49,50
 105 308 105 308 101.5 333 c 128,-1,51
 98 358 98 358 85.5 375.5 c 128,-1,52
 73 393 73 393 45 396 c 0,53,54
 34 397 34 397 34 409 c 2,55,-1
 34 443 l 2,56,57
 34 453 34 453 48 456 c 0,58,59
 120 467 120 467 171.5 490 c 128,-1,60
 223 513 223 513 243 527 c 0,61,62
 248 531 248 531 251 531 c 2,63,-1
 252 531 l 2,64,65
 254 531 254 531 254 529 c 256,66,67
 254 527 254 527 253 521 c 2,68,-1
 236 398 l 1,69,70
 250 421 250 421 273 447.5 c 128,-1,71
 296 474 296 474 330 493.5 c 128,-1,72
 364 513 364 513 409 513 c 0,73,74
 463 513 463 513 497 497 c 128,-1,75
 531 481 531 481 548.5 454 c 128,-1,76
 566 427 566 427 572.5 394 c 128,-1,77
 579 361 579 361 579 326 c 2,0,-1
EndSplineSet
EndChar

StartChar: uni0272
Encoding: 626 626 271
Width: 681
GlyphClass: 2
Flags: W
AnchorPoint: "Anchor-1" 348 0 basechar 0
AnchorPoint: "Anchor-0" 342 500 basechar 0
LayerCount: 2
Fore
SplineSet
245 0 m 2,0,1
 245 -43 245 -43 236.5 -81.5 c 128,-1,2
 228 -120 228 -120 205.5 -150 c 128,-1,3
 183 -180 183 -180 141.5 -197 c 128,-1,4
 100 -214 100 -214 34 -214 c 0,5,6
 27 -214 27 -214 20.5 -214 c 128,-1,7
 14 -214 14 -214 8 -213 c 0,8,9
 -4 -211 -4 -211 0 -200 c 2,10,-1
 11 -162 l 2,11,12
 12 -158 12 -158 15.5 -156 c 128,-1,13
 19 -154 19 -154 23 -156 c 0,14,15
 28 -157 28 -157 32.5 -157.5 c 128,-1,16
 37 -158 37 -158 42 -158 c 0,17,18
 77 -158 77 -158 90 -135.5 c 128,-1,19
 103 -113 103 -113 104 -77 c 128,-1,20
 105 -41 105 -41 105 0 c 2,21,-1
 105 281 l 2,22,23
 105 308 105 308 101.5 333 c 128,-1,24
 98 358 98 358 85.5 375.5 c 128,-1,25
 73 393 73 393 45 396 c 0,26,27
 34 397 34 397 34 409 c 2,28,-1
 34 443 l 2,29,30
 34 453 34 453 48 456 c 0,31,32
 120 467 120 467 171.5 490 c 128,-1,33
 223 513 223 513 243 527 c 0,34,35
 248 531 248 531 251 531 c 2,36,-1
 252 531 l 2,37,38
 254 531 254 531 254 529 c 256,39,40
 254 527 254 527 253 521 c 2,41,-1
 236 398 l 1,42,43
 250 421 250 421 273 447.5 c 128,-1,44
 296 474 296 474 330 493.5 c 128,-1,45
 364 513 364 513 409 513 c 0,46,47
 463 513 463 513 497 497 c 128,-1,48
 531 481 531 481 548.5 454 c 128,-1,49
 566 427 566 427 572.5 394 c 128,-1,50
 579 361 579 361 579 326 c 2,51,-1
 579 155 l 2,52,53
 579 100 579 100 596.5 80 c 128,-1,54
 614 60 614 60 643 60 c 2,55,-1
 651 60 l 2,56,57
 666 60 666 60 666 45 c 2,58,-1
 666 15 l 2,59,60
 666 0 666 0 651 0 c 2,61,-1
 385 0 l 2,62,63
 370 0 370 0 370 15 c 2,64,-1
 370 45 l 2,65,66
 370 60 370 60 385 60 c 2,67,-1
 392 60 l 2,68,69
 413 60 413 60 426 80 c 128,-1,70
 439 100 439 100 439 155 c 2,71,-1
 439 326 l 2,72,73
 439 374 439 374 424 399.5 c 128,-1,74
 409 425 409 425 367 425 c 0,75,76
 342 425 342 425 317 412.5 c 128,-1,77
 292 400 292 400 273 380.5 c 128,-1,78
 254 361 254 361 245 339 c 1,79,-1
 245 0 l 2,0,1
EndSplineSet
EndChar

StartChar: eng
Encoding: 331 331 274
Width: 614
GlyphClass: 1
Flags: W
LayerCount: 2
Fore
SplineSet
579 62 m 2,0,1
 579 16 579 16 570.5 -32.5 c 128,-1,2
 562 -81 562 -81 539.5 -122.5 c 128,-1,3
 517 -164 517 -164 476 -189 c 128,-1,4
 435 -214 435 -214 369 -214 c 0,5,6
 323 -214 323 -214 291.5 -201.5 c 128,-1,7
 260 -189 260 -189 241.5 -172 c 128,-1,8
 223 -155 223 -155 215 -139 c 128,-1,9
 207 -123 207 -123 207 -116 c 0,10,11
 207 -103 207 -103 218 -95 c 2,12,-1
 289 -44 l 2,13,14
 293 -42 293 -42 296 -42 c 0,15,16
 300 -42 300 -42 303.5 -45 c 128,-1,17
 307 -48 307 -48 307 -56 c 0,18,19
 307 -80 307 -80 313 -103.5 c 128,-1,20
 319 -127 319 -127 334 -142.5 c 128,-1,21
 349 -158 349 -158 376 -158 c 0,22,23
 407 -158 407 -158 420 -137 c 128,-1,24
 433 -116 433 -116 436 -81 c 128,-1,25
 439 -46 439 -46 439 -5 c 2,26,-1
 439 306 l 2,27,28
 439 338 439 338 437 365 c 128,-1,29
 435 392 435 392 420 408.5 c 128,-1,30
 405 425 405 425 367 425 c 0,31,32
 342 425 342 425 317 412.5 c 128,-1,33
 292 400 292 400 273 380.5 c 128,-1,34
 254 361 254 361 245 339 c 1,35,-1
 245 155 l 2,36,37
 245 115 245 115 262.5 87.5 c 128,-1,38
 280 60 280 60 309 60 c 2,39,-1
 311 60 l 2,40,41
 326 60 326 60 326 45 c 2,42,-1
 326 15 l 2,43,44
 326 0 326 0 311 0 c 2,45,-1
 30 0 l 2,46,47
 15 0 15 0 15 15 c 2,48,-1
 15 45 l 2,49,50
 15 60 15 60 30 60 c 2,51,-1
 32 60 l 2,52,53
 69 60 69 60 87 87.5 c 128,-1,54
 105 115 105 115 105 155 c 2,55,-1
 105 281 l 2,56,57
 105 308 105 308 101.5 333 c 128,-1,58
 98 358 98 358 85.5 375.5 c 128,-1,59
 73 393 73 393 45 396 c 0,60,61
 34 397 34 397 34 409 c 2,62,-1
 34 443 l 2,63,64
 34 453 34 453 48 456 c 0,65,66
 120 467 120 467 171.5 490 c 128,-1,67
 223 513 223 513 243 527 c 0,68,69
 248 531 248 531 251 531 c 2,70,-1
 252 531 l 2,71,72
 254 531 254 531 254 529 c 0,73,74
 254 528 254 528 253.5 525 c 128,-1,75
 253 522 253 522 251.5 510 c 128,-1,76
 250 498 250 498 246.5 472 c 128,-1,77
 243 446 243 446 236 398 c 1,78,79
 250 421 250 421 273 447.5 c 128,-1,80
 296 474 296 474 330 493.5 c 128,-1,81
 364 513 364 513 409 513 c 0,82,83
 463 513 463 513 497 497 c 128,-1,84
 531 481 531 481 548.5 454 c 128,-1,85
 566 427 566 427 572.5 394 c 128,-1,86
 579 361 579 361 579 326 c 2,87,-1
 579 62 l 2,0,1
EndSplineSet
EndChar

StartChar: o
Encoding: 111 111 275
Width: 574
GlyphClass: 2
Flags: W
AnchorPoint: "Anchor-1" 288 0 basechar 0
AnchorPoint: "Anchor-0" 288 500 basechar 0
LayerCount: 2
Fore
SplineSet
281 513 m 0,0,1
 338 513 338 513 386.5 490.5 c 128,-1,2
 435 468 435 468 470 429.5 c 128,-1,3
 505 391 505 391 524.5 343.5 c 128,-1,4
 544 296 544 296 544 245 c 0,5,6
 544 171 544 171 509 112.5 c 128,-1,7
 474 54 474 54 417 20.5 c 128,-1,8
 360 -13 360 -13 293 -13 c 0,9,10
 236 -13 236 -13 188 9 c 128,-1,11
 140 31 140 31 104.5 68.5 c 128,-1,12
 69 106 69 106 49.5 154.5 c 128,-1,13
 30 203 30 203 30 256 c 0,14,15
 30 329 30 329 64 387 c 128,-1,16
 98 445 98 445 155 479 c 128,-1,17
 212 513 212 513 281 513 c 0,0,1
324 68 m 0,18,19
 343 68 343 68 366 78 c 128,-1,20
 389 88 389 88 406.5 113 c 128,-1,21
 424 138 424 138 424 182 c 0,22,23
 424 217 424 217 410.5 259.5 c 128,-1,24
 397 302 397 302 373.5 341.5 c 128,-1,25
 350 381 350 381 318.5 406.5 c 128,-1,26
 287 432 287 432 250 432 c 0,27,28
 209 432 209 432 179 401.5 c 128,-1,29
 149 371 149 371 149 318 c 0,30,31
 149 284 149 284 162.5 241 c 128,-1,32
 176 198 176 198 199.5 158.5 c 128,-1,33
 223 119 223 119 255 93.5 c 128,-1,34
 287 68 287 68 324 68 c 0,18,19
EndSplineSet
Substitution2: "Single Substitution lookup 21 subtable" ordmasculine
Substitution2: "'aalt' Access All Alternates in Latin lookup 0 subtable" ordmasculine
EndChar

StartChar: oslash
Encoding: 248 248 287
Width: 574
GlyphClass: 2
Flags: W
AnchorPoint: "Anchor-1" 288 0 basechar 0
AnchorPoint: "Anchor-0" 288 500 basechar 0
LayerCount: 2
Fore
SplineSet
130 0 m 2,0,1
 126 -5 126 -5 121.5 -9 c 128,-1,2
 117 -13 117 -13 110 -13 c 2,3,-1
 28 -13 l 2,4,5
 20 -13 20 -13 17 -7.5 c 128,-1,6
 14 -2 14 -2 19 5 c 2,7,-1
 89 86 l 1,8,9
 61 122 61 122 45.5 165.5 c 128,-1,10
 30 209 30 209 30 256 c 0,11,12
 30 329 30 329 64 387 c 128,-1,13
 98 445 98 445 155 479 c 128,-1,14
 212 513 212 513 281 513 c 0,15,16
 320 513 320 513 355.5 502 c 128,-1,17
 391 491 391 491 420 471 c 1,18,-1
 445 500 l 2,19,20
 450 506 450 506 454 509.5 c 128,-1,21
 458 513 458 513 465 513 c 2,22,-1
 548 513 l 2,23,24
 556 513 556 513 558.5 508 c 128,-1,25
 561 503 561 503 555 495 c 2,26,-1
 484 413 l 1,27,28
 513 377 513 377 528.5 333.5 c 128,-1,29
 544 290 544 290 544 245 c 0,30,31
 544 171 544 171 509 112.5 c 128,-1,32
 474 54 474 54 417 20.5 c 128,-1,33
 360 -13 360 -13 293 -13 c 0,34,35
 254 -13 254 -13 219 -2.5 c 128,-1,36
 184 8 184 8 154 28 c 1,37,-1
 130 0 l 2,0,1
149 318 m 0,38,39
 149 261 149 261 181 193 c 1,40,-1
 344 382 l 1,41,42
 324 405 324 405 300 418.5 c 128,-1,43
 276 432 276 432 250 432 c 0,44,45
 209 432 209 432 179 401.5 c 128,-1,46
 149 371 149 371 149 318 c 0,38,39
324 68 m 0,47,48
 343 68 343 68 366 78 c 128,-1,49
 389 88 389 88 406.5 113 c 128,-1,50
 424 138 424 138 424 182 c 0,51,52
 424 239 424 239 393 306 c 1,53,-1
 230 117 l 1,54,55
 251 95 251 95 274.5 81.5 c 128,-1,56
 298 68 298 68 324 68 c 0,47,48
EndSplineSet
EndChar

StartChar: oe
Encoding: 339 339 292
Width: 868
GlyphClass: 1
Flags: W
LayerCount: 2
Fore
SplineSet
281 512 m 0,0,1
 331 512 331 512 374.5 494 c 128,-1,2
 418 476 418 476 452 447 c 1,3,4
 486 480 486 480 530.5 495.5 c 128,-1,5
 575 511 575 511 621 511 c 0,6,7
 671 511 671 511 709 492 c 128,-1,8
 747 473 747 473 773.5 443 c 128,-1,9
 800 413 800 413 813.5 380 c 128,-1,10
 827 347 827 347 827 318 c 0,11,12
 827 310 827 310 818 306 c 2,13,-1
 528 179 l 1,14,15
 545 137 545 137 582.5 104 c 128,-1,16
 620 71 620 71 678 71 c 0,17,18
 710 71 710 71 745 89 c 128,-1,19
 780 107 780 107 806 145 c 0,20,21
 809 150 809 150 814 150 c 256,22,23
 819 150 819 150 824.5 147 c 128,-1,24
 830 144 830 144 854 130 c 0,25,26
 858 127 858 127 858 122 c 0,27,28
 858 115 858 115 852 105 c 0,29,30
 824 53 824 53 776 20.5 c 128,-1,31
 728 -12 728 -12 651 -12 c 0,32,33
 593 -12 593 -12 546 6.5 c 128,-1,34
 499 25 499 25 465 57 c 1,35,36
 431 25 431 25 386 6.5 c 128,-1,37
 341 -12 341 -12 293 -12 c 0,38,39
 236 -12 236 -12 188 9.5 c 128,-1,40
 140 31 140 31 104.5 68.5 c 128,-1,41
 69 106 69 106 49.5 154.5 c 128,-1,42
 30 203 30 203 30 256 c 0,43,44
 30 329 30 329 64 387 c 128,-1,45
 98 445 98 445 155 478.5 c 128,-1,46
 212 512 212 512 281 512 c 0,0,1
149 318 m 0,47,48
 149 284 149 284 162.5 241 c 128,-1,49
 176 198 176 198 199.5 158.5 c 128,-1,50
 223 119 223 119 255 93.5 c 128,-1,51
 287 68 287 68 324 68 c 0,52,53
 343 68 343 68 366 78 c 128,-1,54
 389 88 389 88 406.5 113 c 128,-1,55
 424 138 424 138 424 182 c 0,56,57
 424 217 424 217 410.5 259.5 c 128,-1,58
 397 302 397 302 373.5 341.5 c 128,-1,59
 350 381 350 381 318.5 406.5 c 128,-1,60
 287 432 287 432 250 432 c 0,61,62
 209 432 209 432 179 401.5 c 128,-1,63
 149 371 149 371 149 318 c 0,47,48
507 318 m 0,64,65
 507 303 507 303 508.5 281 c 128,-1,66
 510 259 510 259 516 241 c 1,67,-1
 677 322 l 1,68,69
 677 370 677 370 654 401 c 128,-1,70
 631 432 631 432 596 432 c 0,71,72
 555 432 555 432 531 399.5 c 128,-1,73
 507 367 507 367 507 318 c 0,64,65
EndSplineSet
EndChar

StartChar: p
Encoding: 112 112 293
Width: 631
GlyphClass: 1
Flags: W
LayerCount: 2
Fore
SplineSet
227 422 m 1,0,1
 233 436 233 436 249 457.5 c 128,-1,2
 265 479 265 479 297 496 c 128,-1,3
 329 513 329 513 380 513 c 0,4,5
 414 513 414 513 452 499 c 128,-1,6
 490 485 490 485 524 454 c 128,-1,7
 558 423 558 423 579.5 373 c 128,-1,8
 601 323 601 323 601 250 c 0,9,10
 601 158 601 158 568 99.5 c 128,-1,11
 535 41 535 41 482 14 c 128,-1,12
 429 -13 429 -13 368 -13 c 0,13,14
 292 -13 292 -13 238 35 c 1,15,-1
 238 -45 l 2,16,17
 238 -85 238 -85 256 -112.5 c 128,-1,18
 274 -140 274 -140 311 -140 c 0,19,20
 326 -140 326 -140 326 -155 c 2,21,-1
 326 -185 l 2,22,23
 326 -200 326 -200 311 -200 c 2,24,-1
 25 -200 l 2,25,26
 10 -200 10 -200 10 -185 c 2,27,-1
 10 -155 l 2,28,29
 10 -140 10 -140 26 -140 c 0,30,31
 63 -140 63 -140 80.5 -112.5 c 128,-1,32
 98 -85 98 -85 98 -45 c 2,33,-1
 98 299 l 2,34,35
 98 326 98 326 95 351 c 128,-1,36
 92 376 92 376 79.5 393.5 c 128,-1,37
 67 411 67 411 39 414 c 0,38,39
 32 415 32 415 30 418.5 c 128,-1,40
 28 422 28 422 28 427 c 2,41,-1
 28 461 l 2,42,43
 28 474 28 474 42 474 c 0,44,45
 92 474 92 474 124 478.5 c 128,-1,46
 156 483 156 483 179.5 492 c 128,-1,47
 203 501 203 501 226 512 c 0,48,49
 229 514 229 514 231.5 514 c 128,-1,50
 234 514 234 514 235 514 c 2,51,-1
 236 514 l 2,52,53
 238 514 238 514 238 511 c 0,54,55
 238 510 238 510 237.5 506 c 128,-1,56
 237 502 237 502 235 483.5 c 128,-1,57
 233 465 233 465 227 422 c 1,0,1
238 178 m 1,58,59
 242 147 242 147 255.5 118 c 128,-1,60
 269 89 269 89 293 71 c 128,-1,61
 317 53 317 53 350 53 c 0,62,63
 398 53 398 53 425 77 c 128,-1,64
 452 101 452 101 462.5 139 c 128,-1,65
 473 177 473 177 473 218 c 0,66,67
 473 314 473 314 434.5 370 c 128,-1,68
 396 426 396 426 334 426 c 0,69,70
 294 426 294 426 269.5 403.5 c 128,-1,71
 245 381 245 381 238 360 c 1,72,-1
 238 178 l 1,58,59
EndSplineSet
EndChar

StartChar: thorn
Encoding: 254 254 294
Width: 631
GlyphClass: 1
Flags: W
LayerCount: 2
Fore
SplineSet
227 422 m 1,0,1
 233 436 233 436 249 457.5 c 128,-1,2
 265 479 265 479 297 496.5 c 128,-1,3
 329 514 329 514 380 514 c 0,4,5
 414 514 414 514 452 500 c 128,-1,6
 490 486 490 486 524 455 c 128,-1,7
 558 424 558 424 579.5 373.5 c 128,-1,8
 601 323 601 323 601 250 c 0,9,10
 601 158 601 158 568 100 c 128,-1,11
 535 42 535 42 482 15 c 128,-1,12
 429 -12 429 -12 368 -12 c 0,13,14
 291 -12 291 -12 238 35 c 1,15,-1
 238 -45 l 2,16,17
 238 -85 238 -85 256 -112.5 c 128,-1,18
 274 -140 274 -140 311 -140 c 0,19,20
 326 -140 326 -140 326 -155 c 2,21,-1
 326 -185 l 2,22,23
 326 -200 326 -200 311 -200 c 2,24,-1
 25 -200 l 2,25,26
 10 -200 10 -200 10 -185 c 2,27,-1
 10 -155 l 2,28,29
 10 -140 10 -140 26 -140 c 0,30,31
 63 -140 63 -140 80.5 -112.5 c 128,-1,32
 98 -85 98 -85 98 -45 c 2,33,-1
 98 539 l 2,34,35
 98 566 98 566 95 591 c 128,-1,36
 92 616 92 616 79.5 633.5 c 128,-1,37
 67 651 67 651 39 654 c 0,38,39
 32 655 32 655 30 658.5 c 128,-1,40
 28 662 28 662 28 667 c 2,41,-1
 28 701 l 2,42,43
 28 714 28 714 42 714 c 0,44,45
 92 714 92 714 124.5 719.5 c 128,-1,46
 157 725 157 725 180.5 734 c 128,-1,47
 204 743 204 743 226 753 c 0,48,49
 230 755 230 755 234 755 c 2,50,-1
 236 755 l 2,51,52
 238 755 238 755 238 753 c 2,53,-1
 238 520 l 1,54,-1
 227 422 l 1,0,1
238 178 m 1,55,56
 242 147 242 147 255.5 118 c 128,-1,57
 269 89 269 89 293 71 c 128,-1,58
 317 53 317 53 350 53 c 0,59,60
 398 53 398 53 425 77 c 128,-1,61
 452 101 452 101 462.5 139 c 128,-1,62
 473 177 473 177 473 218 c 0,63,64
 473 314 473 314 434.5 370 c 128,-1,65
 396 426 396 426 334 426 c 0,66,67
 294 426 294 426 269.5 403.5 c 128,-1,68
 245 381 245 381 238 360 c 1,69,-1
 238 178 l 1,55,56
EndSplineSet
EndChar

StartChar: q
Encoding: 113 113 295
Width: 625
GlyphClass: 1
Flags: W
LayerCount: 2
Fore
SplineSet
264 513 m 0,0,1
 312 513 312 513 353 497.5 c 128,-1,2
 394 482 394 482 425 454 c 1,3,4
 467 472 467 472 488 485.5 c 128,-1,5
 509 499 509 499 525 512 c 0,6,7
 529 515 529 515 531 515 c 2,8,-1
 532 515 l 2,9,10
 533 515 533 515 533 513 c 2,11,-1
 533 -45 l 2,12,13
 533 -85 533 -85 550.5 -112.5 c 128,-1,14
 568 -140 568 -140 605 -140 c 0,15,16
 620 -140 620 -140 620 -155 c 2,17,-1
 620 -185 l 2,18,19
 620 -200 620 -200 605 -200 c 2,20,-1
 318 -200 l 2,21,22
 303 -200 303 -200 303 -185 c 2,23,-1
 303 -155 l 2,24,25
 303 -140 303 -140 318 -140 c 2,26,-1
 320 -140 l 2,27,28
 357 -140 357 -140 375 -112.5 c 128,-1,29
 393 -85 393 -85 393 -45 c 2,30,-1
 393 58 l 1,31,32
 384 43 384 43 366 26.5 c 128,-1,33
 348 10 348 10 320.5 -1.5 c 128,-1,34
 293 -13 293 -13 252 -13 c 0,35,36
 218 -13 218 -13 179.5 1 c 128,-1,37
 141 15 141 15 107 46 c 128,-1,38
 73 77 73 77 51.5 127.5 c 128,-1,39
 30 178 30 178 30 251 c 0,40,41
 30 344 30 344 63.5 401.5 c 128,-1,42
 97 459 97 459 150.5 486 c 128,-1,43
 204 513 204 513 264 513 c 0,0,1
282 446 m 0,44,45
 234 446 234 446 207 422.5 c 128,-1,46
 180 399 180 399 169.5 362 c 128,-1,47
 159 325 159 325 159 283 c 0,48,49
 159 187 159 187 197.5 131 c 128,-1,50
 236 75 236 75 297 75 c 0,51,52
 334 75 334 75 354.5 90.5 c 128,-1,53
 375 106 375 106 383.5 122 c 128,-1,54
 392 138 392 138 393 141 c 2,55,-1
 393 270 l 2,56,57
 393 292 393 292 389.5 321.5 c 128,-1,58
 386 351 386 351 374.5 379.5 c 128,-1,59
 363 408 363 408 341 427 c 128,-1,60
 319 446 319 446 282 446 c 0,44,45
EndSplineSet
EndChar

StartChar: r
Encoding: 114 114 296
Width: 530
GlyphClass: 2
Flags: W
AnchorPoint: "Anchor-1" 175 0 basechar 0
AnchorPoint: "Anchor-0" 273 500 basechar 0
LayerCount: 2
Fore
SplineSet
231 395 m 1,0,1
 258 453 258 453 306 483 c 128,-1,2
 354 513 354 513 407 513 c 0,3,4
 454 513 454 513 487 487 c 128,-1,5
 520 461 520 461 520 410 c 0,6,7
 520 388 520 388 516 371 c 128,-1,8
 512 354 512 354 494 346 c 2,9,-1
 400 308 l 2,10,11
 394 306 394 306 391 306 c 0,12,13
 382 306 382 306 382 315 c 0,14,15
 382 318 382 318 384 324 c 0,16,17
 390 338 390 338 391.5 351 c 128,-1,18
 393 364 393 364 393 374 c 0,19,20
 393 401 393 401 379.5 413.5 c 128,-1,21
 366 426 366 426 346 426 c 0,22,23
 323 426 323 426 303 412 c 128,-1,24
 283 398 283 398 268 378 c 128,-1,25
 253 358 253 358 246 339 c 1,26,-1
 246 155 l 2,27,28
 246 115 246 115 264 87.5 c 128,-1,29
 282 60 282 60 319 60 c 2,30,-1
 321 60 l 2,31,32
 336 60 336 60 336 45 c 2,33,-1
 336 15 l 2,34,35
 336 0 336 0 321 0 c 2,36,-1
 30 0 l 2,37,38
 15 0 15 0 15 15 c 2,39,-1
 15 45 l 2,40,41
 15 60 15 60 30 60 c 2,42,-1
 32 60 l 2,43,44
 69 60 69 60 87 87.5 c 128,-1,45
 105 115 105 115 105 155 c 2,46,-1
 105 281 l 2,47,48
 105 308 105 308 101.5 333 c 128,-1,49
 98 358 98 358 86 375.5 c 128,-1,50
 74 393 74 393 46 396 c 0,51,52
 34 397 34 397 34 409 c 2,53,-1
 34 443 l 2,54,55
 34 453 34 453 49 456 c 0,56,57
 120 467 120 467 173.5 491 c 128,-1,58
 227 515 227 515 246 529 c 0,59,60
 249 531 249 531 251 531 c 2,61,-1
 253 531 l 2,62,63
 255 531 255 531 255 529 c 0,64,65
 255 528 255 528 252.5 514 c 128,-1,66
 250 500 250 500 246.5 478.5 c 128,-1,67
 243 457 243 457 238.5 434.5 c 128,-1,68
 234 412 234 412 231 395 c 1,0,1
EndSplineSet
EndChar

StartChar: s
Encoding: 115 115 302
Width: 542
GlyphClass: 2
Flags: W
AnchorPoint: "Anchor-1" 276 0 basechar 0
AnchorPoint: "Anchor-0" 276 500 basechar 0
LayerCount: 2
Fore
SplineSet
452 345 m 2,0,1
 446 342 446 342 442 342 c 0,2,3
 435 342 435 342 429 349 c 0,4,5
 384 406 384 406 335 429 c 128,-1,6
 286 452 286 452 250 452 c 0,7,8
 224 452 224 452 202 441 c 128,-1,9
 180 430 180 430 180 401 c 0,10,11
 180 379 180 379 196.5 364.5 c 128,-1,12
 213 350 213 350 239 341 c 128,-1,13
 265 332 265 332 292 325 c 0,14,15
 331 316 331 316 370.5 304 c 128,-1,16
 410 292 410 292 443 272.5 c 128,-1,17
 476 253 476 253 496.5 224 c 128,-1,18
 517 195 517 195 517 151 c 0,19,20
 517 104 517 104 491.5 67 c 128,-1,21
 466 30 466 30 419 8.5 c 128,-1,22
 372 -13 372 -13 307 -13 c 0,23,24
 276 -13 276 -13 246.5 -5.5 c 128,-1,25
 217 2 217 2 191 14 c 0,26,27
 185 17 185 17 182 17 c 0,28,29
 175 17 175 17 175 10 c 0,30,31
 175 8 175 8 177 2 c 256,32,33
 179 -4 179 -4 179 -6 c 0,34,35
 179 -14 179 -14 167 -14 c 2,36,-1
 131 -14 l 2,37,38
 120 -14 120 -14 114 -4 c 2,39,-1
 28 157 l 2,40,41
 25 163 25 163 25 166 c 0,42,43
 25 173 25 173 33 178 c 2,44,-1
 64 196 l 2,45,46
 70 199 70 199 73 199 c 0,47,48
 79 199 79 199 84 190 c 0,49,50
 133 117 133 117 191.5 86 c 128,-1,51
 250 55 250 55 311 55 c 0,52,53
 407 55 407 55 407 112 c 0,54,55
 407 138 407 138 383.5 155 c 128,-1,56
 360 172 360 172 325.5 183 c 128,-1,57
 291 194 291 194 256 202 c 0,58,59
 192 218 192 218 154 238.5 c 128,-1,60
 116 259 116 259 97 282.5 c 128,-1,61
 78 306 78 306 71.5 329.5 c 128,-1,62
 65 353 65 353 65 375 c 0,63,64
 65 435 65 435 111 474 c 128,-1,65
 157 513 157 513 236 513 c 0,66,67
 283 513 283 513 319 500.5 c 128,-1,68
 355 488 355 488 369 480 c 0,69,70
 373 478 373 478 375 478 c 0,71,72
 378 478 378 478 378 482 c 0,73,74
 378 485 378 485 375 494 c 0,75,76
 374 499 374 499 373.5 501.5 c 128,-1,77
 373 504 373 504 373 506 c 0,78,79
 373 516 373 516 386 516 c 2,80,-1
 412 516 l 2,81,82
 425 516 425 516 429 505 c 2,83,-1
 479 378 l 2,84,85
 482 372 482 372 482 368 c 0,86,87
 482 361 482 361 474 357 c 2,88,-1
 452 345 l 2,0,1
EndSplineSet
EndChar

StartChar: germandbls
Encoding: 223 223 313
Width: 702
GlyphClass: 1
Flags: W
LayerCount: 2
Fore
SplineSet
440 430 m 0,0,1
 440 421 440 421 457 414 c 128,-1,2
 474 407 474 407 500 398 c 128,-1,3
 526 389 526 389 556 375.5 c 128,-1,4
 586 362 586 362 612 339.5 c 128,-1,5
 638 317 638 317 655 282.5 c 128,-1,6
 672 248 672 248 672 197 c 0,7,8
 672 135 672 135 645.5 87.5 c 128,-1,9
 619 40 619 40 572.5 13.5 c 128,-1,10
 526 -13 526 -13 465 -13 c 0,11,12
 421 -13 421 -13 382.5 3.5 c 128,-1,13
 344 20 344 20 312 41 c 0,14,15
 303 47 303 47 303 56 c 2,16,-1
 303 120 l 2,17,18
 303 132 303 132 314 132 c 0,19,20
 319 132 319 132 323 129 c 0,21,22
 350 110 350 110 380 98.5 c 128,-1,23
 410 87 410 87 438 87 c 0,24,25
 482 87 482 87 504 119 c 128,-1,26
 526 151 526 151 526 197 c 0,27,28
 526 240 526 240 511.5 266 c 128,-1,29
 497 292 497 292 474.5 308 c 128,-1,30
 452 324 452 324 427 335 c 128,-1,31
 402 346 402 346 379.5 357.5 c 128,-1,32
 357 369 357 369 342.5 385.5 c 128,-1,33
 328 402 328 402 328 430 c 256,34,35
 328 458 328 458 340.5 473.5 c 128,-1,36
 353 489 353 489 371.5 499 c 128,-1,37
 390 509 390 509 408 520 c 128,-1,38
 426 531 426 531 438.5 549 c 128,-1,39
 451 567 451 567 451 600 c 0,40,41
 451 644 451 644 421.5 665 c 128,-1,42
 392 686 392 686 354 686 c 0,43,44
 301 686 301 686 277.5 654.5 c 128,-1,45
 254 623 254 623 254 563 c 2,46,-1
 254 15 l 2,47,48
 254 0 254 0 239 0 c 2,49,-1
 30 0 l 2,50,51
 15 0 15 0 15 15 c 2,52,-1
 15 45 l 2,53,54
 15 60 15 60 30 60 c 2,55,-1
 33 60 l 2,56,57
 74 60 74 60 89 87.5 c 128,-1,58
 104 115 104 115 104 155 c 2,59,-1
 104 515 l 2,60,61
 104 539 104 539 108 571.5 c 128,-1,62
 112 604 112 604 125.5 637 c 128,-1,63
 139 670 139 670 166.5 698.5 c 128,-1,64
 194 727 194 727 239.5 744.5 c 128,-1,65
 285 762 285 762 354 762 c 0,66,67
 417 762 417 762 470.5 746 c 128,-1,68
 524 730 524 730 556.5 694.5 c 128,-1,69
 589 659 589 659 589 600 c 0,70,71
 589 558 589 558 574 532 c 128,-1,72
 559 506 559 506 537 490.5 c 128,-1,73
 515 475 515 475 492.5 465.5 c 128,-1,74
 470 456 470 456 455 448.5 c 128,-1,75
 440 441 440 441 440 430 c 0,0,1
EndSplineSet
EndChar

StartChar: t
Encoding: 116 116 314
Width: 410
GlyphClass: 2
Flags: W
AnchorPoint: "Anchor-1" 232 0 basechar 0
LayerCount: 2
Fore
SplineSet
397 72 m 2,0,1
 400 68 400 68 400 63 c 0,2,3
 400 57 400 57 392 52 c 2,4,-1
 362 33 l 2,5,6
 335 16 335 16 297 1.5 c 128,-1,7
 259 -13 259 -13 221 -13 c 0,8,9
 191 -13 191 -13 164.5 1 c 128,-1,10
 138 15 138 15 122 48.5 c 128,-1,11
 106 82 106 82 106 141 c 2,12,-1
 106 326 l 2,13,14
 106 353 106 353 103 379.5 c 128,-1,15
 100 406 100 406 84.5 423 c 128,-1,16
 69 440 69 440 33 440 c 0,17,18
 18 440 18 440 18 455 c 2,19,-1
 18 485 l 2,20,21
 18 500 18 500 33 500 c 2,22,-1
 106 500 l 1,23,-1
 106 567 l 2,24,25
 106 580 106 580 115 585 c 0,26,27
 137 597 137 597 173 618.5 c 128,-1,28
 209 640 209 640 237 668 c 0,29,30
 239 670 239 670 242 670 c 2,31,-1
 244 670 l 2,32,33
 246 670 246 670 246 667 c 2,34,-1
 246 500 l 1,35,-1
 380 500 l 2,36,37
 395 500 395 500 395 485 c 2,38,-1
 395 442 l 2,39,40
 395 427 395 427 380 427 c 2,41,-1
 246 427 l 1,42,-1
 246 141 l 2,43,44
 246 102 246 102 258 87.5 c 128,-1,45
 270 73 270 73 288 73 c 0,46,47
 305 73 305 73 324 82.5 c 128,-1,48
 343 92 343 92 359 102 c 0,49,50
 366 106 366 106 370 106 c 0,51,52
 376 106 376 106 381 98 c 2,53,-1
 397 72 l 2,0,1
EndSplineSet
EndChar

StartChar: tbar
Encoding: 359 359 315
Width: 410
GlyphClass: 2
Flags: W
AnchorPoint: "Anchor-1" 232 0 basechar 0
LayerCount: 2
Fore
SplineSet
67 231 m 2,0,1
 52 231 52 231 52 246 c 2,2,-1
 52 306 l 2,3,4
 52 321 52 321 67 321 c 2,5,-1
 106 321 l 1,6,-1
 106 326 l 2,7,8
 106 353 106 353 103 379.5 c 128,-1,9
 100 406 100 406 84.5 423 c 128,-1,10
 69 440 69 440 33 440 c 0,11,12
 18 440 18 440 18 455 c 2,13,-1
 18 485 l 2,14,15
 18 500 18 500 33 500 c 2,16,-1
 106 500 l 1,17,-1
 106 567 l 2,18,19
 106 580 106 580 115 585 c 0,20,21
 137 597 137 597 173 618.5 c 128,-1,22
 209 640 209 640 237 668 c 0,23,24
 239 670 239 670 242 670 c 2,25,-1
 244 670 l 2,26,27
 246 670 246 670 246 667 c 2,28,-1
 246 500 l 1,29,-1
 380 500 l 2,30,31
 395 500 395 500 395 485 c 2,32,-1
 395 442 l 2,33,34
 395 427 395 427 380 427 c 2,35,-1
 246 427 l 1,36,-1
 246 321 l 1,37,-1
 334 321 l 2,38,39
 349 321 349 321 349 306 c 2,40,-1
 349 246 l 2,41,42
 349 231 349 231 334 231 c 2,43,-1
 246 231 l 1,44,-1
 246 141 l 2,45,46
 246 102 246 102 258 87.5 c 128,-1,47
 270 73 270 73 288 73 c 0,48,49
 305 73 305 73 324 82.5 c 128,-1,50
 343 92 343 92 359 102 c 0,51,52
 366 106 366 106 370 106 c 0,53,54
 376 106 376 106 381 98 c 2,55,-1
 397 72 l 2,56,57
 400 68 400 68 400 63 c 0,58,59
 400 57 400 57 392 52 c 2,60,-1
 362 33 l 2,61,62
 335 16 335 16 297 1.5 c 128,-1,63
 259 -13 259 -13 221 -13 c 0,64,65
 191 -13 191 -13 164.5 1 c 128,-1,66
 138 15 138 15 122 48.5 c 128,-1,67
 106 82 106 82 106 141 c 2,68,-1
 106 231 l 1,69,-1
 67 231 l 2,0,1
EndSplineSet
EndChar

StartChar: u
Encoding: 117 117 322
Width: 659
GlyphClass: 2
Flags: W
AnchorPoint: "Anchor-2" 591 27 basechar 0
AnchorPoint: "Anchor-1" 364 0 basechar 0
AnchorPoint: "Anchor-0" 336 500 basechar 0
LayerCount: 2
Fore
SplineSet
578 202 m 2,0,1
 578 176 578 176 581.5 150.5 c 128,-1,2
 585 125 585 125 597.5 107.5 c 128,-1,3
 610 90 610 90 637 87 c 0,4,5
 645 86 645 86 646.5 82.5 c 128,-1,6
 648 79 648 79 648 74 c 2,7,-1
 648 41 l 2,8,9
 648 27 648 27 634 27 c 0,10,11
 585 27 585 27 552.5 21.5 c 128,-1,12
 520 16 520 16 496.5 7.5 c 128,-1,13
 473 -1 473 -1 450 -11 c 0,14,15
 446 -13 446 -13 442 -13 c 2,16,-1
 440 -13 l 2,17,18
 438 -13 438 -13 438 -10 c 256,19,20
 438 -7 438 -7 441.5 20.5 c 128,-1,21
 445 48 445 48 454 116 c 1,22,23
 440 88 440 88 415 58 c 128,-1,24
 390 28 390 28 354.5 7.5 c 128,-1,25
 319 -13 319 -13 273 -13 c 0,26,27
 219 -13 219 -13 185.5 3.5 c 128,-1,28
 152 20 152 20 134 47.5 c 128,-1,29
 116 75 116 75 109.5 109.5 c 128,-1,30
 103 144 103 144 103 180 c 2,31,-1
 103 345 l 2,32,33
 103 386 103 386 84.5 413 c 128,-1,34
 66 440 66 440 29 440 c 2,35,-1
 25 440 l 2,36,37
 10 440 10 440 10 455 c 2,38,-1
 10 485 l 2,39,40
 10 500 10 500 25 500 c 2,41,-1
 228 500 l 2,42,43
 243 500 243 500 243 485 c 2,44,-1
 243 174 l 2,45,46
 243 147 243 147 248 124.5 c 128,-1,47
 253 102 253 102 268.5 88.5 c 128,-1,48
 284 75 284 75 315 75 c 0,49,50
 340 75 340 75 365 87.5 c 128,-1,51
 390 100 390 100 409.5 119.5 c 128,-1,52
 429 139 429 139 437 160 c 1,53,-1
 437 345 l 2,54,55
 437 386 437 386 418.5 413 c 128,-1,56
 400 440 400 440 364 440 c 2,57,-1
 362 440 l 2,58,59
 347 440 347 440 347 455 c 2,60,-1
 347 485 l 2,61,62
 347 500 347 500 362 500 c 2,63,-1
 563 500 l 2,64,65
 578 500 578 500 578 485 c 2,66,-1
 578 202 l 2,0,1
EndSplineSet
EndChar

StartChar: v
Encoding: 118 118 336
Width: 600
GlyphClass: 1
Flags: W
LayerCount: 2
Fore
SplineSet
579 500 m 2,0,1
 594 500 594 500 594 485 c 2,2,-1
 594 455 l 2,3,4
 594 440 594 440 579 440 c 2,5,-1
 564 440 l 2,6,7
 548 440 548 440 535.5 428 c 128,-1,8
 523 416 523 416 506 378 c 2,9,-1
 337 11 l 2,10,11
 332 0 332 0 322 0 c 2,12,-1
 265 0 l 2,13,14
 254 0 254 0 249 11 c 2,15,-1
 81 377 l 2,16,17
 64 415 64 415 53.5 427.5 c 128,-1,18
 43 440 43 440 23 440 c 2,19,-1
 21 440 l 2,20,21
 6 440 6 440 6 455 c 2,22,-1
 6 485 l 2,23,24
 6 500 6 500 21 500 c 2,25,-1
 252 500 l 2,26,27
 267 500 267 500 267 485 c 2,28,-1
 267 455 l 2,29,30
 267 440 267 440 252 440 c 2,31,-1
 250 440 l 2,32,33
 231 440 231 440 223.5 432.5 c 128,-1,34
 216 425 216 425 216 411 c 0,35,36
 216 398 216 398 221.5 382 c 128,-1,37
 227 366 227 366 237 345 c 2,38,-1
 329 150 l 1,39,-1
 413 345 l 2,40,41
 423 368 423 368 430 387 c 128,-1,42
 437 406 437 406 437 419 c 0,43,44
 437 440 437 440 415 440 c 2,45,-1
 395 440 l 2,46,47
 380 440 380 440 380 455 c 2,48,-1
 380 485 l 2,49,50
 380 500 380 500 395 500 c 2,51,-1
 579 500 l 2,0,1
EndSplineSet
EndChar

StartChar: w
Encoding: 119 119 337
Width: 932
GlyphClass: 2
Flags: W
AnchorPoint: "Anchor-1" 460 0 basechar 0
AnchorPoint: "Anchor-0" 497 500 basechar 0
LayerCount: 2
Fore
SplineSet
911 500 m 2,0,1
 926 500 926 500 926 485 c 2,2,-1
 926 455 l 2,3,4
 926 440 926 440 911 440 c 2,5,-1
 896 440 l 2,6,7
 880 440 880 440 867.5 428 c 128,-1,8
 855 416 855 416 838 378 c 2,9,-1
 679 11 l 2,10,11
 675 0 675 0 664 0 c 2,12,-1
 607 0 l 2,13,14
 596 0 596 0 591 11 c 2,15,-1
 459 317 l 1,16,-1
 327 11 l 2,17,18
 323 0 323 0 311 0 c 2,19,-1
 255 0 l 2,20,21
 244 0 244 0 239 11 c 2,22,-1
 81 377 l 2,23,24
 65 415 65 415 54 427.5 c 128,-1,25
 43 440 43 440 23 440 c 2,26,-1
 21 440 l 2,27,28
 6 440 6 440 6 455 c 2,29,-1
 6 485 l 2,30,31
 6 500 6 500 21 500 c 2,32,-1
 252 500 l 2,33,34
 267 500 267 500 267 485 c 2,35,-1
 267 455 l 2,36,37
 267 440 267 440 252 440 c 2,38,-1
 250 440 l 2,39,40
 231 440 231 440 223.5 432.5 c 128,-1,41
 216 425 216 425 216 411 c 0,42,43
 216 398 216 398 222.5 381 c 128,-1,44
 229 364 229 364 237 345 c 2,45,-1
 317 158 l 1,46,-1
 403 371 l 2,47,48
 416 401 416 401 416 419 c 0,49,50
 416 440 416 440 395 440 c 2,51,-1
 373 440 l 2,52,53
 360 440 360 440 360 455 c 2,54,-1
 360 485 l 2,55,56
 360 500 360 500 374 500 c 2,57,-1
 614 500 l 2,58,59
 629 500 629 500 629 485 c 2,60,-1
 629 455 l 2,61,62
 629 440 629 440 614 440 c 2,63,-1
 602 440 l 2,64,65
 583 440 583 440 575.5 432.5 c 128,-1,66
 568 425 568 425 568 411 c 0,67,68
 568 398 568 398 574 381 c 128,-1,69
 580 364 580 364 588 345 c 2,70,-1
 669 158 l 1,71,-1
 755 371 l 2,72,73
 768 401 768 401 768 419 c 0,74,75
 768 440 768 440 747 440 c 2,76,-1
 727 440 l 2,77,78
 712 440 712 440 712 455 c 2,79,-1
 712 485 l 2,80,81
 712 500 712 500 727 500 c 2,82,-1
 911 500 l 2,0,1
EndSplineSet
EndChar

StartChar: x
Encoding: 120 120 342
Width: 603
GlyphClass: 1
Flags: W
LayerCount: 2
Fore
SplineSet
23 60 m 0,0,1
 54 60 54 60 72.5 75 c 128,-1,2
 91 90 91 90 116 122 c 2,3,-1
 224 260 l 1,4,-1
 127 377 l 2,5,6
 75 440 75 440 39 440 c 2,7,-1
 37 440 l 2,8,9
 22 440 22 440 22 455 c 2,10,-1
 22 485 l 2,11,12
 22 500 22 500 37 500 c 2,13,-1
 288 500 l 2,14,15
 303 500 303 500 303 485 c 2,16,-1
 303 455 l 2,17,18
 303 440 303 440 288 440 c 2,19,-1
 286 440 l 2,20,21
 249 440 249 440 249 426 c 0,22,23
 249 415 249 415 267 394 c 2,24,-1
 334 312 l 1,25,-1
 384 377 l 2,26,27
 398 395 398 395 406 408 c 128,-1,28
 414 421 414 421 414 428 c 0,29,30
 414 440 414 440 390 440 c 2,31,-1
 380 440 l 2,32,33
 365 440 365 440 365 455 c 2,34,-1
 365 485 l 2,35,36
 365 500 365 500 380 500 c 2,37,-1
 563 500 l 2,38,39
 578 500 578 500 578 485 c 2,40,-1
 578 455 l 2,41,42
 578 440 578 440 563 440 c 2,43,-1
 549 440 l 2,44,45
 518 440 518 440 502 426 c 128,-1,46
 486 412 486 412 460 378 c 2,47,-1
 373 265 l 1,48,-1
 490 123 l 2,49,50
 541 60 541 60 578 60 c 2,51,-1
 580 60 l 2,52,53
 595 60 595 60 595 45 c 2,54,-1
 595 15 l 2,55,56
 595 0 595 0 580 0 c 2,57,-1
 324 0 l 2,58,59
 309 0 309 0 309 15 c 2,60,-1
 309 45 l 2,61,62
 309 60 309 60 324 60 c 2,63,-1
 326 60 l 2,64,65
 336 60 336 60 349.5 64 c 128,-1,66
 363 68 363 68 363 81 c 0,67,68
 363 91 363 91 348 110 c 2,69,-1
 262 214 l 1,70,-1
 192 123 l 2,71,72
 179 105 179 105 170.5 92.5 c 128,-1,73
 162 80 162 80 162 72 c 0,74,75
 162 60 162 60 187 60 c 2,76,-1
 206 60 l 2,77,78
 221 60 221 60 221 45 c 2,79,-1
 221 15 l 2,80,81
 221 0 221 0 206 0 c 2,82,-1
 23 0 l 2,83,84
 8 0 8 0 8 15 c 2,85,-1
 8 45 l 2,86,87
 8 60 8 60 23 60 c 0,0,1
EndSplineSet
EndChar

StartChar: y
Encoding: 121 121 343
Width: 578
GlyphClass: 2
Flags: W
AnchorPoint: "Anchor-0" 307 500 basechar 0
LayerCount: 2
Fore
SplineSet
557 500 m 2,0,1
 572 500 572 500 572 485 c 2,2,-1
 572 455 l 2,3,4
 572 440 572 440 557 440 c 2,5,-1
 543 440 l 2,6,7
 527 440 527 440 515 427.5 c 128,-1,8
 503 415 503 415 485 378 c 2,9,-1
 195 -206 l 2,10,11
 189 -219 189 -219 175 -213 c 2,12,-1
 124 -187 l 2,13,14
 110 -181 110 -181 116 -167 c 2,15,-1
 228 73 l 1,16,-1
 81 377 l 2,17,18
 63 414 63 414 53 427 c 128,-1,19
 43 440 43 440 23 440 c 2,20,-1
 21 440 l 2,21,22
 6 440 6 440 6 455 c 2,23,-1
 6 485 l 2,24,25
 6 500 6 500 21 500 c 2,26,-1
 252 500 l 2,27,28
 267 500 267 500 267 485 c 2,29,-1
 267 455 l 2,30,31
 267 440 267 440 252 440 c 2,32,-1
 250 440 l 2,33,34
 218 440 218 440 218 414 c 0,35,36
 218 401 218 401 225 383.5 c 128,-1,37
 232 366 232 366 241 346 c 2,38,-1
 308 200 l 1,39,-1
 380 348 l 2,40,41
 391 369 391 369 398 387.5 c 128,-1,42
 405 406 405 406 405 419 c 0,43,44
 405 440 405 440 382 440 c 2,45,-1
 364 440 l 2,46,47
 349 440 349 440 349 455 c 2,48,-1
 349 485 l 2,49,50
 349 500 349 500 364 500 c 2,51,-1
 557 500 l 2,0,1
EndSplineSet
EndChar

StartChar: z
Encoding: 122 122 351
Width: 544
GlyphClass: 2
Flags: W
AnchorPoint: "Anchor-1" 266 0 basechar 0
AnchorPoint: "Anchor-0" 288 500 basechar 0
LayerCount: 2
Fore
SplineSet
526 148 m 2,0,1
 535 144 535 144 535 136 c 0,2,3
 535 132 535 132 532 127 c 2,4,-1
 454 -5 l 2,5,6
 449 -13 449 -13 442 -13 c 0,7,8
 438 -13 438 -13 428 -5 c 0,9,10
 424 -1 424 -1 419.5 -0.5 c 128,-1,11
 415 0 415 0 410 0 c 2,12,-1
 25 0 l 2,13,14
 10 0 10 0 10 15 c 2,15,-1
 10 58 l 2,16,17
 10 65 10 65 13 69 c 2,18,-1
 328 431 l 1,19,-1
 232 431 l 2,20,21
 132 431 132 431 82 345 c 2,22,-1
 78 338 l 2,23,24
 76 334 76 334 73.5 331 c 128,-1,25
 71 328 71 328 67 328 c 0,26,27
 64 328 64 328 57 332 c 2,28,-1
 23 352 l 2,29,30
 20 354 20 354 17.5 356.5 c 128,-1,31
 15 359 15 359 15 364 c 0,32,33
 15 367 15 367 18 373 c 2,34,-1
 100 504 l 2,35,36
 105 513 105 513 112 513 c 0,37,38
 117 513 117 513 125 505 c 0,39,40
 129 501 129 501 133.5 500.5 c 128,-1,41
 138 500 138 500 143 500 c 2,42,-1
 513 500 l 2,43,44
 526 500 526 500 526 491 c 0,45,46
 526 486 526 486 522 482 c 2,47,-1
 170 69 l 1,48,-1
 247 69 l 2,49,50
 282 69 282 69 324.5 73 c 128,-1,51
 367 77 367 77 407 95.5 c 128,-1,52
 447 114 447 114 472 155 c 2,53,-1
 475 160 l 2,54,55
 480 168 480 168 487 168 c 0,56,57
 493 168 493 168 497 165 c 2,58,-1
 526 148 l 2,0,1
EndSplineSet
EndChar

StartChar: f_f
Encoding: 64256 64256 356
Width: 781
GlyphClass: 3
LigCaretCntFixed: 1
Flags: W
LayerCount: 2
Fore
SplineSet
109 508 m 2,0,1
 109 553 109 553 120 603.5 c 128,-1,2
 131 654 131 654 156.5 698.5 c 128,-1,3
 182 743 182 743 225.5 771.5 c 128,-1,4
 269 800 269 800 335 800 c 0,5,6
 415 800 415 800 453.5 769.5 c 128,-1,7
 492 739 492 739 492 694 c 0,8,9
 492 668 492 668 482 644 c 0,10,11
 479 637 479 637 473.5 632 c 128,-1,12
 468 627 468 627 457 625 c 0,13,14
 439 621 439 621 414.5 615.5 c 128,-1,15
 390 610 390 610 370.5 606 c 128,-1,16
 351 602 351 602 348 602 c 0,17,18
 342 602 342 602 342 611 c 0,19,20
 342 616 342 616 345 622 c 0,21,22
 364 660 364 660 364 688 c 256,23,24
 364 716 364 716 349.5 730.5 c 128,-1,25
 335 745 335 745 317 745 c 0,26,27
 293 745 293 745 275 723 c 0,28,29
 256 701 256 701 249.5 662 c 128,-1,30
 243 623 243 623 243 566 c 2,31,-1
 243 500 l 1,32,-1
 488 500 l 1,33,-1
 488 508 l 2,34,35
 488 553 488 553 499 603.5 c 128,-1,36
 510 654 510 654 535.5 698.5 c 128,-1,37
 561 743 561 743 604.5 771.5 c 128,-1,38
 648 800 648 800 714 800 c 0,39,40
 794 800 794 800 832.5 769.5 c 128,-1,41
 871 739 871 739 871 694 c 0,42,43
 871 668 871 668 861 644 c 0,44,45
 858 637 858 637 852.5 632 c 128,-1,46
 847 627 847 627 836 625 c 0,47,48
 818 621 818 621 793.5 615.5 c 128,-1,49
 769 610 769 610 749.5 606 c 128,-1,50
 730 602 730 602 727 602 c 0,51,52
 721 602 721 602 721 611 c 0,53,54
 721 616 721 616 724 622 c 0,55,56
 743 660 743 660 743 688 c 256,57,58
 743 716 743 716 728.5 730.5 c 128,-1,59
 714 745 714 745 696 745 c 0,60,61
 672 745 672 745 654 723 c 0,62,63
 635 701 635 701 628.5 662 c 128,-1,64
 622 623 622 623 622 566 c 2,65,-1
 622 500 l 1,66,-1
 756 500 l 2,67,68
 771 500 771 500 771 485 c 2,69,-1
 771 442 l 2,70,71
 771 427 771 427 756 427 c 2,72,-1
 622 427 l 1,73,-1
 622 155 l 2,74,75
 622 115 622 115 640.5 87.5 c 128,-1,76
 659 60 659 60 696 60 c 0,77,78
 711 60 711 60 711 45 c 2,79,-1
 711 15 l 2,80,81
 711 0 711 0 696 0 c 2,82,-1
 414 0 l 2,83,84
 399 0 399 0 399 15 c 2,85,-1
 399 45 l 2,86,87
 399 60 399 60 414 60 c 0,88,89
 451 60 451 60 469 87.5 c 128,-1,90
 487 115 487 115 487 155 c 2,91,-1
 487 326 l 2,92,93
 487 389 487 389 461.5 408 c 128,-1,94
 436 427 436 427 374 427 c 2,95,-1
 243 427 l 1,96,-1
 243 155 l 2,97,98
 243 115 243 115 261.5 87.5 c 128,-1,99
 280 60 280 60 317 60 c 0,100,101
 332 60 332 60 332 45 c 2,102,-1
 332 15 l 2,103,104
 332 0 332 0 317 0 c 2,105,-1
 35 0 l 2,106,107
 20 0 20 0 20 15 c 2,108,-1
 20 45 l 2,109,110
 20 60 20 60 35 60 c 0,111,112
 72 60 72 60 90 87.5 c 128,-1,113
 108 115 108 115 108 155 c 2,114,-1
 108 326 l 2,115,116
 108 353 108 353 105 379.5 c 128,-1,117
 102 406 102 406 86.5 423 c 128,-1,118
 71 440 71 440 35 440 c 0,119,120
 20 440 20 440 20 455 c 2,121,-1
 20 485 l 2,122,123
 20 500 20 500 35 500 c 2,124,-1
 109 500 l 1,125,-1
 109 508 l 2,0,1
EndSplineSet
Ligature2: "'liga' Standard Ligatures in Latin lookup 29 subtable" f f
LCarets2: 1 390
EndChar

StartChar: f_f_i
Encoding: 64259 64259 357
Width: 1093
GlyphClass: 3
LigCaretCntFixed: 1
Flags: W
LayerCount: 2
Fore
SplineSet
109 508 m 2,0,1
 109 553 109 553 120 603.5 c 128,-1,2
 131 654 131 654 156.5 698.5 c 128,-1,3
 182 743 182 743 225.5 771.5 c 128,-1,4
 269 800 269 800 335 800 c 0,5,6
 415 800 415 800 453.5 769.5 c 128,-1,7
 492 739 492 739 492 694 c 0,8,9
 492 668 492 668 482 644 c 0,10,11
 479 637 479 637 473.5 632 c 128,-1,12
 468 627 468 627 457 625 c 0,13,14
 439 621 439 621 414.5 615.5 c 128,-1,15
 390 610 390 610 370.5 606 c 128,-1,16
 351 602 351 602 348 602 c 0,17,18
 342 602 342 602 342 611 c 0,19,20
 342 616 342 616 345 622 c 0,21,22
 364 660 364 660 364 688 c 256,23,24
 364 716 364 716 349.5 730.5 c 128,-1,25
 335 745 335 745 317 745 c 0,26,27
 293 745 293 745 275 723 c 0,28,29
 256 701 256 701 249.5 662 c 128,-1,30
 243 623 243 623 243 566 c 2,31,-1
 243 500 l 1,32,-1
 491 500 l 1,33,-1
 491 508 l 2,34,35
 491 553 491 553 506 603.5 c 128,-1,36
 521 654 521 654 554.5 698.5 c 128,-1,37
 588 743 588 743 642 771.5 c 128,-1,38
 696 800 696 800 773 800 c 0,39,40
 878 800 878 800 933 759.5 c 128,-1,41
 988 719 988 719 988 656 c 0,42,43
 988 637 988 637 979 614 c 0,44,45
 976 607 976 607 970.5 602 c 128,-1,46
 965 597 965 597 954 595 c 2,47,-1
 849 572 l 2,48,49
 839 570 839 570 839 581 c 0,50,51
 839 586 839 586 842 592 c 0,52,53
 859 625 859 625 859 650 c 0,54,55
 859 697 859 697 831 721 c 128,-1,56
 803 745 803 745 758 745 c 0,57,58
 712 745 712 745 684 721 c 128,-1,59
 656 697 656 697 643 656.5 c 128,-1,60
 630 616 630 616 630 566 c 2,61,-1
 630 500 l 1,62,-1
 775 500 l 2,63,64
 818 500 818 500 858.5 505.5 c 128,-1,65
 899 511 899 511 929.5 518 c 128,-1,66
 960 525 960 525 974 529 c 0,67,68
 980 531 980 531 983 531 c 2,69,-1
 985 531 l 2,70,71
 987 531 987 531 987 529 c 2,72,-1
 987 155 l 2,73,74
 987 115 987 115 1005.5 87.5 c 128,-1,75
 1024 60 1024 60 1061 60 c 2,76,-1
 1063 60 l 2,77,78
 1078 60 1078 60 1078 45 c 2,79,-1
 1078 15 l 2,80,81
 1078 0 1078 0 1061 0 c 2,82,-1
 778 0 l 2,83,84
 762 0 762 0 762 15 c 2,85,-1
 762 46 l 2,86,87
 762 60 762 60 777 60 c 2,88,-1
 778 60 l 2,89,90
 815 60 815 60 833 87.5 c 128,-1,91
 851 115 851 115 851 155 c 2,92,-1
 851 331 l 2,93,94
 851 354 851 354 846.5 376 c 128,-1,95
 842 398 842 398 826 412.5 c 128,-1,96
 810 427 810 427 775 427 c 2,97,-1
 631 427 l 1,98,-1
 631 155 l 2,99,100
 631 115 631 115 649 87.5 c 128,-1,101
 667 60 667 60 704 60 c 0,102,103
 719 60 719 60 719 45 c 2,104,-1
 719 15 l 2,105,106
 719 0 719 0 704 0 c 2,107,-1
 417 0 l 2,108,109
 402 0 402 0 402 15 c 2,110,-1
 402 45 l 2,111,112
 402 60 402 60 417 60 c 0,113,114
 454 60 454 60 472 87.5 c 128,-1,115
 490 115 490 115 490 155 c 2,116,-1
 490 326 l 2,117,118
 490 389 490 389 464.5 408 c 128,-1,119
 439 427 439 427 377 427 c 2,120,-1
 243 427 l 1,121,-1
 243 155 l 2,122,123
 243 115 243 115 261.5 87.5 c 128,-1,124
 280 60 280 60 317 60 c 0,125,126
 332 60 332 60 332 45 c 2,127,-1
 332 15 l 2,128,129
 332 0 332 0 317 0 c 2,130,-1
 35 0 l 2,131,132
 20 0 20 0 20 15 c 2,133,-1
 20 45 l 2,134,135
 20 60 20 60 35 60 c 0,136,137
 72 60 72 60 90 87.5 c 128,-1,138
 108 115 108 115 108 155 c 2,139,-1
 108 326 l 2,140,141
 108 353 108 353 105 379.5 c 128,-1,142
 102 406 102 406 86.5 423 c 128,-1,143
 71 440 71 440 35 440 c 0,144,145
 20 440 20 440 20 455 c 2,146,-1
 20 485 l 2,147,148
 20 500 20 500 35 500 c 2,149,-1
 109 500 l 1,150,-1
 109 508 l 2,0,1
EndSplineSet
Ligature2: "'liga' Standard Ligatures in Latin lookup 29 subtable" f f i
LCarets2: 2 364 729
EndChar

StartChar: f_f_l
Encoding: 64260 64260 359
Width: 1106
GlyphClass: 3
LigCaretCntFixed: 1
Flags: W
LayerCount: 2
Fore
SplineSet
109 508 m 2,0,1
 109 553 109 553 120 603.5 c 128,-1,2
 131 654 131 654 156.5 698.5 c 128,-1,3
 182 743 182 743 225.5 771.5 c 128,-1,4
 269 800 269 800 335 800 c 0,5,6
 415 800 415 800 453.5 769.5 c 128,-1,7
 492 739 492 739 492 694 c 0,8,9
 492 668 492 668 482 644 c 0,10,11
 479 637 479 637 473.5 632 c 128,-1,12
 468 627 468 627 457 625 c 0,13,14
 439 621 439 621 414.5 615.5 c 128,-1,15
 390 610 390 610 370.5 606 c 128,-1,16
 351 602 351 602 348 602 c 0,17,18
 342 602 342 602 342 611 c 0,19,20
 342 616 342 616 345 622 c 0,21,22
 364 660 364 660 364 688 c 256,23,24
 364 716 364 716 349.5 730.5 c 128,-1,25
 335 745 335 745 317 745 c 0,26,27
 293 745 293 745 275 723 c 0,28,29
 256 701 256 701 249.5 662 c 128,-1,30
 243 623 243 623 243 566 c 2,31,-1
 243 500 l 1,32,-1
 483 500 l 1,33,-1
 483 508 l 2,34,35
 483 553 483 553 494.5 603.5 c 128,-1,36
 506 654 506 654 533 698.5 c 128,-1,37
 560 743 560 743 604.5 771.5 c 128,-1,38
 649 800 649 800 715 800 c 0,39,40
 779 800 779 800 816.5 780 c 128,-1,41
 854 760 854 760 866 728 c 1,42,43
 916 748 916 748 946.5 767 c 128,-1,44
 977 786 977 786 993 798 c 0,45,46
 996 800 996 800 998 800 c 2,47,-1
 1000 800 l 2,48,49
 1002 800 1002 800 1002 798 c 2,50,-1
 1002 155 l 2,51,52
 1002 115 1002 115 1020.5 87.5 c 128,-1,53
 1039 60 1039 60 1076 60 c 0,54,55
 1091 60 1091 60 1091 45 c 2,56,-1
 1091 15 l 2,57,58
 1091 0 1091 0 1076 0 c 2,59,-1
 789 0 l 2,60,61
 774 0 774 0 774 15 c 2,62,-1
 774 45 l 2,63,64
 774 60 774 60 789 60 c 0,65,66
 826 60 826 60 844 87.5 c 128,-1,67
 862 115 862 115 862 155 c 2,68,-1
 862 576 l 2,69,70
 862 608 862 608 857 618.5 c 128,-1,71
 852 629 852 629 836 625 c 0,72,73
 818 621 818 621 796.5 615.5 c 128,-1,74
 775 610 775 610 756.5 606 c 128,-1,75
 738 602 738 602 729 602 c 0,76,77
 723 602 723 602 722 608.5 c 128,-1,78
 721 615 721 615 724 622 c 0,79,80
 735 641 735 641 739 657.5 c 128,-1,81
 743 674 743 674 743 688 c 0,82,83
 743 716 743 716 729 730.5 c 128,-1,84
 715 745 715 745 696 745 c 0,85,86
 671 745 671 745 656.5 725.5 c 128,-1,87
 642 706 642 706 634.5 676.5 c 128,-1,88
 627 647 627 647 624.5 617 c 128,-1,89
 622 587 622 587 622 566 c 2,90,-1
 622 500 l 1,91,-1
 756 500 l 2,92,93
 771 500 771 500 771 485 c 2,94,-1
 771 442 l 2,95,96
 771 427 771 427 756 427 c 2,97,-1
 623 427 l 1,98,-1
 623 155 l 2,99,100
 623 115 623 115 641 87.5 c 128,-1,101
 659 60 659 60 696 60 c 0,102,103
 711 60 711 60 711 45 c 2,104,-1
 711 15 l 2,105,106
 711 0 711 0 696 0 c 2,107,-1
 409 0 l 2,108,109
 394 0 394 0 394 15 c 2,110,-1
 394 45 l 2,111,112
 394 60 394 60 409 60 c 0,113,114
 446 60 446 60 464 87.5 c 128,-1,115
 482 115 482 115 482 155 c 2,116,-1
 482 326 l 2,117,118
 482 389 482 389 456.5 408 c 128,-1,119
 431 427 431 427 369 427 c 2,120,-1
 243 427 l 1,121,-1
 243 155 l 2,122,123
 243 115 243 115 261.5 87.5 c 128,-1,124
 280 60 280 60 317 60 c 0,125,126
 332 60 332 60 332 45 c 2,127,-1
 332 15 l 2,128,129
 332 0 332 0 317 0 c 2,130,-1
 35 0 l 2,131,132
 20 0 20 0 20 15 c 2,133,-1
 20 45 l 2,134,135
 20 60 20 60 35 60 c 0,136,137
 72 60 72 60 90 87.5 c 128,-1,138
 108 115 108 115 108 155 c 2,139,-1
 108 326 l 2,140,141
 108 353 108 353 105 379.5 c 128,-1,142
 102 406 102 406 86.5 423 c 128,-1,143
 71 440 71 440 35 440 c 0,144,145
 20 440 20 440 20 455 c 2,146,-1
 20 485 l 2,147,148
 20 500 20 500 35 500 c 2,149,-1
 109 500 l 1,150,-1
 109 508 l 2,0,1
EndSplineSet
Ligature2: "'liga' Standard Ligatures in Latin lookup 29 subtable" f f l
LCarets2: 2 369 737
EndChar

StartChar: f_i
Encoding: 64257 64257 360
Width: 711
GlyphClass: 3
LigCaretCntFixed: 1
Flags: W
AnchorPoint: "Anchor-4" 178 0 baselig 0
AnchorPoint: "Anchor-3" 178 1046 baselig 0
AnchorPoint: "Anchor-4" 533 0 baselig 1
AnchorPoint: "Anchor-3" 533 1046 baselig 1
LayerCount: 2
Fore
SplineSet
681 60 m 2,0,1
 696 60 696 60 696 45 c 2,2,-1
 696 15 l 2,3,4
 696 0 696 0 679 0 c 2,5,-1
 396 0 l 2,6,7
 380 0 380 0 380 15 c 2,8,-1
 380 46 l 2,9,10
 380 60 380 60 395 60 c 2,11,-1
 396 60 l 2,12,13
 433 60 433 60 451 87.5 c 128,-1,14
 469 115 469 115 469 155 c 2,15,-1
 469 331 l 2,16,17
 469 354 469 354 464.5 376 c 128,-1,18
 460 398 460 398 444 412.5 c 128,-1,19
 428 427 428 427 393 427 c 2,20,-1
 249 427 l 1,21,-1
 249 155 l 2,22,23
 249 115 249 115 267 87.5 c 128,-1,24
 285 60 285 60 322 60 c 0,25,26
 337 60 337 60 337 45 c 2,27,-1
 337 15 l 2,28,29
 337 0 337 0 322 0 c 2,30,-1
 35 0 l 2,31,32
 20 0 20 0 20 15 c 2,33,-1
 20 45 l 2,34,35
 20 60 20 60 35 60 c 0,36,37
 72 60 72 60 90 87.5 c 128,-1,38
 108 115 108 115 108 155 c 2,39,-1
 108 326 l 2,40,41
 108 353 108 353 105 379.5 c 128,-1,42
 102 406 102 406 87 423 c 128,-1,43
 72 440 72 440 35 440 c 0,44,45
 20 440 20 440 20 455 c 2,46,-1
 20 485 l 2,47,48
 20 500 20 500 35 500 c 2,49,-1
 109 500 l 1,50,-1
 109 508 l 2,51,52
 109 553 109 553 124 603.5 c 128,-1,53
 139 654 139 654 172.5 698.5 c 128,-1,54
 206 743 206 743 260 771.5 c 128,-1,55
 314 800 314 800 391 800 c 0,56,57
 496 800 496 800 551 759.5 c 128,-1,58
 606 719 606 719 606 656 c 0,59,60
 606 637 606 637 597 614 c 0,61,62
 594 607 594 607 588.5 602 c 128,-1,63
 583 597 583 597 572 595 c 2,64,-1
 467 572 l 2,65,66
 457 570 457 570 457 581 c 0,67,68
 457 586 457 586 460 592 c 0,69,70
 477 625 477 625 477 650 c 0,71,72
 477 697 477 697 449 721 c 128,-1,73
 421 745 421 745 376 745 c 0,74,75
 330 745 330 745 302 721 c 128,-1,76
 274 697 274 697 261 656.5 c 128,-1,77
 248 616 248 616 248 566 c 2,78,-1
 248 500 l 1,79,-1
 393 500 l 2,80,81
 436 500 436 500 476.5 505.5 c 128,-1,82
 517 511 517 511 547.5 518 c 128,-1,83
 578 525 578 525 592 529 c 0,84,85
 598 531 598 531 601 531 c 2,86,-1
 603 531 l 2,87,88
 605 531 605 531 605 529 c 2,89,-1
 605 155 l 2,90,91
 605 115 605 115 623.5 87.5 c 128,-1,92
 642 60 642 60 679 60 c 2,93,-1
 681 60 l 2,0,1
EndSplineSet
Ligature2: "'liga' Standard Ligatures in Latin lookup 29 subtable" f i
LCarets2: 1 356
EndChar

StartChar: f_l
Encoding: 64258 64258 361
Width: 732
GlyphClass: 3
LigCaretCntFixed: 1
Flags: W
AnchorPoint: "Anchor-4" 183 0 baselig 0
AnchorPoint: "Anchor-3" 183 1046 baselig 0
AnchorPoint: "Anchor-4" 549 0 baselig 1
AnchorPoint: "Anchor-3" 549 1046 baselig 1
LayerCount: 2
Fore
SplineSet
628 155 m 2,0,1
 628 115 628 115 646.5 87.5 c 128,-1,2
 665 60 665 60 702 60 c 0,3,4
 717 60 717 60 717 45 c 2,5,-1
 717 15 l 2,6,7
 717 0 717 0 702 0 c 2,8,-1
 415 0 l 2,9,10
 400 0 400 0 400 15 c 2,11,-1
 400 45 l 2,12,13
 400 60 400 60 415 60 c 0,14,15
 452 60 452 60 470 87.5 c 128,-1,16
 488 115 488 115 488 155 c 2,17,-1
 488 576 l 2,18,19
 488 608 488 608 483 618.5 c 128,-1,20
 478 629 478 629 462 625 c 0,21,22
 444 621 444 621 422.5 615.5 c 128,-1,23
 401 610 401 610 382.5 606 c 128,-1,24
 364 602 364 602 355 602 c 0,25,26
 349 602 349 602 348 608.5 c 128,-1,27
 347 615 347 615 350 622 c 0,28,29
 361 641 361 641 365 657.5 c 128,-1,30
 369 674 369 674 369 688 c 0,31,32
 369 716 369 716 355 730.5 c 128,-1,33
 341 745 341 745 322 745 c 0,34,35
 297 745 297 745 282.5 725.5 c 128,-1,36
 268 706 268 706 260.5 676.5 c 128,-1,37
 253 647 253 647 250.5 617 c 128,-1,38
 248 587 248 587 248 566 c 2,39,-1
 248 500 l 1,40,-1
 382 500 l 2,41,42
 397 500 397 500 397 485 c 2,43,-1
 397 442 l 2,44,45
 397 427 397 427 382 427 c 2,46,-1
 249 427 l 1,47,-1
 249 155 l 2,48,49
 249 115 249 115 267 87.5 c 128,-1,50
 285 60 285 60 322 60 c 0,51,52
 337 60 337 60 337 45 c 2,53,-1
 337 15 l 2,54,55
 337 0 337 0 322 0 c 2,56,-1
 35 0 l 2,57,58
 20 0 20 0 20 15 c 2,59,-1
 20 45 l 2,60,61
 20 60 20 60 35 60 c 0,62,63
 72 60 72 60 90 87.5 c 128,-1,64
 108 115 108 115 108 155 c 2,65,-1
 108 326 l 2,66,67
 108 353 108 353 105 379.5 c 128,-1,68
 102 406 102 406 87 423 c 128,-1,69
 72 440 72 440 35 440 c 0,70,71
 20 440 20 440 20 455 c 2,72,-1
 20 485 l 2,73,74
 20 500 20 500 35 500 c 2,75,-1
 109 500 l 1,76,-1
 109 508 l 2,77,78
 109 553 109 553 120.5 603.5 c 128,-1,79
 132 654 132 654 159 698.5 c 128,-1,80
 186 743 186 743 230.5 771.5 c 128,-1,81
 275 800 275 800 341 800 c 0,82,83
 405 800 405 800 442.5 780 c 128,-1,84
 480 760 480 760 492 728 c 1,85,86
 542 748 542 748 572.5 767 c 128,-1,87
 603 786 603 786 619 798 c 0,88,89
 622 800 622 800 624 800 c 2,90,-1
 626 800 l 2,91,92
 628 800 628 800 628 798 c 2,93,-1
 628 155 l 2,0,1
EndSplineSet
Ligature2: "'liga' Standard Ligatures in Latin lookup 29 subtable" f l
LCarets2: 1 366
EndChar

StartChar: ordfeminine
Encoding: 170 170 362
Width: 518
GlyphClass: 2
Flags: W
AnchorPoint: "Anchor-2" 459 353 basechar 0
AnchorPoint: "Anchor-1" 269 332 basechar 0
AnchorPoint: "Anchor-0" 241 745 basechar 0
LayerCount: 2
Fore
SplineSet
445 485 m 2,0,1
 445 455 445 455 454.5 431.5 c 128,-1,2
 464 408 464 408 494 404 c 0,3,4
 504 403 504 403 504 393 c 2,5,-1
 504 366 l 2,6,7
 504 354 504 354 492 354 c 0,8,9
 451 354 451 354 424 349.5 c 128,-1,10
 397 345 397 345 377.5 338 c 128,-1,11
 358 331 358 331 340 323 c 0,12,13
 336 321 336 321 334 321 c 2,14,-1
 331 321 l 2,15,16
 330 321 330 321 330 325 c 0,17,18
 330 327 330 327 331.5 340.5 c 128,-1,19
 333 354 333 354 335 370 c 128,-1,20
 337 386 337 386 339 397 c 1,21,22
 334 386 334 386 320.5 368 c 128,-1,23
 307 350 307 350 281 335.5 c 128,-1,24
 255 321 255 321 213 321 c 0,25,26
 185 321 185 321 153 333 c 128,-1,27
 121 345 121 345 93 370.5 c 128,-1,28
 65 396 65 396 47.5 437.5 c 128,-1,29
 30 479 30 479 30 539 c 0,30,31
 30 616 30 616 57.5 663.5 c 128,-1,32
 85 711 85 711 129 733.5 c 128,-1,33
 173 756 173 756 223 756 c 0,34,35
 263 756 263 756 297 743.5 c 128,-1,36
 331 731 331 731 357 708 c 1,37,38
 379 717 379 717 394 725 c 128,-1,39
 409 733 409 733 420 741 c 0,40,41
 424 744 424 744 428.5 747.5 c 128,-1,42
 433 751 433 751 439 754 c 0,43,44
 441 756 441 756 443 756 c 2,45,-1
 444 756 l 2,46,47
 445 756 445 756 445 754 c 2,48,-1
 445 485 l 2,0,1
330 615 m 2,49,50
 327 631 327 631 317.5 651 c 128,-1,51
 308 671 308 671 289 686 c 128,-1,52
 270 701 270 701 238 701 c 0,53,54
 198 701 198 701 176 681.5 c 128,-1,55
 154 662 154 662 145 631 c 128,-1,56
 136 600 136 600 136 566 c 0,57,58
 136 487 136 487 168 440.5 c 128,-1,59
 200 394 200 394 250 394 c 0,60,61
 280 394 280 394 297 406.5 c 128,-1,62
 314 419 314 419 321.5 432.5 c 128,-1,63
 329 446 329 446 330 449 c 2,64,-1
 330 615 l 2,49,50
EndSplineSet
EndChar

StartChar: ordmasculine
Encoding: 186 186 363
Width: 458
GlyphClass: 2
Flags: W
AnchorPoint: "Anchor-1" 246 333 basechar 0
AnchorPoint: "Anchor-0" 246 746 basechar 0
LayerCount: 2
Fore
SplineSet
240 757 m 0,0,1
 288 757 288 757 327.5 738.5 c 128,-1,2
 367 720 367 720 396 688 c 128,-1,3
 425 656 425 656 441.5 616.5 c 128,-1,4
 458 577 458 577 458 535 c 0,5,6
 458 474 458 474 429 426 c 128,-1,7
 400 378 400 378 352.5 350 c 128,-1,8
 305 322 305 322 250 322 c 0,9,10
 203 322 203 322 163.5 340 c 128,-1,11
 124 358 124 358 94.5 389.5 c 128,-1,12
 65 421 65 421 49 461 c 128,-1,13
 33 501 33 501 33 545 c 0,14,15
 33 605 33 605 61 653 c 128,-1,16
 89 701 89 701 136 729 c 128,-1,17
 183 757 183 757 240 757 c 0,0,1
276 389 m 0,18,19
 291 389 291 389 310.5 397.5 c 128,-1,20
 330 406 330 406 344 426.5 c 128,-1,21
 358 447 358 447 358 483 c 0,22,23
 358 512 358 512 347 547.5 c 128,-1,24
 336 583 336 583 316.5 615.5 c 128,-1,25
 297 648 297 648 271 669 c 128,-1,26
 245 690 245 690 215 690 c 0,27,28
 181 690 181 690 156 665 c 128,-1,29
 131 640 131 640 131 596 c 0,30,31
 131 568 131 568 142 532.5 c 128,-1,32
 153 497 153 497 172.5 464.5 c 128,-1,33
 192 432 192 432 218.5 410.5 c 128,-1,34
 245 389 245 389 276 389 c 0,18,19
EndSplineSet
EndChar

StartChar: uni0394
Encoding: 916 916 364
Width: 618
GlyphClass: 1
Flags: W
LayerCount: 2
Fore
SplineSet
299 699 m 2,0,1
 302 709 302 709 309 709 c 256,2,3
 316 709 316 709 319 699 c 2,4,-1
 606 17 l 2,5,6
 608 13 608 13 608 10 c 0,7,8
 608 0 608 0 595 0 c 2,9,-1
 23 0 l 2,10,11
 10 0 10 0 10 8 c 0,12,13
 10 13 10 13 12 17 c 2,14,-1
 299 699 l 2,0,1
309 464 m 1,15,-1
 155 99 l 1,16,-1
 463 99 l 1,17,-1
 309 464 l 1,15,-1
EndSplineSet
Position2: "'cpsp' Capital Spacing in Latin lookup 0 subtable" dx=5 dy=0 dh=10 dv=0
EndChar

StartChar: uni03A9
Encoding: 937 937 365
Width: 749
GlyphClass: 1
Flags: W
LayerCount: 2
Fore
SplineSet
714 90 m 2,0,1
 729 90 729 90 729 75 c 2,2,-1
 729 16 l 2,3,4
 729 1 729 1 714 1 c 2,5,-1
 436 1 l 2,6,7
 421 1 421 1 421 16 c 2,8,-1
 421 75 l 2,9,10
 421 90 421 90 436 90 c 0,11,12
 457 90 457 90 479.5 111.5 c 128,-1,13
 502 133 502 133 521.5 170 c 128,-1,14
 541 207 541 207 553 253 c 128,-1,15
 565 299 565 299 565 348 c 0,16,17
 565 419 565 419 545.5 481 c 128,-1,18
 526 543 526 543 484 581.5 c 128,-1,19
 442 620 442 620 374 620 c 256,20,21
 306 620 306 620 264 581.5 c 128,-1,22
 222 543 222 543 203 481 c 128,-1,23
 184 419 184 419 184 348 c 0,24,25
 184 299 184 299 196 253 c 128,-1,26
 208 207 208 207 227.5 170 c 128,-1,27
 247 133 247 133 269.5 111.5 c 128,-1,28
 292 90 292 90 313 90 c 0,29,30
 328 90 328 90 328 75 c 2,31,-1
 328 16 l 2,32,33
 328 1 328 1 313 1 c 2,34,-1
 35 1 l 2,35,36
 20 1 20 1 20 16 c 2,37,-1
 20 75 l 2,38,39
 20 90 20 90 35 90 c 2,40,-1
 139 90 l 1,41,42
 91 137 91 137 60 203 c 128,-1,43
 29 269 29 269 29 348 c 0,44,45
 29 428 29 428 57.5 494 c 128,-1,46
 86 560 86 560 135 607.5 c 128,-1,47
 184 655 184 655 245.5 681 c 128,-1,48
 307 707 307 707 374 707 c 0,49,50
 440 707 440 707 502 681 c 128,-1,51
 564 655 564 655 613 607.5 c 128,-1,52
 662 560 662 560 691 494 c 128,-1,53
 720 428 720 428 720 348 c 0,54,55
 720 269 720 269 689 203 c 128,-1,56
 658 137 658 137 610 90 c 1,57,-1
 714 90 l 2,0,1
EndSplineSet
Position2: "'cpsp' Capital Spacing in Latin lookup 0 subtable" dx=5 dy=0 dh=10 dv=0
EndChar

StartChar: uni03BC
Encoding: 956 956 366
Width: 679
GlyphClass: 1
Flags: W
LayerCount: 2
Fore
SplineSet
588 202 m 2,0,1
 588 176 588 176 591.5 150.5 c 128,-1,2
 595 125 595 125 607.5 107.5 c 128,-1,3
 620 90 620 90 647 87 c 0,4,5
 659 86 659 86 659 74 c 2,6,-1
 659 41 l 2,7,8
 659 27 659 27 644 27 c 0,9,10
 595 27 595 27 562.5 21.5 c 128,-1,11
 530 16 530 16 506.5 7.5 c 128,-1,12
 483 -1 483 -1 460 -11 c 0,13,14
 458 -13 458 -13 452 -13 c 2,15,-1
 450 -13 l 2,16,17
 448 -13 448 -13 448 -10 c 2,18,-1
 464 116 l 1,19,20
 450 88 450 88 425 58 c 128,-1,21
 400 28 400 28 364.5 7.5 c 128,-1,22
 329 -13 329 -13 283 -13 c 2,23,-1
 254 -13 l 1,24,-1
 254 -185 l 2,25,26
 254 -200 254 -200 239 -200 c 2,27,-1
 128 -200 l 2,28,29
 113 -200 113 -200 113 -185 c 2,30,-1
 113 345 l 2,31,32
 113 386 113 386 94.5 413 c 128,-1,33
 76 440 76 440 40 440 c 2,34,-1
 35 440 l 2,35,36
 20 440 20 440 20 455 c 2,37,-1
 20 485 l 2,38,39
 20 500 20 500 35 500 c 2,40,-1
 239 500 l 2,41,42
 254 500 254 500 254 485 c 2,43,-1
 254 194 l 2,44,45
 254 167 254 167 256 139.5 c 128,-1,46
 258 112 258 112 273 93.5 c 128,-1,47
 288 75 288 75 326 75 c 0,48,49
 351 75 351 75 375.5 87.5 c 128,-1,50
 400 100 400 100 419.5 119.5 c 128,-1,51
 439 139 439 139 447 160 c 1,52,-1
 447 345 l 2,53,54
 447 386 447 386 429 413 c 128,-1,55
 411 440 411 440 374 440 c 2,56,-1
 372 440 l 2,57,58
 357 440 357 440 357 455 c 2,59,-1
 357 485 l 2,60,61
 357 500 357 500 372 500 c 2,62,-1
 573 500 l 2,63,64
 588 500 588 500 588 485 c 2,65,-1
 588 202 l 2,0,1
EndSplineSet
EndChar

StartChar: pi
Encoding: 960 960 367
Width: 697
GlyphClass: 1
Flags: W
LayerCount: 2
Fore
SplineSet
667 500 m 2,0,1
 682 500 682 500 682 485 c 2,2,-1
 682 435 l 2,3,4
 682 420 682 420 667 420 c 2,5,-1
 584 420 l 1,6,-1
 584 155 l 2,7,8
 584 115 584 115 602.5 87.5 c 128,-1,9
 621 60 621 60 658 60 c 2,10,-1
 662 60 l 2,11,12
 677 60 677 60 677 45 c 2,13,-1
 677 15 l 2,14,15
 677 0 677 0 662 0 c 2,16,-1
 540 0 l 2,17,18
 501 0 501 0 479 16 c 128,-1,19
 457 32 457 32 448 56.5 c 128,-1,20
 439 81 439 81 439 108 c 2,21,-1
 439 415 l 1,22,-1
 250 415 l 1,23,-1
 250 155 l 2,24,25
 250 115 250 115 268 87.5 c 128,-1,26
 286 60 286 60 323 60 c 2,27,-1
 325 60 l 2,28,29
 340 60 340 60 340 45 c 2,30,-1
 340 15 l 2,31,32
 340 0 340 0 325 0 c 2,33,-1
 34 0 l 2,34,35
 19 0 19 0 19 15 c 2,36,-1
 19 45 l 2,37,38
 19 60 19 60 34 60 c 2,39,-1
 37 60 l 2,40,41
 74 60 74 60 91.5 87.5 c 128,-1,42
 109 115 109 115 109 155 c 2,43,-1
 109 420 l 1,44,-1
 34 420 l 2,45,46
 19 420 19 420 19 435 c 2,47,-1
 19 485 l 2,48,49
 19 500 19 500 34 500 c 2,50,-1
 667 500 l 2,0,1
EndSplineSet
EndChar

StartChar: zero
Encoding: 48 48 368
Width: 674
GlyphClass: 1
Flags: W
LayerCount: 2
Fore
SplineSet
644 374 m 0,0,1
 645 244 645 244 606 158 c 128,-1,2
 567 72 567 72 498 29.5 c 128,-1,3
 429 -13 429 -13 337 -13 c 0,4,5
 246 -13 246 -13 177 29.5 c 128,-1,6
 108 72 108 72 69.5 158 c 128,-1,7
 31 244 31 244 30 374 c 0,8,9
 30 505 30 505 68.5 591 c 128,-1,10
 107 677 107 677 176.5 719.5 c 128,-1,11
 246 762 246 762 337 762 c 0,12,13
 429 762 429 762 497.5 719.5 c 128,-1,14
 566 677 566 677 605 591 c 128,-1,15
 644 505 644 505 644 374 c 0,0,1
504 374 m 0,16,17
 504 530 504 530 467 608 c 128,-1,18
 430 686 430 686 337 686 c 256,19,20
 244 686 244 686 207 608 c 128,-1,21
 170 530 170 530 170 374 c 0,22,23
 170 219 170 219 207 141 c 128,-1,24
 244 63 244 63 337 63 c 256,25,26
 430 63 430 63 467 141 c 128,-1,27
 504 219 504 219 504 374 c 0,16,17
EndSplineSet
Substitution2: "'zero' Slashed Zero in Latin lookup 30 subtable" zero.zero
Substitution2: "'case' Case-Sensitive Forms in Latin lookup 27 subtable" zero.lf
Substitution2: "'tnum' Tabular Numbers in Latin lookup 25 subtable" zero.tosf
Substitution2: "'lnum' Lining Figures in Latin lookup 23 subtable" zero.lf
Substitution2: "'frac' Diagonal Fractions in Latin lookup 17 subtable" zero.numr
Substitution2: "'dnom' Denominators in Latin lookup 15 subtable" zero.dnom
Substitution2: "'numr' Numerators in Latin lookup 14 subtable" zero.numr
Substitution2: "'sups' Superscript in Latin lookup 13 subtable" uni2070
Substitution2: "'sinf' Scientific Inferiors in Latin lookup 12 subtable" uni2080
Substitution2: "'subs' Subscript in Latin lookup 11 subtable" uni2080
AlternateSubs2: "'aalt' Access All Alternates in Latin lookup 1 subtable" zero.zero zero.lf zero.tosf zero.dnom zero.numr uni2080 uni2070
EndChar

StartChar: one
Encoding: 49 49 369
Width: 487
GlyphClass: 1
Flags: W
LayerCount: 2
Fore
SplineSet
319 155 m 2,0,1
 319 114 319 114 333 93.5 c 128,-1,2
 347 73 347 73 369 66.5 c 128,-1,3
 391 60 391 60 416 60 c 2,4,-1
 442 60 l 2,5,6
 457 60 457 60 457 45 c 2,7,-1
 457 15 l 2,8,9
 457 0 457 0 442 0 c 2,10,-1
 56 0 l 2,11,12
 41 0 41 0 41 15 c 2,13,-1
 41 45 l 2,14,15
 41 60 41 60 56 60 c 2,16,-1
 83 60 l 2,17,18
 109 60 109 60 130.5 66.5 c 128,-1,19
 152 73 152 73 165.5 93.5 c 128,-1,20
 179 114 179 114 179 155 c 2,21,-1
 179 565 l 2,22,23
 179 597 179 597 151 587 c 2,24,-1
 45 550 l 2,25,26
 38 548 38 548 34 553 c 128,-1,27
 30 558 30 558 30 565 c 2,28,-1
 30 600 l 2,29,30
 30 607 30 607 34 609.5 c 128,-1,31
 38 612 38 612 45 615 c 0,32,33
 110 643 110 643 176 677 c 128,-1,34
 242 711 242 711 304 751 c 0,35,36
 319 761 319 761 319 748 c 2,37,-1
 319 155 l 2,0,1
EndSplineSet
Substitution2: "'case' Case-Sensitive Forms in Latin lookup 27 subtable" one.lf
Substitution2: "'tnum' Tabular Numbers in Latin lookup 25 subtable" one.tosf
Substitution2: "'lnum' Lining Figures in Latin lookup 23 subtable" one.lf
Substitution2: "'frac' Diagonal Fractions in Latin lookup 17 subtable" one.numr
Substitution2: "'dnom' Denominators in Latin lookup 15 subtable" one.dnom
Substitution2: "'numr' Numerators in Latin lookup 14 subtable" one.numr
Substitution2: "'sups' Superscript in Latin lookup 13 subtable" uni00B9
Substitution2: "'sinf' Scientific Inferiors in Latin lookup 12 subtable" uni2081
Substitution2: "'subs' Subscript in Latin lookup 11 subtable" uni2081
AlternateSubs2: "'aalt' Access All Alternates in Latin lookup 1 subtable" one.lf one.tosf one.dnom one.numr uni2081 uni00B9
EndChar

StartChar: two
Encoding: 50 50 370
Width: 676
GlyphClass: 1
Flags: W
LayerCount: 2
Fore
SplineSet
353 85 m 2,0,1
 417 85 417 85 459.5 95.5 c 128,-1,2
 502 106 502 106 532.5 135.5 c 128,-1,3
 563 165 563 165 591 221 c 2,4,-1
 594 227 l 2,5,6
 599 235 599 235 607 235 c 0,7,8
 612 235 612 235 615 233 c 2,9,-1
 647 214 l 2,10,11
 656 209 656 209 656 203 c 0,12,13
 656 199 656 199 653 193 c 2,14,-1
 559 -5 l 2,15,16
 555 -14 555 -14 547 -14 c 0,17,18
 542 -14 542 -14 538 -10 c 2,19,-1
 533 -5 l 2,20,21
 530 -2 530 -2 526.5 -1 c 128,-1,22
 523 0 523 0 514 0 c 2,23,-1
 40 0 l 2,24,25
 25 0 25 0 25 15 c 2,26,-1
 25 43 l 2,27,28
 25 53 25 53 28 59 c 0,29,30
 51 102 51 102 89 137.5 c 128,-1,31
 127 173 127 173 173 205 c 128,-1,32
 219 237 219 237 265 270 c 128,-1,33
 311 303 311 303 349 340.5 c 128,-1,34
 387 378 387 378 410.5 423.5 c 128,-1,35
 434 469 434 469 434 526 c 0,36,37
 434 597 434 597 405 640 c 128,-1,38
 376 683 376 683 320 683 c 0,39,40
 260 683 260 683 226.5 638 c 128,-1,41
 193 593 193 593 193 522 c 0,42,43
 193 509 193 509 194 502 c 128,-1,44
 195 495 195 495 195 489 c 0,45,46
 195 479 195 479 183 479 c 0,47,48
 178 479 178 479 174 480.5 c 128,-1,49
 170 482 170 482 165 483 c 2,50,-1
 43 526 l 2,51,52
 26 532 26 532 26 546 c 0,53,54
 26 559 26 559 36 585 c 128,-1,55
 46 611 46 611 66.5 641 c 128,-1,56
 87 671 87 671 121 698.5 c 128,-1,57
 155 726 155 726 202 744 c 128,-1,58
 249 762 249 762 312 762 c 0,59,60
 395 762 395 762 462 736 c 128,-1,61
 529 710 529 710 568.5 657.5 c 128,-1,62
 608 605 608 605 608 525 c 0,63,64
 608 464 608 464 580.5 413 c 128,-1,65
 553 362 553 362 508.5 320 c 128,-1,66
 464 278 464 278 412.5 243 c 128,-1,67
 361 208 361 208 312 179.5 c 128,-1,68
 263 151 263 151 226.5 127.5 c 128,-1,69
 190 104 190 104 176 85 c 1,70,-1
 353 85 l 2,0,1
EndSplineSet
Substitution2: "'case' Case-Sensitive Forms in Latin lookup 27 subtable" two.lf
Substitution2: "'tnum' Tabular Numbers in Latin lookup 25 subtable" two.tosf
Substitution2: "'lnum' Lining Figures in Latin lookup 23 subtable" two.lf
Substitution2: "'frac' Diagonal Fractions in Latin lookup 17 subtable" two.numr
Substitution2: "'dnom' Denominators in Latin lookup 15 subtable" two.dnom
Substitution2: "'numr' Numerators in Latin lookup 14 subtable" two.numr
Substitution2: "'sups' Superscript in Latin lookup 13 subtable" uni00B2
Substitution2: "'sinf' Scientific Inferiors in Latin lookup 12 subtable" uni2082
Substitution2: "'subs' Subscript in Latin lookup 11 subtable" uni2082
AlternateSubs2: "'aalt' Access All Alternates in Latin lookup 1 subtable" two.lf two.tosf two.dnom two.numr uni2082 uni00B2
EndChar

StartChar: three
Encoding: 51 51 371
Width: 659
GlyphClass: 1
Flags: W
LayerCount: 2
Fore
SplineSet
301 55 m 0,0,1
 384 55 384 55 426 98.5 c 128,-1,2
 468 142 468 142 468 207 c 0,3,4
 468 281 468 281 422.5 311.5 c 128,-1,5
 377 342 377 342 303 342 c 0,6,7
 277 342 277 342 255 337.5 c 128,-1,8
 233 333 233 333 220 333 c 0,9,10
 206 333 206 333 203 346 c 2,11,-1
 196 383 l 2,12,13
 195 389 195 389 200 392.5 c 128,-1,14
 205 396 205 396 212 397 c 0,15,16
 280 411 280 411 332.5 428.5 c 128,-1,17
 385 446 385 446 414.5 478 c 128,-1,18
 444 510 444 510 444 568 c 0,19,20
 444 629 444 629 412 656 c 128,-1,21
 380 683 380 683 339 683 c 0,22,23
 279 683 279 683 240.5 638 c 128,-1,24
 202 593 202 593 202 522 c 0,25,26
 202 509 202 509 203 502 c 128,-1,27
 204 495 204 495 204 489 c 0,28,29
 204 479 204 479 192 479 c 0,30,31
 187 479 187 479 183 480.5 c 128,-1,32
 179 482 179 482 174 483 c 2,33,-1
 52 526 l 2,34,35
 35 532 35 532 35 546 c 0,36,37
 35 559 35 559 46 585 c 128,-1,38
 57 611 57 611 79 641 c 128,-1,39
 101 671 101 671 136.5 698.5 c 128,-1,40
 172 726 172 726 220 744 c 128,-1,41
 268 762 268 762 331 762 c 0,42,43
 413 762 413 762 474.5 739.5 c 128,-1,44
 536 717 536 717 570.5 673.5 c 128,-1,45
 605 630 605 630 605 567 c 0,46,47
 605 494 605 494 557 453 c 128,-1,48
 509 412 509 412 438 397 c 1,49,50
 492 393 492 393 535 371.5 c 128,-1,51
 578 350 578 350 603.5 311 c 128,-1,52
 629 272 629 272 629 213 c 0,53,54
 629 140 629 140 585 89.5 c 128,-1,55
 541 39 541 39 466 13 c 128,-1,56
 391 -13 391 -13 297 -13 c 0,57,58
 237 -13 237 -13 188 1.5 c 128,-1,59
 139 16 139 16 103.5 37.5 c 128,-1,60
 68 59 68 59 49 81 c 128,-1,61
 30 103 30 103 30 118 c 0,62,63
 30 126 30 126 35 131 c 2,64,-1
 120 210 l 2,65,66
 125 215 125 215 129.5 215.5 c 128,-1,67
 134 216 134 216 135 203 c 0,68,69
 140 163 140 163 161 129 c 128,-1,70
 182 95 182 95 217.5 75 c 128,-1,71
 253 55 253 55 301 55 c 0,0,1
EndSplineSet
Substitution2: "'case' Case-Sensitive Forms in Latin lookup 27 subtable" three.lf
Substitution2: "'tnum' Tabular Numbers in Latin lookup 25 subtable" three.tosf
Substitution2: "'lnum' Lining Figures in Latin lookup 23 subtable" three.lf
Substitution2: "'frac' Diagonal Fractions in Latin lookup 17 subtable" three.numr
Substitution2: "'dnom' Denominators in Latin lookup 15 subtable" three.dnom
Substitution2: "'numr' Numerators in Latin lookup 14 subtable" three.numr
Substitution2: "'sups' Superscript in Latin lookup 13 subtable" uni00B3
Substitution2: "'sinf' Scientific Inferiors in Latin lookup 12 subtable" uni2083
Substitution2: "'subs' Subscript in Latin lookup 11 subtable" uni2083
AlternateSubs2: "'aalt' Access All Alternates in Latin lookup 1 subtable" three.lf three.tosf three.dnom three.numr uni2083 uni00B3
EndChar

StartChar: four
Encoding: 52 52 372
Width: 627
GlyphClass: 1
Flags: W
LayerCount: 2
Fore
SplineSet
469 155 m 2,0,1
 469 114 469 114 483 93.5 c 128,-1,2
 497 73 497 73 519 66.5 c 128,-1,3
 541 60 541 60 566 60 c 2,4,-1
 592 60 l 2,5,6
 607 60 607 60 607 45 c 2,7,-1
 607 15 l 2,8,9
 607 0 607 0 592 0 c 2,10,-1
 206 0 l 2,11,12
 191 0 191 0 191 15 c 2,13,-1
 191 45 l 2,14,15
 191 60 191 60 206 60 c 2,16,-1
 233 60 l 2,17,18
 259 60 259 60 280.5 66.5 c 128,-1,19
 302 73 302 73 315.5 93.5 c 128,-1,20
 329 114 329 114 329 155 c 2,21,-1
 329 211 l 1,22,-1
 35 211 l 2,23,24
 20 211 20 211 20 226 c 2,25,-1
 20 288 l 2,26,27
 20 300 20 300 25 307 c 2,28,-1
 322 734 l 2,29,30
 327 741 327 741 331 745.5 c 128,-1,31
 335 750 335 750 342 750 c 2,32,-1
 457 750 l 2,33,34
 469 750 469 750 469 736 c 2,35,-1
 469 298 l 1,36,-1
 575 298 l 2,37,38
 590 298 590 298 590 283 c 2,39,-1
 590 226 l 2,40,41
 590 211 590 211 575 211 c 2,42,-1
 469 211 l 1,43,-1
 469 155 l 2,0,1
139 298 m 1,44,-1
 329 298 l 1,45,-1
 329 564 l 1,46,-1
 139 298 l 1,44,-1
EndSplineSet
Substitution2: "'case' Case-Sensitive Forms in Latin lookup 27 subtable" four.lf
Substitution2: "'tnum' Tabular Numbers in Latin lookup 25 subtable" four.tosf
Substitution2: "'lnum' Lining Figures in Latin lookup 23 subtable" four.lf
Substitution2: "'frac' Diagonal Fractions in Latin lookup 17 subtable" four.numr
Substitution2: "'dnom' Denominators in Latin lookup 15 subtable" four.dnom
Substitution2: "'numr' Numerators in Latin lookup 14 subtable" four.numr
Substitution2: "'sups' Superscript in Latin lookup 13 subtable" uni2074
Substitution2: "'sinf' Scientific Inferiors in Latin lookup 12 subtable" uni2084
Substitution2: "'subs' Subscript in Latin lookup 11 subtable" uni2084
AlternateSubs2: "'aalt' Access All Alternates in Latin lookup 1 subtable" four.lf four.tosf four.dnom four.numr uni2084 uni2074
EndChar

StartChar: five
Encoding: 53 53 373
Width: 609
GlyphClass: 1
Flags: W
LayerCount: 2
Fore
SplineSet
270 55 m 0,0,1
 341 55 341 55 378 98.5 c 128,-1,2
 415 142 415 142 415 217 c 0,3,4
 415 285 415 285 383.5 322.5 c 128,-1,5
 352 360 352 360 301 373.5 c 128,-1,6
 250 387 250 387 189.5 383.5 c 128,-1,7
 129 380 129 380 71 366 c 0,8,9
 65 365 65 365 62.5 369.5 c 128,-1,10
 60 374 60 374 61 381 c 2,11,-1
 115 737 l 2,12,13
 116 750 116 750 132 750 c 2,14,-1
 309 750 l 2,15,16
 369 750 369 750 402.5 751.5 c 128,-1,17
 436 753 436 753 455 761 c 128,-1,18
 474 769 474 769 488 786 c 2,19,-1
 505 807 l 2,20,21
 513 816 513 816 517 816 c 0,22,23
 522 816 522 816 526 813 c 2,24,-1
 557 795 l 2,25,26
 565 790 565 790 565 783 c 0,27,28
 565 780 565 780 562 775 c 2,29,-1
 489 659 l 2,30,31
 484 651 484 651 477 651 c 0,32,33
 475 651 475 651 472 652 c 128,-1,34
 469 653 469 653 463 659 c 0,35,36
 459 664 459 664 454.5 664 c 128,-1,37
 450 664 450 664 444 664 c 2,38,-1
 211 664 l 1,39,-1
 176 459 l 1,40,41
 220 469 220 469 274 468.5 c 128,-1,42
 328 468 328 468 381.5 455 c 128,-1,43
 435 442 435 442 480 413.5 c 128,-1,44
 525 385 525 385 552 338.5 c 128,-1,45
 579 292 579 292 579 224 c 0,46,47
 579 155 579 155 539.5 101.5 c 128,-1,48
 500 48 500 48 431 17.5 c 128,-1,49
 362 -13 362 -13 272 -13 c 0,50,51
 208 -13 208 -13 159.5 1.5 c 128,-1,52
 111 16 111 16 79 37.5 c 128,-1,53
 47 59 47 59 31 81 c 128,-1,54
 15 103 15 103 15 118 c 0,55,56
 15 126 15 126 20 131 c 2,57,-1
 105 210 l 2,58,59
 110 215 110 215 114.5 215.5 c 128,-1,60
 119 216 119 216 120 203 c 0,61,62
 125 163 125 163 142.5 129 c 128,-1,63
 160 95 160 95 191.5 75 c 128,-1,64
 223 55 223 55 270 55 c 0,0,1
EndSplineSet
Substitution2: "'case' Case-Sensitive Forms in Latin lookup 27 subtable" five.lf
Substitution2: "'tnum' Tabular Numbers in Latin lookup 25 subtable" five.tosf
Substitution2: "'lnum' Lining Figures in Latin lookup 23 subtable" five.lf
Substitution2: "'frac' Diagonal Fractions in Latin lookup 17 subtable" five.numr
Substitution2: "'dnom' Denominators in Latin lookup 15 subtable" five.dnom
Substitution2: "'numr' Numerators in Latin lookup 14 subtable" five.numr
Substitution2: "'sups' Superscript in Latin lookup 13 subtable" uni2075
Substitution2: "'sinf' Scientific Inferiors in Latin lookup 12 subtable" uni2085
Substitution2: "'subs' Subscript in Latin lookup 11 subtable" uni2085
AlternateSubs2: "'aalt' Access All Alternates in Latin lookup 1 subtable" five.lf five.tosf five.dnom five.numr uni2085 uni2075
EndChar

StartChar: six
Encoding: 54 54 374
Width: 618
GlyphClass: 1
Flags: W
LayerCount: 2
Fore
SplineSet
580 236 m 0,0,1
 580 159 580 159 542.5 103 c 128,-1,2
 505 47 505 47 442 17 c 128,-1,3
 379 -13 379 -13 302 -13 c 0,4,5
 236 -13 236 -13 185 14 c 128,-1,6
 134 41 134 41 99.5 88.5 c 128,-1,7
 65 136 65 136 47.5 196.5 c 128,-1,8
 30 257 30 257 30 323 c 0,9,10
 30 417 30 417 51.5 497 c 128,-1,11
 73 577 73 577 116 636.5 c 128,-1,12
 159 696 159 696 222.5 729 c 128,-1,13
 286 762 286 762 371 762 c 0,14,15
 424 762 424 762 464 748 c 128,-1,16
 504 734 504 734 532 712.5 c 128,-1,17
 560 691 560 691 574 669.5 c 128,-1,18
 588 648 588 648 588 633 c 0,19,20
 588 625 588 625 583 620 c 2,21,-1
 495 539 l 2,22,23
 490 534 490 534 487 537 c 0,24,25
 486 539 486 539 485 545 c 128,-1,26
 484 551 484 551 483 557 c 0,27,28
 476 618 476 618 445 650.5 c 128,-1,29
 414 683 414 683 357 683 c 0,30,31
 280 683 280 683 236.5 628 c 128,-1,32
 193 573 193 573 179 460 c 1,33,34
 212 480 212 480 249 485.5 c 128,-1,35
 286 491 286 491 315 491 c 0,36,37
 399 491 399 491 458 455 c 128,-1,38
 517 419 517 419 548.5 361 c 128,-1,39
 580 303 580 303 580 236 c 0,0,1
173 269 m 0,40,41
 174 241 174 241 183.5 205.5 c 128,-1,42
 193 170 193 170 211.5 137.5 c 128,-1,43
 230 105 230 105 259 84 c 128,-1,44
 288 63 288 63 327 63 c 0,45,46
 369 63 369 63 394.5 81.5 c 128,-1,47
 420 100 420 100 431 131 c 128,-1,48
 442 162 442 162 442 198 c 0,49,50
 442 228 442 228 434.5 265 c 128,-1,51
 427 302 427 302 410.5 336 c 128,-1,52
 394 370 394 370 366.5 392.5 c 128,-1,53
 339 415 339 415 298 415 c 0,54,55
 248 415 248 415 220.5 392 c 128,-1,56
 193 369 193 369 182.5 335.5 c 128,-1,57
 172 302 172 302 173 269 c 0,40,41
EndSplineSet
Substitution2: "'case' Case-Sensitive Forms in Latin lookup 27 subtable" six.lf
Substitution2: "'tnum' Tabular Numbers in Latin lookup 25 subtable" six.tosf
Substitution2: "'lnum' Lining Figures in Latin lookup 23 subtable" six.lf
Substitution2: "'frac' Diagonal Fractions in Latin lookup 17 subtable" six.numr
Substitution2: "'dnom' Denominators in Latin lookup 15 subtable" six.dnom
Substitution2: "'numr' Numerators in Latin lookup 14 subtable" six.numr
Substitution2: "'sups' Superscript in Latin lookup 13 subtable" uni2076
Substitution2: "'sinf' Scientific Inferiors in Latin lookup 12 subtable" uni2086
Substitution2: "'subs' Subscript in Latin lookup 11 subtable" uni2086
AlternateSubs2: "'aalt' Access All Alternates in Latin lookup 1 subtable" six.lf six.tosf six.dnom six.numr uni2086 uni2076
EndChar

StartChar: seven
Encoding: 55 55 375
Width: 583
GlyphClass: 1
Flags: W
LayerCount: 2
Fore
SplineSet
323 665 m 2,0,1
 254 665 254 665 209.5 654.5 c 128,-1,2
 165 644 165 644 134 614.5 c 128,-1,3
 103 585 103 585 75 529 c 2,4,-1
 72 523 l 2,5,6
 67 515 67 515 59 515 c 0,7,8
 54 515 54 515 51 517 c 2,9,-1
 19 536 l 2,10,11
 10 541 10 541 10 547 c 0,12,13
 10 551 10 551 13 557 c 2,14,-1
 107 755 l 2,15,16
 112 764 112 764 119 764 c 0,17,18
 124 764 124 764 128 760 c 2,19,-1
 133 755 l 2,20,21
 136 752 136 752 139.5 751 c 128,-1,22
 143 750 143 750 152 750 c 2,23,-1
 558 750 l 2,24,25
 573 750 573 750 573 735 c 2,26,-1
 573 677 l 2,27,28
 573 671 573 671 571.5 667 c 128,-1,29
 570 663 570 663 568 658 c 2,30,-1
 353 155 l 2,31,32
 340 125 340 125 346.5 106.5 c 128,-1,33
 353 88 353 88 370 78 c 128,-1,34
 387 68 387 68 409 64 c 128,-1,35
 431 60 431 60 450 60 c 2,36,-1
 476 60 l 2,37,38
 491 60 491 60 491 45 c 2,39,-1
 491 15 l 2,40,41
 491 0 491 0 476 0 c 2,42,-1
 70 0 l 2,43,44
 55 0 55 0 55 15 c 2,45,-1
 55 45 l 2,46,47
 55 60 55 60 70 60 c 2,48,-1
 97 60 l 2,49,50
 123 60 123 60 141.5 65.5 c 128,-1,51
 160 71 160 71 177 91 c 128,-1,52
 194 111 194 111 213 155 c 2,53,-1
 437 665 l 1,54,-1
 323 665 l 2,0,1
EndSplineSet
Substitution2: "'case' Case-Sensitive Forms in Latin lookup 27 subtable" seven.lf
Substitution2: "'tnum' Tabular Numbers in Latin lookup 25 subtable" seven.tosf
Substitution2: "'lnum' Lining Figures in Latin lookup 23 subtable" seven.lf
Substitution2: "'frac' Diagonal Fractions in Latin lookup 17 subtable" seven.numr
Substitution2: "'dnom' Denominators in Latin lookup 15 subtable" seven.dnom
Substitution2: "'numr' Numerators in Latin lookup 14 subtable" seven.numr
Substitution2: "'sups' Superscript in Latin lookup 13 subtable" uni2077
Substitution2: "'sinf' Scientific Inferiors in Latin lookup 12 subtable" uni2087
Substitution2: "'subs' Subscript in Latin lookup 11 subtable" uni2087
AlternateSubs2: "'aalt' Access All Alternates in Latin lookup 1 subtable" seven.lf seven.tosf seven.dnom seven.numr uni2087 uni2077
EndChar

StartChar: eight
Encoding: 56 56 376
Width: 558
GlyphClass: 1
Flags: W
LayerCount: 2
Fore
SplineSet
283 762 m 0,0,1
 351 762 351 762 401 738 c 128,-1,2
 451 714 451 714 479 672.5 c 128,-1,3
 507 631 507 631 507 577 c 0,4,5
 507 521 507 521 472 473.5 c 128,-1,6
 437 426 437 426 389 400 c 1,7,8
 452 366 452 366 490 317 c 128,-1,9
 528 268 528 268 528 194 c 0,10,11
 528 131 528 131 494.5 85.5 c 128,-1,12
 461 40 461 40 403.5 15 c 128,-1,13
 346 -10 346 -10 273 -10 c 0,14,15
 164 -10 164 -10 97 44 c 128,-1,16
 30 98 30 98 30 194 c 0,17,18
 30 262 30 262 69 304.5 c 128,-1,19
 108 347 108 347 166 371 c 1,20,21
 135 391 135 391 107.5 419 c 128,-1,22
 80 447 80 447 63 483.5 c 128,-1,23
 46 520 46 520 46 567 c 0,24,25
 46 626 46 626 77 669.5 c 128,-1,26
 108 713 108 713 162 737.5 c 128,-1,27
 216 762 216 762 283 762 c 0,0,1
283 683 m 0,28,29
 235 683 235 683 204.5 654 c 128,-1,30
 174 625 174 625 174 578 c 0,31,32
 174 543 174 543 195 515 c 128,-1,33
 216 487 216 487 245.5 467.5 c 128,-1,34
 275 448 275 448 298 440 c 1,35,36
 350 455 350 455 373 493 c 128,-1,37
 396 531 396 531 396 577 c 0,38,39
 396 617 396 617 369 650 c 128,-1,40
 342 683 342 683 283 683 c 0,28,29
257 326 m 1,41,42
 193 307 193 307 166 272.5 c 128,-1,43
 139 238 139 238 139 194 c 0,44,45
 139 163 139 163 153 134 c 128,-1,46
 167 105 167 105 197 87 c 128,-1,47
 227 69 227 69 273 69 c 0,48,49
 331 69 331 69 363.5 97.5 c 128,-1,50
 396 126 396 126 396 181 c 0,51,52
 396 213 396 213 381.5 237.5 c 128,-1,53
 367 262 367 262 344.5 280 c 128,-1,54
 322 298 322 298 298.5 309.5 c 128,-1,55
 275 321 275 321 257 326 c 1,41,42
EndSplineSet
Substitution2: "'case' Case-Sensitive Forms in Latin lookup 27 subtable" eight.lf
Substitution2: "'tnum' Tabular Numbers in Latin lookup 25 subtable" eight.tosf
Substitution2: "'lnum' Lining Figures in Latin lookup 23 subtable" eight.lf
Substitution2: "'frac' Diagonal Fractions in Latin lookup 17 subtable" eight.numr
Substitution2: "'dnom' Denominators in Latin lookup 15 subtable" eight.dnom
Substitution2: "'numr' Numerators in Latin lookup 14 subtable" eight.numr
Substitution2: "'sups' Superscript in Latin lookup 13 subtable" uni2078
Substitution2: "'sinf' Scientific Inferiors in Latin lookup 12 subtable" uni2088
Substitution2: "'subs' Subscript in Latin lookup 11 subtable" uni2088
AlternateSubs2: "'aalt' Access All Alternates in Latin lookup 1 subtable" eight.lf eight.tosf eight.dnom eight.numr uni2088 uni2078
EndChar

StartChar: nine
Encoding: 57 57 377
Width: 618
GlyphClass: 1
Flags: W
LayerCount: 2
Fore
SplineSet
588 426 m 0,0,1
 588 332 588 332 566.5 252 c 128,-1,2
 545 172 545 172 502 112.5 c 128,-1,3
 459 53 459 53 395.5 20 c 128,-1,4
 332 -13 332 -13 247 -13 c 0,5,6
 195 -13 195 -13 154.5 1 c 128,-1,7
 114 15 114 15 86 36.5 c 128,-1,8
 58 58 58 58 44 79.5 c 128,-1,9
 30 101 30 101 30 116 c 0,10,11
 30 124 30 124 35 129 c 2,12,-1
 123 210 l 2,13,14
 128 215 128 215 131 212 c 0,15,16
 133 211 133 211 133.5 204.5 c 128,-1,17
 134 198 134 198 135 192 c 0,18,19
 143 131 143 131 173.5 98.5 c 128,-1,20
 204 66 204 66 261 66 c 0,21,22
 338 66 338 66 381.5 121 c 128,-1,23
 425 176 425 176 439 289 c 1,24,25
 406 269 406 269 369 263.5 c 128,-1,26
 332 258 332 258 303 258 c 0,27,28
 219 258 219 258 160 294 c 128,-1,29
 101 330 101 330 69.5 388 c 128,-1,30
 38 446 38 446 38 513 c 0,31,32
 38 590 38 590 75.5 646 c 128,-1,33
 113 702 113 702 176 732 c 128,-1,34
 239 762 239 762 316 762 c 0,35,36
 382 762 382 762 433 735 c 128,-1,37
 484 708 484 708 518.5 660.5 c 128,-1,38
 553 613 553 613 570.5 552.5 c 128,-1,39
 588 492 588 492 588 426 c 0,0,1
445 480 m 0,40,41
 444 509 444 509 434.5 544 c 128,-1,42
 425 579 425 579 406.5 611.5 c 128,-1,43
 388 644 388 644 359 665 c 128,-1,44
 330 686 330 686 291 686 c 0,45,46
 249 686 249 686 224 667.5 c 128,-1,47
 199 649 199 649 187.5 618.5 c 128,-1,48
 176 588 176 588 176 551 c 0,49,50
 176 521 176 521 183.5 484 c 128,-1,51
 191 447 191 447 207.5 413 c 128,-1,52
 224 379 224 379 251.5 356.5 c 128,-1,53
 279 334 279 334 320 334 c 0,54,55
 370 334 370 334 397.5 357 c 128,-1,56
 425 380 425 380 436 413.5 c 128,-1,57
 447 447 447 447 445 480 c 0,40,41
EndSplineSet
Substitution2: "'case' Case-Sensitive Forms in Latin lookup 27 subtable" nine.lf
Substitution2: "'tnum' Tabular Numbers in Latin lookup 25 subtable" nine.tosf
Substitution2: "'lnum' Lining Figures in Latin lookup 23 subtable" nine.lf
Substitution2: "'frac' Diagonal Fractions in Latin lookup 17 subtable" nine.numr
Substitution2: "'dnom' Denominators in Latin lookup 15 subtable" nine.dnom
Substitution2: "'numr' Numerators in Latin lookup 14 subtable" nine.numr
Substitution2: "'sups' Superscript in Latin lookup 13 subtable" uni2079
Substitution2: "'sinf' Scientific Inferiors in Latin lookup 12 subtable" uni2089
Substitution2: "'subs' Subscript in Latin lookup 11 subtable" uni2089
AlternateSubs2: "'aalt' Access All Alternates in Latin lookup 1 subtable" nine.lf nine.tosf nine.dnom nine.numr uni2089 uni2079
EndChar

StartChar: zero.zero
Encoding: 65541 -1 378
Width: 602
GlyphClass: 1
Flags: W
LayerCount: 2
Fore
SplineSet
301 550 m 256,0,1
 358 550 358 550 408 528 c 128,-1,2
 458 506 458 506 496 467 c 128,-1,3
 534 428 534 428 555.5 376.5 c 128,-1,4
 577 325 577 325 577 266 c 256,5,6
 577 207 577 207 555.5 155.5 c 128,-1,7
 534 104 534 104 496 65 c 128,-1,8
 458 26 458 26 408 4 c 128,-1,9
 358 -18 358 -18 301 -18 c 256,10,11
 244 -18 244 -18 194 4 c 128,-1,12
 144 26 144 26 106 65 c 128,-1,13
 68 104 68 104 46.5 155.5 c 128,-1,14
 25 207 25 207 25 266 c 256,15,16
 25 325 25 325 46.5 376.5 c 128,-1,17
 68 428 68 428 106 467 c 128,-1,18
 144 506 144 506 194 528 c 128,-1,19
 244 550 244 550 301 550 c 256,0,1
300 474 m 0,20,21
 254 474 254 474 224 442.5 c 128,-1,22
 194 411 194 411 179.5 363 c 128,-1,23
 165 315 165 315 165 264 c 0,24,25
 165 222 165 222 175.5 180.5 c 128,-1,26
 186 139 186 139 207 108 c 1,27,-1
 336 468 l 1,28,29
 319 474 319 474 300 474 c 0,20,21
435 268 m 0,30,31
 435 310 435 310 425 350 c 128,-1,32
 415 390 415 390 395 420 c 1,33,-1
 266 59 l 1,34,35
 283 52 283 52 303 52 c 0,36,37
 338 52 338 52 362.5 71 c 128,-1,38
 387 90 387 90 403.5 122 c 128,-1,39
 420 154 420 154 427.5 192 c 128,-1,40
 435 230 435 230 435 268 c 0,30,31
EndSplineSet
EndChar

StartChar: zero.lf
Encoding: 65542 -1 379
Width: 674
GlyphClass: 1
Flags: W
LayerCount: 2
Fore
SplineSet
644 374 m 0,0,1
 645 244 645 244 606 158 c 128,-1,2
 567 72 567 72 498 29.5 c 128,-1,3
 429 -13 429 -13 337 -13 c 0,4,5
 246 -13 246 -13 177 29.5 c 128,-1,6
 108 72 108 72 69.5 158 c 128,-1,7
 31 244 31 244 30 374 c 0,8,9
 30 505 30 505 68.5 591 c 128,-1,10
 107 677 107 677 176.5 719.5 c 128,-1,11
 246 762 246 762 337 762 c 0,12,13
 429 762 429 762 497.5 719.5 c 128,-1,14
 566 677 566 677 605 591 c 128,-1,15
 644 505 644 505 644 374 c 0,0,1
504 374 m 0,16,17
 504 530 504 530 467 608 c 128,-1,18
 430 686 430 686 337 686 c 256,19,20
 244 686 244 686 207 608 c 128,-1,21
 170 530 170 530 170 374 c 0,22,23
 170 219 170 219 207 141 c 128,-1,24
 244 63 244 63 337 63 c 256,25,26
 430 63 430 63 467 141 c 128,-1,27
 504 219 504 219 504 374 c 0,16,17
EndSplineSet
Substitution2: "'zero' Slashed Zero in Latin lookup 30 subtable" zero.lf.zero
Substitution2: "'onum' Oldstyle Figures in Latin lookup 26 subtable" zero
Substitution2: "'tnum' Tabular Numbers in Latin lookup 25 subtable" zero.tf
AlternateSubs2: "'aalt' Access All Alternates in Latin lookup 1 subtable" zero zero.tf zero.lf.zero
EndChar

StartChar: one.lf
Encoding: 65543 -1 380
Width: 487
GlyphClass: 1
Flags: W
LayerCount: 2
Fore
SplineSet
319 155 m 2,0,1
 319 114 319 114 333 93.5 c 128,-1,2
 347 73 347 73 369 66.5 c 128,-1,3
 391 60 391 60 416 60 c 2,4,-1
 442 60 l 2,5,6
 457 60 457 60 457 45 c 2,7,-1
 457 15 l 2,8,9
 457 0 457 0 442 0 c 2,10,-1
 56 0 l 2,11,12
 41 0 41 0 41 15 c 2,13,-1
 41 45 l 2,14,15
 41 60 41 60 56 60 c 2,16,-1
 83 60 l 2,17,18
 109 60 109 60 130.5 66.5 c 128,-1,19
 152 73 152 73 165.5 93.5 c 128,-1,20
 179 114 179 114 179 155 c 2,21,-1
 179 565 l 2,22,23
 179 597 179 597 151 587 c 2,24,-1
 45 550 l 2,25,26
 38 548 38 548 34 553 c 128,-1,27
 30 558 30 558 30 565 c 2,28,-1
 30 600 l 2,29,30
 30 607 30 607 34 609.5 c 128,-1,31
 38 612 38 612 45 615 c 0,32,33
 110 643 110 643 176 677 c 128,-1,34
 242 711 242 711 304 751 c 0,35,36
 319 761 319 761 319 748 c 2,37,-1
 319 155 l 2,0,1
EndSplineSet
Substitution2: "'onum' Oldstyle Figures in Latin lookup 26 subtable" one
Substitution2: "'tnum' Tabular Numbers in Latin lookup 25 subtable" one.tf
AlternateSubs2: "'aalt' Access All Alternates in Latin lookup 1 subtable" one one.tf
EndChar

StartChar: two.lf
Encoding: 65544 -1 381
Width: 676
GlyphClass: 1
Flags: W
LayerCount: 2
Fore
SplineSet
353 85 m 2,0,1
 417 85 417 85 459.5 95.5 c 128,-1,2
 502 106 502 106 532.5 135.5 c 128,-1,3
 563 165 563 165 591 221 c 2,4,-1
 594 227 l 2,5,6
 599 235 599 235 607 235 c 0,7,8
 612 235 612 235 615 233 c 2,9,-1
 647 214 l 2,10,11
 656 209 656 209 656 203 c 0,12,13
 656 199 656 199 653 193 c 2,14,-1
 559 -5 l 2,15,16
 555 -14 555 -14 547 -14 c 0,17,18
 542 -14 542 -14 538 -10 c 2,19,-1
 533 -5 l 2,20,21
 530 -2 530 -2 526.5 -1 c 128,-1,22
 523 0 523 0 514 0 c 2,23,-1
 40 0 l 2,24,25
 25 0 25 0 25 15 c 2,26,-1
 25 43 l 2,27,28
 25 53 25 53 28 59 c 0,29,30
 51 102 51 102 89 137.5 c 128,-1,31
 127 173 127 173 173 205 c 128,-1,32
 219 237 219 237 265 270 c 128,-1,33
 311 303 311 303 349 340.5 c 128,-1,34
 387 378 387 378 410.5 423.5 c 128,-1,35
 434 469 434 469 434 526 c 0,36,37
 434 597 434 597 405 640 c 128,-1,38
 376 683 376 683 320 683 c 0,39,40
 260 683 260 683 226.5 638 c 128,-1,41
 193 593 193 593 193 522 c 0,42,43
 193 509 193 509 194 502 c 128,-1,44
 195 495 195 495 195 489 c 0,45,46
 195 479 195 479 183 479 c 0,47,48
 178 479 178 479 174 480.5 c 128,-1,49
 170 482 170 482 165 483 c 2,50,-1
 43 526 l 2,51,52
 26 532 26 532 26 546 c 0,53,54
 26 559 26 559 36 585 c 128,-1,55
 46 611 46 611 66.5 641 c 128,-1,56
 87 671 87 671 121 698.5 c 128,-1,57
 155 726 155 726 202 744 c 128,-1,58
 249 762 249 762 312 762 c 0,59,60
 395 762 395 762 462 736 c 128,-1,61
 529 710 529 710 568.5 657.5 c 128,-1,62
 608 605 608 605 608 525 c 0,63,64
 608 464 608 464 580.5 413 c 128,-1,65
 553 362 553 362 508.5 320 c 128,-1,66
 464 278 464 278 412.5 243 c 128,-1,67
 361 208 361 208 312 179.5 c 128,-1,68
 263 151 263 151 226.5 127.5 c 128,-1,69
 190 104 190 104 176 85 c 1,70,-1
 353 85 l 2,0,1
EndSplineSet
Substitution2: "'onum' Oldstyle Figures in Latin lookup 26 subtable" two
Substitution2: "'tnum' Tabular Numbers in Latin lookup 25 subtable" two.tf
AlternateSubs2: "'aalt' Access All Alternates in Latin lookup 1 subtable" two two.tf
EndChar

StartChar: three.lf
Encoding: 65545 -1 382
Width: 659
GlyphClass: 1
Flags: W
LayerCount: 2
Fore
SplineSet
301 55 m 0,0,1
 384 55 384 55 426 98.5 c 128,-1,2
 468 142 468 142 468 207 c 0,3,4
 468 281 468 281 422.5 311.5 c 128,-1,5
 377 342 377 342 303 342 c 0,6,7
 277 342 277 342 255 337.5 c 128,-1,8
 233 333 233 333 220 333 c 0,9,10
 206 333 206 333 203 346 c 2,11,-1
 196 383 l 2,12,13
 195 389 195 389 200 392.5 c 128,-1,14
 205 396 205 396 212 397 c 0,15,16
 280 411 280 411 332.5 428.5 c 128,-1,17
 385 446 385 446 414.5 478 c 128,-1,18
 444 510 444 510 444 568 c 0,19,20
 444 629 444 629 412 656 c 128,-1,21
 380 683 380 683 339 683 c 0,22,23
 279 683 279 683 240.5 638 c 128,-1,24
 202 593 202 593 202 522 c 0,25,26
 202 509 202 509 203 502 c 128,-1,27
 204 495 204 495 204 489 c 0,28,29
 204 479 204 479 192 479 c 0,30,31
 187 479 187 479 183 480.5 c 128,-1,32
 179 482 179 482 174 483 c 2,33,-1
 52 526 l 2,34,35
 35 532 35 532 35 546 c 0,36,37
 35 559 35 559 46 585 c 128,-1,38
 57 611 57 611 79 641 c 128,-1,39
 101 671 101 671 136.5 698.5 c 128,-1,40
 172 726 172 726 220 744 c 128,-1,41
 268 762 268 762 331 762 c 0,42,43
 413 762 413 762 474.5 739.5 c 128,-1,44
 536 717 536 717 570.5 673.5 c 128,-1,45
 605 630 605 630 605 567 c 0,46,47
 605 494 605 494 557 453 c 128,-1,48
 509 412 509 412 438 397 c 1,49,50
 492 393 492 393 535 371.5 c 128,-1,51
 578 350 578 350 603.5 311 c 128,-1,52
 629 272 629 272 629 213 c 0,53,54
 629 140 629 140 585 89.5 c 128,-1,55
 541 39 541 39 466 13 c 128,-1,56
 391 -13 391 -13 297 -13 c 0,57,58
 237 -13 237 -13 188 1.5 c 128,-1,59
 139 16 139 16 103.5 37.5 c 128,-1,60
 68 59 68 59 49 81 c 128,-1,61
 30 103 30 103 30 118 c 0,62,63
 30 126 30 126 35 131 c 2,64,-1
 120 210 l 2,65,66
 125 215 125 215 129.5 215.5 c 128,-1,67
 134 216 134 216 135 203 c 0,68,69
 140 163 140 163 161 129 c 128,-1,70
 182 95 182 95 217.5 75 c 128,-1,71
 253 55 253 55 301 55 c 0,0,1
EndSplineSet
Substitution2: "'onum' Oldstyle Figures in Latin lookup 26 subtable" three
Substitution2: "'tnum' Tabular Numbers in Latin lookup 25 subtable" three.tf
AlternateSubs2: "'aalt' Access All Alternates in Latin lookup 1 subtable" three three.tf
EndChar

StartChar: four.lf
Encoding: 65546 -1 383
Width: 627
GlyphClass: 1
Flags: W
LayerCount: 2
Fore
SplineSet
469 155 m 2,0,1
 469 114 469 114 483 93.5 c 128,-1,2
 497 73 497 73 519 66.5 c 128,-1,3
 541 60 541 60 566 60 c 2,4,-1
 592 60 l 2,5,6
 607 60 607 60 607 45 c 2,7,-1
 607 15 l 2,8,9
 607 0 607 0 592 0 c 2,10,-1
 206 0 l 2,11,12
 191 0 191 0 191 15 c 2,13,-1
 191 45 l 2,14,15
 191 60 191 60 206 60 c 2,16,-1
 233 60 l 2,17,18
 259 60 259 60 280.5 66.5 c 128,-1,19
 302 73 302 73 315.5 93.5 c 128,-1,20
 329 114 329 114 329 155 c 2,21,-1
 329 211 l 1,22,-1
 35 211 l 2,23,24
 20 211 20 211 20 226 c 2,25,-1
 20 288 l 2,26,27
 20 300 20 300 25 307 c 2,28,-1
 322 734 l 2,29,30
 327 741 327 741 331 745.5 c 128,-1,31
 335 750 335 750 342 750 c 2,32,-1
 457 750 l 2,33,34
 469 750 469 750 469 736 c 2,35,-1
 469 298 l 1,36,-1
 575 298 l 2,37,38
 590 298 590 298 590 283 c 2,39,-1
 590 226 l 2,40,41
 590 211 590 211 575 211 c 2,42,-1
 469 211 l 1,43,-1
 469 155 l 2,0,1
139 298 m 1,44,-1
 329 298 l 1,45,-1
 329 564 l 1,46,-1
 139 298 l 1,44,-1
EndSplineSet
Substitution2: "'onum' Oldstyle Figures in Latin lookup 26 subtable" four
Substitution2: "'tnum' Tabular Numbers in Latin lookup 25 subtable" four.tf
AlternateSubs2: "'aalt' Access All Alternates in Latin lookup 1 subtable" four four.tf
EndChar

StartChar: five.lf
Encoding: 65547 -1 384
Width: 609
GlyphClass: 1
Flags: W
LayerCount: 2
Fore
SplineSet
270 55 m 0,0,1
 341 55 341 55 378 98.5 c 128,-1,2
 415 142 415 142 415 217 c 0,3,4
 415 285 415 285 383.5 322.5 c 128,-1,5
 352 360 352 360 301 373.5 c 128,-1,6
 250 387 250 387 189.5 383.5 c 128,-1,7
 129 380 129 380 71 366 c 0,8,9
 65 365 65 365 62.5 369.5 c 128,-1,10
 60 374 60 374 61 381 c 2,11,-1
 115 737 l 2,12,13
 116 750 116 750 132 750 c 2,14,-1
 309 750 l 2,15,16
 369 750 369 750 402.5 751.5 c 128,-1,17
 436 753 436 753 455 761 c 128,-1,18
 474 769 474 769 488 786 c 2,19,-1
 505 807 l 2,20,21
 513 816 513 816 517 816 c 0,22,23
 522 816 522 816 526 813 c 2,24,-1
 557 795 l 2,25,26
 565 790 565 790 565 783 c 0,27,28
 565 780 565 780 562 775 c 2,29,-1
 489 659 l 2,30,31
 484 651 484 651 477 651 c 0,32,33
 475 651 475 651 472 652 c 128,-1,34
 469 653 469 653 463 659 c 0,35,36
 459 664 459 664 454.5 664 c 128,-1,37
 450 664 450 664 444 664 c 2,38,-1
 211 664 l 1,39,-1
 176 459 l 1,40,41
 220 469 220 469 274 468.5 c 128,-1,42
 328 468 328 468 381.5 455 c 128,-1,43
 435 442 435 442 480 413.5 c 128,-1,44
 525 385 525 385 552 338.5 c 128,-1,45
 579 292 579 292 579 224 c 0,46,47
 579 155 579 155 539.5 101.5 c 128,-1,48
 500 48 500 48 431 17.5 c 128,-1,49
 362 -13 362 -13 272 -13 c 0,50,51
 208 -13 208 -13 159.5 1.5 c 128,-1,52
 111 16 111 16 79 37.5 c 128,-1,53
 47 59 47 59 31 81 c 128,-1,54
 15 103 15 103 15 118 c 0,55,56
 15 126 15 126 20 131 c 2,57,-1
 105 210 l 2,58,59
 110 215 110 215 114.5 215.5 c 128,-1,60
 119 216 119 216 120 203 c 0,61,62
 125 163 125 163 142.5 129 c 128,-1,63
 160 95 160 95 191.5 75 c 128,-1,64
 223 55 223 55 270 55 c 0,0,1
EndSplineSet
Substitution2: "'onum' Oldstyle Figures in Latin lookup 26 subtable" five
Substitution2: "'tnum' Tabular Numbers in Latin lookup 25 subtable" five.tf
AlternateSubs2: "'aalt' Access All Alternates in Latin lookup 1 subtable" five five.tf
EndChar

StartChar: six.lf
Encoding: 65548 -1 385
Width: 618
GlyphClass: 1
Flags: W
LayerCount: 2
Fore
SplineSet
580 236 m 0,0,1
 580 159 580 159 542.5 103 c 128,-1,2
 505 47 505 47 442 17 c 128,-1,3
 379 -13 379 -13 302 -13 c 0,4,5
 236 -13 236 -13 185 14 c 128,-1,6
 134 41 134 41 99.5 88.5 c 128,-1,7
 65 136 65 136 47.5 196.5 c 128,-1,8
 30 257 30 257 30 323 c 0,9,10
 30 417 30 417 51.5 497 c 128,-1,11
 73 577 73 577 116 636.5 c 128,-1,12
 159 696 159 696 222.5 729 c 128,-1,13
 286 762 286 762 371 762 c 0,14,15
 424 762 424 762 464 748 c 128,-1,16
 504 734 504 734 532 712.5 c 128,-1,17
 560 691 560 691 574 669.5 c 128,-1,18
 588 648 588 648 588 633 c 0,19,20
 588 625 588 625 583 620 c 2,21,-1
 495 539 l 2,22,23
 490 534 490 534 487 537 c 0,24,25
 486 539 486 539 485 545 c 128,-1,26
 484 551 484 551 483 557 c 0,27,28
 476 618 476 618 445 650.5 c 128,-1,29
 414 683 414 683 357 683 c 0,30,31
 280 683 280 683 236.5 628 c 128,-1,32
 193 573 193 573 179 460 c 1,33,34
 212 480 212 480 249 485.5 c 128,-1,35
 286 491 286 491 315 491 c 0,36,37
 399 491 399 491 458 455 c 128,-1,38
 517 419 517 419 548.5 361 c 128,-1,39
 580 303 580 303 580 236 c 0,0,1
173 269 m 0,40,41
 174 241 174 241 183.5 205.5 c 128,-1,42
 193 170 193 170 211.5 137.5 c 128,-1,43
 230 105 230 105 259 84 c 128,-1,44
 288 63 288 63 327 63 c 0,45,46
 369 63 369 63 394.5 81.5 c 128,-1,47
 420 100 420 100 431 131 c 128,-1,48
 442 162 442 162 442 198 c 0,49,50
 442 228 442 228 434.5 265 c 128,-1,51
 427 302 427 302 410.5 336 c 128,-1,52
 394 370 394 370 366.5 392.5 c 128,-1,53
 339 415 339 415 298 415 c 0,54,55
 248 415 248 415 220.5 392 c 128,-1,56
 193 369 193 369 182.5 335.5 c 128,-1,57
 172 302 172 302 173 269 c 0,40,41
EndSplineSet
Substitution2: "'onum' Oldstyle Figures in Latin lookup 26 subtable" six
Substitution2: "'tnum' Tabular Numbers in Latin lookup 25 subtable" six.tf
AlternateSubs2: "'aalt' Access All Alternates in Latin lookup 1 subtable" six six.tf
EndChar

StartChar: seven.lf
Encoding: 65549 -1 386
Width: 583
GlyphClass: 1
Flags: W
LayerCount: 2
Fore
SplineSet
323 665 m 2,0,1
 254 665 254 665 209.5 654.5 c 128,-1,2
 165 644 165 644 134 614.5 c 128,-1,3
 103 585 103 585 75 529 c 2,4,-1
 72 523 l 2,5,6
 67 515 67 515 59 515 c 0,7,8
 54 515 54 515 51 517 c 2,9,-1
 19 536 l 2,10,11
 10 541 10 541 10 547 c 0,12,13
 10 551 10 551 13 557 c 2,14,-1
 107 755 l 2,15,16
 112 764 112 764 119 764 c 0,17,18
 124 764 124 764 128 760 c 2,19,-1
 133 755 l 2,20,21
 136 752 136 752 139.5 751 c 128,-1,22
 143 750 143 750 152 750 c 2,23,-1
 558 750 l 2,24,25
 573 750 573 750 573 735 c 2,26,-1
 573 677 l 2,27,28
 573 671 573 671 571.5 667 c 128,-1,29
 570 663 570 663 568 658 c 2,30,-1
 353 155 l 2,31,32
 340 125 340 125 346.5 106.5 c 128,-1,33
 353 88 353 88 370 78 c 128,-1,34
 387 68 387 68 409 64 c 128,-1,35
 431 60 431 60 450 60 c 2,36,-1
 476 60 l 2,37,38
 491 60 491 60 491 45 c 2,39,-1
 491 15 l 2,40,41
 491 0 491 0 476 0 c 2,42,-1
 70 0 l 2,43,44
 55 0 55 0 55 15 c 2,45,-1
 55 45 l 2,46,47
 55 60 55 60 70 60 c 2,48,-1
 97 60 l 2,49,50
 123 60 123 60 141.5 65.5 c 128,-1,51
 160 71 160 71 177 91 c 128,-1,52
 194 111 194 111 213 155 c 2,53,-1
 437 665 l 1,54,-1
 323 665 l 2,0,1
EndSplineSet
Substitution2: "'onum' Oldstyle Figures in Latin lookup 26 subtable" seven
Substitution2: "'tnum' Tabular Numbers in Latin lookup 25 subtable" seven.tf
AlternateSubs2: "'aalt' Access All Alternates in Latin lookup 1 subtable" seven seven.tf
EndChar

